<svg width="920" height="460" viewBox="0 0 920 460" fill="none" xmlns="http://www.w3.org/2000/svg">
<rect width="920" height="460" rx="46" fill="#D8BF92"/>
<path d="M259.656 69.97V94.005H264.056V110.78H256.686V100H236.501V110.78H229.131V94.005H231.661C232.981 91.9883 234.1 89.6967 235.016 87.13C235.933 84.5267 236.666 81.7583 237.216 78.825C237.766 75.8917 238.17 72.94 238.426 69.97H259.656ZM245.301 76.13C245.008 78.33 244.641 80.475 244.201 82.565C243.761 84.6183 243.211 86.5983 242.551 88.505C241.928 90.4117 241.158 92.245 240.241 94.005H251.461V76.13H245.301ZM295.355 84.93C295.355 87.4233 295.007 89.6417 294.31 91.585C293.65 93.5283 292.678 95.1783 291.395 96.535C290.148 97.855 288.627 98.8633 286.83 99.56C285.033 100.22 282.998 100.55 280.725 100.55C278.635 100.55 276.692 100.22 274.895 99.56C273.135 98.8633 271.613 97.855 270.33 96.535C269.047 95.1783 268.038 93.5283 267.305 91.585C266.608 89.6417 266.26 87.4233 266.26 84.93C266.26 81.5933 266.847 78.7883 268.02 76.515C269.193 74.205 270.88 72.445 273.08 71.235C275.28 70.025 277.883 69.42 280.89 69.42C283.713 69.42 286.207 70.025 288.37 71.235C290.533 72.445 292.238 74.205 293.485 76.515C294.732 78.7883 295.355 81.5933 295.355 84.93ZM274.62 84.93C274.62 86.91 274.822 88.5783 275.225 89.935C275.665 91.255 276.343 92.2633 277.26 92.96C278.177 93.62 279.368 93.95 280.835 93.95C282.302 93.95 283.475 93.62 284.355 92.96C285.272 92.2633 285.932 91.255 286.335 89.935C286.775 88.5783 286.995 86.91 286.995 84.93C286.995 82.95 286.775 81.3 286.335 79.98C285.932 78.66 285.272 77.67 284.355 77.01C283.438 76.35 282.247 76.02 280.78 76.02C278.617 76.02 277.04 76.7717 276.05 78.275C275.097 79.7417 274.62 81.96 274.62 84.93ZM313.238 100.55C310.268 100.55 307.738 100.018 305.648 98.955C303.558 97.855 301.963 96.1683 300.863 93.895C299.763 91.6217 299.213 88.7067 299.213 85.15C299.213 81.4833 299.836 78.495 301.083 76.185C302.329 73.875 304.053 72.17 306.253 71.07C308.489 69.97 311.056 69.42 313.953 69.42C316.006 69.42 317.784 69.6217 319.288 70.025C320.828 70.4283 322.166 70.905 323.303 71.455L320.883 77.78C319.599 77.2667 318.389 76.845 317.253 76.515C316.153 76.185 315.053 76.02 313.953 76.02C312.523 76.02 311.331 76.3683 310.378 77.065C309.424 77.725 308.709 78.7333 308.233 80.09C307.793 81.41 307.573 83.0783 307.573 85.095C307.573 87.075 307.811 88.725 308.288 90.045C308.801 91.3283 309.534 92.3 310.488 92.96C311.441 93.5833 312.596 93.895 313.953 93.895C315.676 93.895 317.198 93.675 318.518 93.235C319.838 92.7583 321.121 92.1167 322.368 91.31V98.295C321.121 99.1017 319.801 99.67 318.408 100C317.051 100.367 315.328 100.55 313.238 100.55ZM353.04 76.13H343.195V100H335V76.13H325.155V69.97H353.04V76.13ZM353.19 69.97H362.155L367.82 86.855C368.003 87.405 368.15 87.955 368.26 88.505C368.407 89.055 368.517 89.6233 368.59 90.21C368.7 90.7967 368.773 91.42 368.81 92.08H368.975C369.085 91.1267 369.232 90.2283 369.415 89.385C369.635 88.505 369.873 87.6617 370.13 86.855L375.685 69.97H384.485L371.78 103.85C371.01 105.903 370.002 107.627 368.755 109.02C367.545 110.413 366.133 111.458 364.52 112.155C362.907 112.852 361.147 113.2 359.24 113.2C358.323 113.2 357.517 113.145 356.82 113.035C356.16 112.962 355.573 112.87 355.06 112.76V106.27C355.463 106.343 355.94 106.417 356.49 106.49C357.077 106.563 357.682 106.6 358.305 106.6C359.442 106.6 360.413 106.362 361.22 105.885C362.063 105.408 362.76 104.748 363.31 103.905C363.86 103.098 364.3 102.218 364.63 101.265L365.125 99.78L353.19 69.97ZM414.973 69.97V100H406.778V76.13H395.888V100H387.693V69.97H414.973ZM430.667 69.97V81.52H442.107V69.97H450.302V100H442.107V87.625H430.667V100H422.472V69.97H430.667ZM457.788 100V69.97H465.983V81.575H469.943C473.023 81.575 475.553 81.905 477.533 82.565C479.513 83.1883 480.98 84.16 481.933 85.48C482.923 86.8 483.418 88.45 483.418 90.43C483.418 92.3733 482.96 94.06 482.043 95.49C481.163 96.92 479.752 98.0383 477.808 98.845C475.902 99.615 473.372 100 470.218 100H457.788ZM469.778 94.335C471.392 94.335 472.693 94.0417 473.683 93.455C474.71 92.8683 475.223 91.8967 475.223 90.54C475.223 89.3667 474.747 88.5233 473.793 88.01C472.877 87.4967 471.502 87.24 469.668 87.24H465.983V94.335H469.778ZM487.763 100V69.97H495.958V100H487.763ZM515.792 69.42C518.579 69.42 520.962 69.9517 522.942 71.015C524.959 72.0783 526.517 73.6183 527.617 75.635C528.717 77.6517 529.267 80.1267 529.267 83.06V87.02H509.907C509.98 89.33 510.659 91.145 511.942 92.465C513.262 93.785 515.077 94.445 517.387 94.445C519.33 94.445 521.09 94.2617 522.667 93.895C524.244 93.4917 525.875 92.8867 527.562 92.08V98.405C526.095 99.1383 524.537 99.67 522.887 100C521.274 100.367 519.312 100.55 517.002 100.55C513.995 100.55 511.337 100 509.027 98.9C506.717 97.7633 504.902 96.0583 503.582 93.785C502.262 91.5117 501.602 88.6517 501.602 85.205C501.602 81.685 502.189 78.77 503.362 76.46C504.572 74.1133 506.24 72.3533 508.367 71.18C510.494 70.0067 512.969 69.42 515.792 69.42ZM515.847 75.25C514.27 75.25 512.95 75.7633 511.887 76.79C510.86 77.8167 510.255 79.4117 510.072 81.575H521.567C521.567 80.365 521.347 79.2833 520.907 78.33C520.504 77.3767 519.88 76.625 519.037 76.075C518.194 75.525 517.13 75.25 515.847 75.25ZM577.503 110.78H570.133V100H544.723V69.97H552.918V93.84H564.908V69.97H573.103V94.005H577.503V110.78ZM593.864 69.42C596.651 69.42 599.034 69.9517 601.014 71.015C603.031 72.0783 604.589 73.6183 605.689 75.635C606.789 77.6517 607.339 80.1267 607.339 83.06V87.02H587.979C588.052 89.33 588.731 91.145 590.014 92.465C591.334 93.785 593.149 94.445 595.459 94.445C597.402 94.445 599.162 94.2617 600.739 93.895C602.316 93.4917 603.947 92.8867 605.634 92.08V98.405C604.167 99.1383 602.609 99.67 600.959 100C599.346 100.367 597.384 100.55 595.074 100.55C592.067 100.55 589.409 100 587.099 98.9C584.789 97.7633 582.974 96.0583 581.654 93.785C580.334 91.5117 579.674 88.6517 579.674 85.205C579.674 81.685 580.261 78.77 581.434 76.46C582.644 74.1133 584.312 72.3533 586.439 71.18C588.566 70.0067 591.041 69.42 593.864 69.42ZM593.919 75.25C592.342 75.25 591.022 75.7633 589.959 76.79C588.932 77.8167 588.327 79.4117 588.144 81.575H599.639C599.639 80.365 599.419 79.2833 598.979 78.33C598.576 77.3767 597.952 76.625 597.109 76.075C596.266 75.525 595.202 75.25 593.919 75.25ZM621.079 69.97V81.52H632.519V69.97H640.714V100H632.519V87.625H621.079V100H612.884V69.97H621.079ZM648.2 100V69.97H656.395V81.575H660.355C663.435 81.575 665.965 81.905 667.945 82.565C669.925 83.1883 671.392 84.16 672.345 85.48C673.335 86.8 673.83 88.45 673.83 90.43C673.83 92.3733 673.372 94.06 672.455 95.49C671.575 96.92 670.163 98.0383 668.22 98.845C666.313 99.615 663.783 100 660.63 100H648.2ZM660.19 94.335C661.803 94.335 663.105 94.0417 664.095 93.455C665.122 92.8683 665.635 91.8967 665.635 90.54C665.635 89.3667 665.158 88.5233 664.205 88.01C663.288 87.4967 661.913 87.24 660.08 87.24H656.395V94.335H660.19ZM678.175 100V69.97H686.37V100H678.175Z" fill="#A0804D"/>
<path d="M141.176 158.501C138.904 158.499 136.872 158.033 135.081 157.103C133.322 156.173 131.932 154.731 130.91 152.778C129.92 150.825 129.427 148.329 129.43 145.289C129.433 142.121 129.964 139.545 131.022 137.562C132.08 135.579 133.506 134.125 135.299 133.199C137.124 132.273 139.188 131.811 141.492 131.813C142.804 131.815 144.068 131.96 145.284 132.249C146.499 132.507 147.491 132.828 148.259 133.213L146.959 136.715C146.191 136.426 145.295 136.153 144.272 135.896C143.248 135.639 142.288 135.51 141.392 135.509C139.664 135.507 138.24 135.874 137.119 136.609C135.998 137.344 135.165 138.431 134.62 139.87C134.074 141.31 133.8 143.101 133.798 145.245C133.796 147.293 134.066 149.038 134.608 150.478C135.151 151.919 135.966 153.008 137.053 153.745C138.14 154.482 139.5 154.851 141.132 154.853C142.54 154.855 143.772 154.712 144.828 154.425C145.916 154.138 146.909 153.787 147.805 153.372L147.801 157.116C146.937 157.563 145.976 157.898 144.92 158.121C143.896 158.376 142.648 158.503 141.176 158.501ZM170.742 135.876L162.342 135.868L162.319 158.044L158.143 158.039L158.166 135.863L149.862 135.854L149.866 132.302L170.746 132.324L170.742 135.876ZM196.74 145.168C196.738 147.312 196.448 149.216 195.87 150.879C195.324 152.51 194.523 153.902 193.465 155.053C192.44 156.203 191.175 157.082 189.671 157.688C188.198 158.263 186.55 158.549 184.726 158.547C183.03 158.545 181.462 158.256 180.023 157.678C178.583 157.069 177.336 156.187 176.281 155.034C175.227 153.881 174.396 152.488 173.79 150.856C173.216 149.191 172.93 147.287 172.932 145.143C172.935 142.295 173.417 139.895 174.379 137.944C175.342 135.961 176.719 134.459 178.512 133.437C180.305 132.383 182.434 131.857 184.898 131.859C187.234 131.862 189.281 132.392 191.04 133.45C192.831 134.476 194.222 135.981 195.211 137.966C196.233 139.919 196.743 142.32 196.74 145.168ZM177.3 145.147C177.298 147.163 177.552 148.924 178.062 150.428C178.605 151.901 179.435 153.038 180.555 153.839C181.674 154.64 183.097 155.042 184.825 155.043C186.553 155.045 187.978 154.647 189.099 153.848C190.219 153.049 191.037 151.914 191.55 150.442C192.096 148.939 192.37 147.179 192.372 145.163C192.374 143.115 192.104 141.371 191.561 139.93C191.019 138.49 190.188 137.385 189.069 136.616C187.982 135.815 186.558 135.413 184.798 135.411C182.174 135.409 180.269 136.271 179.083 137.997C177.898 139.724 177.303 142.107 177.3 145.147ZM206.455 148.058C206.455 148.346 206.439 148.762 206.406 149.306C206.405 149.818 206.389 150.378 206.356 150.986C206.324 151.562 206.291 152.122 206.258 152.666C206.226 153.178 206.193 153.594 206.161 153.914L219.96 132.377L225.144 132.382L225.117 158.11L221.181 158.106L221.197 142.938C221.197 142.426 221.198 141.754 221.199 140.922C221.232 140.09 221.265 139.274 221.297 138.474C221.33 137.642 221.363 137.018 221.395 136.602L207.693 158.092L202.461 158.086L202.488 132.358L206.472 132.362L206.455 148.058ZM259.972 132.419L259.944 158.147L256.152 158.143L256.17 141.727C256.17 141.055 256.187 140.351 256.22 139.615C256.285 138.879 256.35 138.159 256.414 137.455L256.27 137.455L247.848 158.134L244.296 158.13L236.158 137.434L236.014 137.434C236.078 138.138 236.109 138.858 236.108 139.594C236.139 140.33 236.154 141.082 236.154 141.85L236.136 158.122L232.344 158.118L232.372 132.39L237.988 132.396L246.078 153.092L254.356 132.413L259.972 132.419ZM289.579 145.266C289.576 147.41 289.286 149.314 288.708 150.977C288.163 152.609 287.361 154 286.304 155.151C285.279 156.302 284.014 157.18 282.509 157.787C281.037 158.361 279.388 158.648 277.564 158.646C275.868 158.644 274.301 158.354 272.861 157.777C271.422 157.167 270.175 156.286 269.12 155.133C268.065 153.98 267.235 152.587 266.628 150.954C266.054 149.289 265.768 147.385 265.771 145.241C265.774 142.393 266.256 139.994 267.218 138.043C268.18 136.06 269.558 134.557 271.351 133.535C273.144 132.481 275.273 131.955 277.737 131.958C280.073 131.96 282.12 132.49 283.879 133.548C285.67 134.574 287.06 136.08 288.05 138.065C289.072 140.018 289.582 142.418 289.579 145.266ZM270.139 145.246C270.136 147.262 270.391 149.022 270.901 150.527C271.443 151.999 272.274 153.136 273.393 153.937C274.512 154.738 275.936 155.14 277.664 155.142C279.392 155.144 280.816 154.745 281.937 153.946C283.058 153.147 283.875 152.012 284.389 150.541C284.935 149.037 285.208 147.278 285.211 145.262C285.213 143.214 284.943 141.469 284.4 140.029C283.858 138.588 283.027 137.483 281.908 136.714C280.82 135.913 279.397 135.512 277.637 135.51C275.013 135.507 273.108 136.369 271.922 138.096C270.736 139.822 270.142 142.206 270.139 145.246ZM305.619 158.675C303.347 158.673 301.315 158.207 299.524 157.277C297.765 156.347 296.375 154.906 295.353 152.952C294.363 150.999 293.87 148.503 293.873 145.463C293.876 142.295 294.407 139.719 295.465 137.737C296.523 135.754 297.949 134.299 299.742 133.373C301.567 132.447 303.631 131.985 305.935 131.988C307.247 131.989 308.511 132.134 309.727 132.424C310.942 132.681 311.934 133.002 312.702 133.387L311.402 136.889C310.634 136.601 309.739 136.328 308.715 136.071C307.691 135.813 306.731 135.684 305.835 135.684C304.107 135.682 302.683 136.048 301.562 136.783C300.441 137.518 299.608 138.605 299.063 140.044C298.517 141.484 298.243 143.275 298.241 145.419C298.239 147.467 298.509 149.212 299.051 150.652C299.594 152.093 300.409 153.182 301.496 153.919C302.583 154.656 303.943 155.026 305.575 155.027C306.983 155.029 308.215 154.886 309.271 154.599C310.359 154.312 311.352 153.961 312.248 153.546L312.244 157.29C311.38 157.737 310.419 158.072 309.363 158.295C308.339 158.55 307.091 158.677 305.619 158.675ZM335.185 136.051L326.785 136.042L326.762 158.218L322.586 158.213L322.609 136.037L314.305 136.029L314.309 132.477L335.189 132.499L335.185 136.051ZM351.142 143.076C353.382 143.078 355.238 143.352 356.709 143.897C358.181 144.443 359.284 145.26 360.019 146.349C360.785 147.406 361.168 148.75 361.166 150.382C361.165 151.982 360.795 153.374 360.058 154.557C359.353 155.74 358.248 156.651 356.743 157.289C355.238 157.928 353.302 158.246 350.934 158.243L339.27 158.231L339.297 132.503L343.521 132.507L343.51 143.067L351.142 143.076ZM356.942 150.618C356.944 149.05 356.385 147.993 355.265 147.448C354.178 146.871 352.642 146.581 350.658 146.579L343.506 146.571L343.498 154.827L350.746 154.835C352.538 154.837 354.01 154.519 355.163 153.88C356.347 153.241 356.94 152.154 356.942 150.618ZM400.982 145.384C400.979 147.528 400.689 149.432 400.112 151.095C399.566 152.727 398.764 154.118 397.707 155.269C396.682 156.42 395.417 157.298 393.912 157.905C392.44 158.479 390.791 158.766 388.967 158.764C387.271 158.762 385.704 158.472 384.264 157.895C382.825 157.285 381.578 156.404 380.523 155.251C379.468 154.098 378.638 152.705 378.032 151.072C377.457 149.407 377.171 147.503 377.174 145.359C377.177 142.511 377.659 140.112 378.621 138.161C379.583 136.178 380.961 134.675 382.754 133.653C384.547 132.599 386.676 132.073 389.14 132.076C391.476 132.078 393.523 132.608 395.282 133.666C397.073 134.692 398.463 136.198 399.453 138.183C400.475 140.136 400.985 142.536 400.982 145.384ZM381.542 145.364C381.539 147.38 381.794 149.14 382.304 150.645C382.846 152.117 383.677 153.254 384.796 154.055C385.916 154.856 387.339 155.258 389.067 155.26C390.795 155.262 392.22 154.863 393.34 154.064C394.461 153.265 395.278 152.13 395.792 150.659C396.338 149.155 396.611 147.396 396.614 145.38C396.616 143.332 396.346 141.587 395.803 140.147C395.261 138.706 394.43 137.601 393.311 136.832C392.223 136.031 390.8 135.63 389.04 135.628C386.416 135.625 384.511 136.487 383.325 138.214C382.139 139.94 381.545 142.324 381.542 145.364ZM424.017 136.145L415.617 136.136L415.594 158.312L411.418 158.307L411.441 136.131L403.137 136.123L403.141 132.571L424.021 132.593L424.017 136.145ZM445.78 132.616L445.756 154.792L449.5 154.796L449.487 167.276L445.407 167.271L445.417 158.343L427.513 158.324L427.503 167.252L423.471 167.248L423.484 154.768L425.548 154.77C427.023 152.724 428.241 150.501 429.203 148.102C430.198 145.671 430.937 143.144 431.42 140.521C431.934 137.865 432.209 135.225 432.244 132.601L445.78 132.616ZM435.984 135.917C435.854 138.093 435.516 140.349 434.969 142.684C434.423 144.988 433.716 147.195 432.85 149.306C432.016 151.417 431.038 153.24 429.916 154.775L441.676 154.787L441.696 135.923L435.984 135.917ZM453.579 158.352L453.606 132.624L457.83 132.629L457.819 143.189L464.491 143.196C466.731 143.198 468.571 143.472 470.01 144.017C471.45 144.563 472.521 145.38 473.224 146.469C473.927 147.526 474.277 148.87 474.276 150.502C474.274 152.102 473.92 153.494 473.215 154.677C472.542 155.86 471.469 156.771 469.996 157.409C468.556 158.048 466.651 158.366 464.283 158.363L453.579 158.352ZM463.903 154.955C465.727 154.957 467.215 154.655 468.368 154.048C469.52 153.409 470.098 152.306 470.099 150.738C470.101 149.17 469.574 148.113 468.519 147.568C467.463 146.991 465.944 146.701 463.96 146.699L457.816 146.693L457.807 154.949L463.903 154.955ZM478.539 158.378L478.566 132.651L482.79 132.655L482.763 158.383L478.539 158.378ZM496.089 145.245L487.222 132.66L492.022 132.665L498.636 142.368L505.222 132.679L509.974 132.684L501.081 145.25L510.427 158.412L505.627 158.407L498.629 148.128L491.515 158.392L486.763 158.387L496.089 145.245ZM524.197 132.267C527.333 132.27 529.652 132.961 531.154 134.338C532.657 135.716 533.407 137.909 533.403 140.917L533.385 158.437L530.313 158.433L529.501 154.784L529.309 154.784C528.572 155.711 527.803 156.495 527.002 157.134C526.234 157.741 525.337 158.188 524.313 158.475C523.32 158.762 522.104 158.905 520.664 158.903C519.128 158.901 517.737 158.628 516.489 158.083C515.274 157.537 514.315 156.704 513.612 155.584C512.909 154.431 512.559 152.991 512.56 151.263C512.563 148.703 513.573 146.736 515.591 145.362C517.608 143.956 520.713 143.191 524.905 143.068L529.273 142.928L529.275 141.392C529.277 139.248 528.815 137.76 527.888 136.927C526.961 136.094 525.649 135.676 523.953 135.675C522.609 135.673 521.329 135.88 520.112 136.295C518.896 136.677 517.759 137.124 516.703 137.635L515.41 134.466C516.531 133.859 517.859 133.348 519.396 132.934C520.932 132.487 522.533 132.265 524.197 132.267ZM525.43 145.996C522.23 146.121 520.005 146.63 518.756 147.525C517.539 148.42 516.93 149.683 516.928 151.315C516.927 152.755 517.358 153.812 518.221 154.485C519.116 155.157 520.252 155.495 521.628 155.496C523.804 155.498 525.613 154.908 527.054 153.726C528.495 152.511 529.217 150.656 529.22 148.16L529.222 145.856L525.43 145.996ZM572.869 139.23C572.868 140.83 572.386 142.078 571.425 142.973C570.465 143.868 569.232 144.475 567.728 144.793L567.727 144.985C569.327 145.211 570.718 145.788 571.902 146.717C573.085 147.615 573.675 149.023 573.673 150.943C573.672 152.031 573.463 153.039 573.046 153.967C572.661 154.894 572.052 155.694 571.219 156.365C570.387 157.036 569.314 157.563 568.002 157.945C566.689 158.296 565.105 158.47 563.249 158.468L552.161 158.456L552.188 132.729L563.228 132.74C565.052 132.742 566.684 132.952 568.124 133.369C569.595 133.755 570.747 134.428 571.578 135.389C572.441 136.318 572.871 137.598 572.869 139.23ZM569.305 150.939C569.307 149.467 568.748 148.41 567.628 147.769C566.509 147.128 564.861 146.806 562.685 146.804L556.397 146.797L556.389 155.053L562.773 155.06C564.885 155.062 566.501 154.76 567.622 154.153C568.742 153.514 569.303 152.443 569.305 150.939ZM568.597 139.754C568.598 138.538 568.151 137.657 567.256 137.112C566.392 136.536 564.969 136.246 562.985 136.244L556.409 136.237L556.401 143.293L562.209 143.299C564.289 143.301 565.873 143.015 566.962 142.44C568.051 141.865 568.596 140.97 568.597 139.754ZM600.967 158.988C598.695 158.986 596.663 158.52 594.872 157.59C593.113 156.66 591.723 155.218 590.701 153.265C589.711 151.312 589.218 148.816 589.221 145.776C589.224 142.608 589.755 140.032 590.813 138.049C591.871 136.067 593.297 134.612 595.09 133.686C596.915 132.76 598.979 132.298 601.283 132.301C602.595 132.302 603.859 132.447 605.075 132.737C606.29 132.994 607.282 133.315 608.05 133.7L606.75 137.202C605.982 136.913 605.086 136.641 604.063 136.383C603.039 136.126 602.079 135.997 601.183 135.996C599.455 135.995 598.031 136.361 596.91 137.096C595.789 137.831 594.956 138.918 594.411 140.357C593.865 141.797 593.591 143.588 593.589 145.732C593.587 147.78 593.857 149.525 594.399 150.965C594.942 152.406 595.757 153.495 596.844 154.232C597.931 154.969 599.291 155.338 600.923 155.34C602.331 155.342 603.563 155.199 604.619 154.912C605.707 154.625 606.7 154.274 607.596 153.859L607.592 157.603C606.728 158.05 605.767 158.385 604.711 158.608C603.687 158.863 602.439 158.99 600.967 158.988ZM622.714 132.323C624.922 132.326 626.809 132.808 628.376 133.769C629.975 134.731 631.19 136.092 632.02 137.853C632.882 139.582 633.312 141.614 633.309 143.95L633.307 146.494L615.691 146.476C615.751 149.388 616.485 151.613 617.891 153.15C619.33 154.656 621.329 155.41 623.889 155.412C625.521 155.414 626.961 155.272 628.21 154.985C629.49 154.666 630.802 154.22 632.147 153.645L632.143 157.341C630.83 157.916 629.534 158.33 628.254 158.585C626.973 158.872 625.453 159.014 623.693 159.012C621.261 159.01 619.102 158.511 617.215 157.517C615.36 156.523 613.905 155.05 612.852 153.097C611.83 151.112 611.32 148.695 611.323 145.847C611.326 143.031 611.793 140.616 612.723 138.601C613.685 136.586 615.015 135.035 616.712 133.949C618.441 132.863 620.442 132.321 622.714 132.323ZM622.662 135.779C620.646 135.777 619.045 136.431 617.86 137.742C616.706 139.021 616.017 140.812 615.79 143.116L628.894 143.13C628.896 141.658 628.673 140.378 628.226 139.289C627.779 138.201 627.092 137.352 626.165 136.743C625.27 136.102 624.102 135.781 622.662 135.779ZM658.467 158.569L654.195 158.565L654.219 136.341L646.635 136.333C646.311 140.396 645.907 143.868 645.424 146.747C644.941 149.595 644.331 151.914 643.593 153.705C642.855 155.497 641.973 156.808 640.948 157.639C639.924 158.469 638.723 158.884 637.347 158.883C636.931 158.882 636.515 158.85 636.099 158.785C635.715 158.753 635.395 158.673 635.139 158.544L635.143 155.376C635.335 155.441 635.543 155.489 635.767 155.521C635.991 155.553 636.215 155.57 636.439 155.57C637.143 155.571 637.783 155.283 638.36 154.708C638.936 154.132 639.449 153.253 639.898 152.069C640.38 150.886 640.813 149.398 641.199 147.607C641.585 145.783 641.923 143.64 642.214 141.176C642.505 138.712 642.763 135.928 642.991 132.825L658.495 132.841L658.467 158.569ZM677.546 143.421C679.786 143.424 681.641 143.698 683.113 144.243C684.584 144.789 685.687 145.606 686.422 146.695C687.189 147.752 687.572 149.096 687.57 150.728C687.568 152.328 687.199 153.72 686.461 154.903C685.756 156.086 684.651 156.997 683.147 157.635C681.642 158.274 679.706 158.592 677.338 158.589L665.674 158.577L665.701 132.849L669.925 132.853L669.914 143.413L677.546 143.421ZM683.346 150.963C683.347 149.395 682.788 148.339 681.669 147.794C680.582 147.217 679.046 146.927 677.062 146.925L669.91 146.917L669.901 155.173L677.149 155.181C678.941 155.183 680.413 154.864 681.566 154.226C682.751 153.587 683.344 152.499 683.346 150.963ZM703.533 159.097C701.261 159.094 699.229 158.628 697.438 157.698C695.679 156.769 694.289 155.327 693.267 153.374C692.277 151.421 691.784 148.924 691.787 145.884C691.79 142.716 692.321 140.141 693.379 138.158C694.437 136.175 695.863 134.721 697.656 133.795C699.481 132.869 701.545 132.407 703.849 132.409C705.161 132.411 706.425 132.556 707.641 132.845C708.857 133.102 709.848 133.424 710.616 133.808L709.316 137.311C708.548 137.022 707.653 136.749 706.629 136.492C705.605 136.235 704.645 136.106 703.749 136.105C702.021 136.103 700.597 136.47 699.476 137.205C698.355 137.939 697.522 139.026 696.977 140.466C696.431 141.905 696.157 143.697 696.155 145.841C696.153 147.889 696.423 149.633 696.965 151.074C697.508 152.514 698.323 153.603 699.41 154.34C700.497 155.078 701.857 155.447 703.489 155.449C704.897 155.45 706.129 155.308 707.185 155.021C708.274 154.734 709.266 154.383 710.162 153.968L710.158 157.712C709.294 158.159 708.334 158.494 707.277 158.717C706.253 158.972 705.005 159.098 703.533 159.097ZM730.559 132.917L735.167 132.922L724.162 145.295L736.052 158.651L731.156 158.646L719.554 145.578L719.54 158.634L715.316 158.629L715.343 132.901L719.567 132.906L719.554 145.386L730.559 132.917ZM761.206 145.766C761.204 147.91 760.914 149.814 760.336 151.477C759.791 153.108 758.989 154.5 757.932 155.65C756.907 156.801 755.642 157.68 754.137 158.286C752.665 158.861 751.016 159.147 749.192 159.145C747.496 159.143 745.929 158.854 744.489 158.276C743.05 157.667 741.803 156.785 740.748 155.632C739.693 154.479 738.863 153.086 738.256 151.454C737.682 149.789 737.396 147.885 737.398 145.741C737.401 142.893 737.884 140.493 738.846 138.542C739.808 136.559 741.186 135.057 742.979 134.035C744.772 132.981 746.9 132.455 749.364 132.457C751.7 132.46 753.748 132.99 755.507 134.048C757.298 135.074 758.688 136.579 759.678 138.564C760.7 140.517 761.209 142.918 761.206 145.766ZM741.766 145.745C741.764 147.761 742.018 149.522 742.529 151.026C743.071 152.499 743.902 153.636 745.021 154.437C746.14 155.238 747.564 155.639 749.292 155.641C751.02 155.643 752.444 155.245 753.565 154.446C754.686 153.647 755.503 152.512 756.017 151.04C756.562 149.537 756.836 147.777 756.838 145.761C756.841 143.713 756.57 141.969 756.028 140.528C755.485 139.088 754.655 137.983 753.535 137.214C752.448 136.413 751.025 136.011 749.265 136.009C746.641 136.006 744.736 136.868 743.55 138.595C742.364 140.322 741.77 142.705 741.766 145.745ZM787.798 122.322C787.668 123.922 787.267 125.266 786.593 126.353C785.952 127.44 784.991 128.255 783.711 128.798C782.43 129.34 780.766 129.611 778.718 129.608C776.638 129.606 774.958 129.332 773.679 128.787C772.431 128.242 771.52 127.441 770.945 126.384C770.371 125.296 770.02 123.935 769.894 122.303L773.83 122.307C773.988 124.035 774.435 125.204 775.17 125.813C775.937 126.39 777.153 126.679 778.817 126.681C780.289 126.682 781.441 126.379 782.274 125.772C783.139 125.133 783.652 123.982 783.814 122.318L787.798 122.322ZM770.922 148.656C770.922 148.944 770.905 149.36 770.872 149.904C770.872 150.416 770.855 150.976 770.823 151.584C770.79 152.16 770.758 152.72 770.725 153.264C770.692 153.776 770.66 154.192 770.628 154.512L784.426 132.975L789.61 132.98L789.583 158.708L785.647 158.704L785.663 143.536C785.664 143.024 785.664 142.352 785.665 141.52C785.698 140.688 785.731 139.872 785.764 139.072C785.797 138.24 785.83 137.616 785.862 137.2L772.159 158.69L766.927 158.684L766.954 132.956L770.938 132.96L770.922 148.656ZM157.774 172.311L157.746 198.039L153.954 198.035L153.972 181.619C153.973 180.947 153.989 180.243 154.022 179.507C154.087 178.771 154.152 178.051 154.216 177.347L154.072 177.347L145.65 198.026L142.098 198.022L133.96 177.325L133.816 177.325C133.88 178.029 133.911 178.749 133.91 179.485C133.941 180.221 133.956 180.973 133.956 181.741L133.938 198.013L130.146 198.009L130.174 172.281L135.79 172.287L143.88 192.984L152.158 172.305L157.774 172.311ZM174.963 171.849C177.171 171.851 179.058 172.333 180.625 173.295C182.224 174.257 183.439 175.618 184.269 177.379C185.131 179.108 185.561 181.14 185.558 183.476L185.556 186.02L167.94 186.001C168.001 188.914 168.734 191.138 170.141 192.676C171.579 194.181 173.578 194.935 176.138 194.938C177.77 194.94 179.21 194.797 180.459 194.511C181.739 194.192 183.051 193.745 184.396 193.171L184.392 196.867C183.08 197.442 181.783 197.856 180.503 198.111C179.223 198.397 177.702 198.54 175.942 198.538C173.51 198.535 171.351 198.037 169.464 197.043C167.609 196.049 166.155 194.576 165.101 192.622C164.079 190.637 163.569 188.221 163.572 185.373C163.575 182.557 164.042 180.141 164.972 178.126C165.934 176.111 167.264 174.561 168.961 173.475C170.69 172.388 172.691 171.847 174.963 171.849ZM174.911 175.305C172.895 175.303 171.294 175.957 170.109 177.268C168.956 178.547 168.266 180.338 168.039 182.642L181.143 182.655C181.145 181.183 180.922 179.903 180.475 178.815C180.028 177.726 179.341 176.878 178.414 176.269C177.519 175.628 176.351 175.306 174.911 175.305ZM201.452 198.565C199.18 198.563 197.149 198.096 195.358 197.167C193.599 196.237 192.208 194.795 191.186 192.842C190.196 190.889 189.703 188.393 189.706 185.353C189.709 182.185 190.24 179.609 191.298 177.626C192.356 175.643 193.782 174.189 195.575 173.263C197.4 172.337 199.464 171.875 201.768 171.877C203.08 171.879 204.344 172.024 205.56 172.313C206.776 172.571 207.767 172.892 208.535 173.276L207.235 176.779C206.468 176.49 205.572 176.217 204.548 175.96C203.524 175.703 202.565 175.574 201.669 175.573C199.941 175.571 198.516 175.938 197.395 176.673C196.275 177.407 195.441 178.495 194.896 179.934C194.35 181.373 194.076 183.165 194.074 185.309C194.072 187.357 194.342 189.101 194.885 190.542C195.427 191.983 196.242 193.071 197.329 193.809C198.416 194.546 199.776 194.915 201.408 194.917C202.816 194.918 204.048 194.776 205.104 194.489C206.193 194.202 207.185 193.851 208.082 193.436L208.078 197.18C207.213 197.627 206.253 197.962 205.197 198.185C204.172 198.44 202.924 198.567 201.452 198.565ZM231.019 175.94L222.619 175.931L222.595 198.107L218.419 198.103L218.443 175.927L210.139 175.918L210.142 172.366L231.022 172.388L231.019 175.94ZM239.355 172.397L239.343 183.101L253.311 183.116L253.323 172.412L257.547 172.416L257.519 198.144L253.295 198.14L253.307 186.668L239.339 186.653L239.327 198.125L235.103 198.121L235.131 172.393L239.355 172.397ZM287.087 185.264C287.085 187.408 286.795 189.311 286.217 190.975C285.672 192.606 284.87 193.997 283.813 195.148C282.788 196.299 281.523 197.178 280.018 197.784C278.546 198.359 276.897 198.645 275.073 198.643C273.377 198.641 271.81 198.352 270.37 197.774C268.931 197.164 267.684 196.283 266.629 195.13C265.574 193.977 264.744 192.584 264.137 190.951C263.563 189.287 263.277 187.382 263.279 185.238C263.282 182.39 263.765 179.991 264.727 178.04C265.689 176.057 267.067 174.554 268.86 173.532C270.653 172.478 272.782 171.953 275.246 171.955C277.582 171.958 279.629 172.488 281.388 173.546C283.179 174.572 284.569 176.077 285.559 178.062C286.581 180.015 287.09 182.416 287.087 185.264ZM267.647 185.243C267.645 187.259 267.899 189.019 268.41 190.524C268.952 191.996 269.783 193.133 270.902 193.935C272.021 194.736 273.445 195.137 275.173 195.139C276.901 195.141 278.325 194.742 279.446 193.944C280.567 193.145 281.384 192.01 281.898 190.538C282.443 189.035 282.717 187.275 282.719 185.259C282.722 183.211 282.451 181.467 281.909 180.026C281.366 178.586 280.536 177.481 279.416 176.712C278.329 175.91 276.906 175.509 275.146 175.507C272.522 175.504 270.617 176.366 269.431 178.093C268.245 179.82 267.651 182.203 267.647 185.243ZM303.128 198.673C300.856 198.67 298.824 198.204 297.033 197.274C295.274 196.344 293.884 194.903 292.862 192.95C291.872 190.997 291.378 188.5 291.382 185.46C291.385 182.292 291.916 179.717 292.974 177.734C294.032 175.751 295.458 174.297 297.251 173.37C299.076 172.444 301.14 171.983 303.444 171.985C304.756 171.986 306.02 172.132 307.236 172.421C308.451 172.678 309.443 172.999 310.211 173.384L308.911 176.887C308.143 176.598 307.247 176.325 306.224 176.068C305.2 175.811 304.24 175.682 303.344 175.681C301.616 175.679 300.192 176.046 299.071 176.78C297.95 177.515 297.117 178.602 296.571 180.042C296.026 181.481 295.752 183.273 295.75 185.417C295.748 187.465 296.018 189.209 296.56 190.65C297.103 192.09 297.918 193.179 299.005 193.916C300.092 194.653 301.452 195.023 303.084 195.025C304.492 195.026 305.724 194.883 306.78 194.597C307.868 194.31 308.861 193.959 309.757 193.544L309.753 197.288C308.889 197.735 307.928 198.07 306.872 198.293C305.848 198.548 304.6 198.674 303.128 198.673ZM332.694 176.048L324.294 176.039L324.271 198.215L320.095 198.211L320.118 176.035L311.814 176.026L311.818 172.474L332.698 172.496L332.694 176.048ZM340.773 188.201C340.773 188.489 340.757 188.905 340.724 189.449C340.724 189.961 340.707 190.521 340.674 191.128C340.642 191.704 340.609 192.264 340.577 192.808C340.544 193.32 340.512 193.736 340.479 194.056L354.278 172.519L359.462 172.524L359.435 198.252L355.499 198.248L355.515 183.08C355.515 182.568 355.516 181.896 355.517 181.064C355.55 180.232 355.583 179.416 355.616 178.616C355.649 177.784 355.681 177.16 355.714 176.744L342.011 198.234L336.779 198.228L336.806 172.5L340.79 172.505L340.773 188.201ZM400.834 185.384C400.832 187.528 400.542 189.432 399.964 191.095C399.418 192.727 398.617 194.118 397.56 195.269C396.535 196.42 395.27 197.298 393.765 197.905C392.292 198.479 390.644 198.765 388.82 198.763C387.124 198.762 385.556 198.472 384.117 197.894C382.678 197.285 381.431 196.404 380.376 195.251C379.321 194.097 378.49 192.705 377.884 191.072C377.31 189.407 377.024 187.503 377.026 185.359C377.029 182.511 377.512 180.111 378.474 178.161C379.436 176.178 380.814 174.675 382.607 173.653C384.4 172.599 386.528 172.073 388.992 172.076C391.328 172.078 393.376 172.608 395.135 173.666C396.926 174.692 398.316 176.198 399.306 178.183C400.328 180.136 400.837 182.536 400.834 185.384ZM381.394 185.364C381.392 187.38 381.646 189.14 382.157 190.644C382.699 192.117 383.53 193.254 384.649 194.055C385.768 194.856 387.192 195.258 388.92 195.26C390.648 195.261 392.072 194.863 393.193 194.064C394.314 193.265 395.131 192.13 395.645 190.659C396.19 189.155 396.464 187.396 396.466 185.38C396.468 183.332 396.198 181.587 395.656 180.147C395.113 178.706 394.282 177.601 393.163 176.832C392.076 176.031 390.653 175.629 388.893 175.628C386.269 175.625 384.364 176.487 383.178 178.213C381.992 179.94 381.397 182.324 381.394 185.364ZM405.227 182.845C405.231 179.101 405.603 175.917 406.342 173.294C407.112 170.639 408.283 168.528 409.852 166.962C411.454 165.363 413.503 164.294 416 163.752C418.08 163.306 420.113 162.909 422.097 162.559C424.081 162.209 425.938 161.891 427.666 161.605L428.382 165.301C427.55 165.428 426.622 165.588 425.598 165.778C424.573 165.937 423.533 166.112 422.477 166.303C421.421 166.462 420.397 166.637 419.404 166.828C418.444 166.987 417.596 167.146 416.86 167.305C415.804 167.528 414.859 167.911 414.027 168.454C413.194 168.965 412.473 169.669 411.864 170.564C411.287 171.459 410.822 172.563 410.469 173.874C410.116 175.186 409.906 176.738 409.84 178.53L410.128 178.53C410.577 177.923 411.185 177.299 411.954 176.66C412.755 176.021 413.699 175.478 414.788 175.031C415.908 174.584 417.172 174.361 418.58 174.363C420.82 174.365 422.676 174.863 424.147 175.857C425.65 176.818 426.768 178.164 427.503 179.892C428.269 181.621 428.651 183.638 428.648 185.942C428.645 188.79 428.147 191.173 427.153 193.092C426.159 195.011 424.781 196.45 423.02 197.408C421.259 198.334 419.211 198.796 416.875 198.793C415.115 198.791 413.515 198.454 412.076 197.78C410.636 197.075 409.405 196.049 408.383 194.704C407.36 193.359 406.578 191.694 406.036 189.71C405.494 187.725 405.225 185.437 405.227 182.845ZM417.214 195.29C418.622 195.291 419.839 195.004 420.863 194.429C421.92 193.855 422.737 192.911 423.314 191.6C423.892 190.289 424.181 188.545 424.184 186.369C424.186 183.745 423.693 181.68 422.702 180.175C421.744 178.638 420.145 177.869 417.905 177.866C416.497 177.865 415.216 178.183 414.064 178.822C412.911 179.429 411.95 180.132 411.181 180.931C410.413 181.73 409.868 182.402 409.547 182.945C409.546 184.513 409.656 186.034 409.878 187.506C410.101 188.978 410.484 190.306 411.026 191.491C411.601 192.644 412.384 193.572 413.375 194.277C414.399 194.951 415.678 195.288 417.214 195.29ZM434.329 198.332L434.357 172.604L438.581 172.608L438.569 183.168L445.241 183.175C447.481 183.178 449.321 183.452 450.761 183.997C452.2 184.543 453.271 185.36 453.974 186.448C454.677 187.505 455.027 188.85 455.026 190.482C455.024 192.082 454.671 193.473 453.965 194.656C453.292 195.84 452.219 196.751 450.746 197.389C449.306 198.028 447.401 198.346 445.033 198.343L434.329 198.332ZM444.653 194.935C446.477 194.937 447.965 194.634 449.118 194.027C450.271 193.389 450.848 192.285 450.849 190.717C450.851 189.149 450.324 188.093 449.269 187.548C448.213 186.97 446.694 186.681 444.71 186.679L438.566 186.672L438.557 194.928L444.653 194.935ZM459.289 198.358L459.317 172.63L463.541 172.635L463.513 198.363L459.289 198.358ZM474.442 182.006C474.44 183.51 474.855 184.631 475.687 185.367C476.55 186.072 477.781 186.426 479.381 186.427C480.981 186.429 482.438 186.191 483.75 185.712C485.063 185.201 486.407 184.531 487.784 183.7L487.796 172.66L492.02 172.665L491.993 198.393L487.769 198.388L487.781 186.916C486.34 187.843 484.915 188.577 483.507 189.12C482.13 189.63 480.466 189.885 478.514 189.882C475.89 189.88 473.842 189.19 472.372 187.812C470.933 186.434 470.215 184.594 470.218 182.29L470.228 172.642L474.452 172.646L474.442 182.006ZM503.457 172.677L503.446 183.381L517.414 183.396L517.425 172.692L521.649 172.696L521.622 198.424L517.398 198.42L517.41 186.948L503.442 186.933L503.43 198.405L499.206 198.4L499.233 172.672L503.457 172.677ZM551.19 185.543C551.188 187.687 550.898 189.591 550.32 191.255C549.775 192.886 548.973 194.277 547.916 195.428C546.891 196.579 545.626 197.458 544.121 198.064C542.649 198.638 541 198.925 539.176 198.923C537.48 198.921 535.913 198.631 534.473 198.054C533.034 197.444 531.787 196.563 530.732 195.41C529.677 194.257 528.847 192.864 528.24 191.231C527.666 189.567 527.38 187.662 527.382 185.518C527.385 182.67 527.868 180.271 528.83 178.32C529.792 176.337 531.17 174.834 532.963 173.812C534.756 172.758 536.884 172.232 539.348 172.235C541.684 172.237 543.732 172.768 545.491 173.825C547.282 174.851 548.672 176.357 549.662 178.342C550.684 180.295 551.193 182.695 551.19 185.543ZM531.75 185.523C531.748 187.539 532.002 189.299 532.513 190.804C533.055 192.276 533.886 193.413 535.005 194.214C536.124 195.016 537.548 195.417 539.276 195.419C541.004 195.421 542.428 195.022 543.549 194.223C544.67 193.425 545.487 192.289 546.001 190.818C546.546 189.315 546.82 187.555 546.822 185.539C546.825 183.491 546.554 181.747 546.012 180.306C545.469 178.865 544.639 177.761 543.519 176.991C542.432 176.19 541.009 175.789 539.249 175.787C536.625 175.784 534.72 176.646 533.534 178.373C532.348 180.1 531.754 182.483 531.75 185.523ZM572.952 172.751L572.941 183.455L586.909 183.469L586.92 172.765L591.144 172.77L591.117 198.498L586.893 198.493L586.905 187.021L572.937 187.007L572.925 198.479L568.701 198.474L568.728 172.746L572.952 172.751ZM602.298 188.478C602.298 188.766 602.282 189.182 602.249 189.726C602.248 190.238 602.232 190.798 602.199 191.406C602.167 191.981 602.134 192.541 602.101 193.085C602.069 193.597 602.036 194.013 602.004 194.333L615.803 172.796L620.987 172.801L620.96 198.529L617.024 198.525L617.04 183.357C617.04 182.845 617.041 182.173 617.042 181.341C617.075 180.509 617.108 179.693 617.14 178.893C617.173 178.061 617.206 177.437 617.238 177.021L603.536 198.511L598.304 198.505L598.331 172.777L602.315 172.782L602.298 188.478ZM659.079 172.842L648.457 185.311L659.963 198.571L655.163 198.566L644.041 185.498L644.027 198.554L640.091 198.55L640.105 185.494L628.955 198.538L624.155 198.533L635.689 185.297L625.095 172.806L629.703 172.811L640.105 185.302L640.119 172.822L644.055 172.826L644.041 185.306L654.519 172.837L659.079 172.842ZM672.254 172.376C674.462 172.378 676.349 172.86 677.916 173.822C679.515 174.783 680.73 176.145 681.56 177.906C682.422 179.634 682.852 181.667 682.849 184.003L682.847 186.547L665.231 186.528C665.292 189.44 666.025 191.665 667.432 193.203C668.87 194.708 670.869 195.462 673.429 195.465C675.061 195.467 676.501 195.324 677.75 195.038C679.03 194.719 680.342 194.272 681.687 193.698L681.683 197.394C680.371 197.968 679.074 198.383 677.794 198.638C676.514 198.924 674.993 199.067 673.233 199.065C670.801 199.062 668.642 198.564 666.755 197.57C664.9 196.576 663.446 195.102 662.392 193.149C661.37 191.164 660.86 188.748 660.863 185.9C660.866 183.084 661.333 180.668 662.263 178.653C663.225 176.638 664.555 175.088 666.252 174.001C667.981 172.915 669.982 172.373 672.254 172.376ZM672.202 175.832C670.186 175.83 668.585 176.484 667.4 177.795C666.247 179.073 665.557 180.865 665.33 183.168L678.434 183.182C678.436 181.71 678.213 180.43 677.766 179.342C677.319 178.253 676.632 177.404 675.705 176.795C674.81 176.154 673.642 175.833 672.202 175.832ZM684.529 204.501L687.325 193.896L691.501 193.9L687.313 204.504L684.529 204.501ZM711.686 182.257C711.684 183.761 712.099 184.882 712.93 185.619C713.793 186.324 715.025 186.677 716.625 186.679C718.225 186.68 719.681 186.442 720.994 185.963C722.306 185.453 723.651 184.782 725.028 183.952L725.04 172.912L729.264 172.916L729.236 198.644L725.012 198.64L725.025 187.168C723.584 188.094 722.159 188.829 720.75 189.371C719.374 189.882 717.709 190.136 715.757 190.134C713.133 190.131 711.086 189.441 709.616 188.063C708.177 186.686 707.459 184.845 707.461 182.541L707.472 172.893L711.696 172.898L711.686 182.257ZM746.414 172.454C748.622 172.457 750.509 172.939 752.076 173.9C753.675 174.862 754.89 176.223 755.72 177.984C756.582 179.713 757.012 181.746 757.009 184.082L757.007 186.626L739.391 186.607C739.452 189.519 740.185 191.744 741.592 193.281C743.03 194.787 745.029 195.541 747.589 195.544C749.221 195.545 750.661 195.403 751.91 195.116C753.19 194.797 754.502 194.351 755.847 193.776L755.843 197.472C754.531 198.047 753.234 198.462 751.954 198.716C750.674 199.003 749.153 199.145 747.393 199.143C744.961 199.141 742.802 198.642 740.915 197.648C739.06 196.655 737.606 195.181 736.552 193.228C735.53 191.243 735.02 188.826 735.023 185.978C735.026 183.162 735.493 180.747 736.423 178.732C737.385 176.717 738.715 175.166 740.412 174.08C742.141 172.994 744.142 172.452 746.414 172.454ZM746.362 175.91C744.346 175.908 742.745 176.562 741.56 177.873C740.407 179.152 739.717 180.943 739.49 183.247L752.594 183.261C752.596 181.789 752.373 180.509 751.926 179.42C751.479 178.332 750.792 177.483 749.865 176.874C748.97 176.233 747.802 175.912 746.362 175.91ZM790.211 172.981L790.184 198.709L786.392 198.705L786.409 182.289C786.41 181.617 786.426 180.913 786.459 180.177C786.524 179.441 786.589 178.721 786.654 178.017L786.51 178.017L778.088 198.696L774.536 198.692L766.398 177.995L766.254 177.995C766.317 178.699 766.348 179.419 766.347 180.155C766.378 180.891 766.394 181.643 766.393 182.411L766.376 198.683L762.584 198.679L762.611 172.951L768.227 172.957L776.317 193.654L784.595 172.975L790.211 172.981ZM175.797 218.81C175.795 220.41 175.314 221.657 174.353 222.552C173.392 223.447 172.159 224.054 170.655 224.372L170.655 224.564C172.254 224.79 173.646 225.368 174.829 226.297C176.012 227.194 176.602 228.603 176.6 230.523C176.599 231.611 176.39 232.618 175.973 233.546C175.588 234.474 174.979 235.273 174.147 235.944C173.314 236.615 172.241 237.142 170.929 237.525C169.617 237.875 168.032 238.05 166.176 238.048L155.088 238.036L155.116 212.308L166.156 212.32C167.98 212.322 169.611 212.531 171.051 212.949C172.523 213.334 173.674 214.008 174.505 214.968C175.368 215.897 175.799 217.178 175.797 218.81ZM172.232 230.518C172.234 229.046 171.675 227.989 170.556 227.348C169.436 226.707 167.789 226.385 165.613 226.383L159.325 226.376L159.316 234.632L165.7 234.639C167.812 234.641 169.428 234.339 170.549 233.732C171.67 233.093 172.231 232.022 172.232 230.518ZM171.524 219.333C171.526 218.117 171.078 217.237 170.183 216.692C169.32 216.115 167.896 215.825 165.912 215.823L159.336 215.816L159.328 222.872L165.136 222.879C167.216 222.881 168.801 222.594 169.889 222.02C170.978 221.445 171.523 220.549 171.524 219.333ZM209.298 212.365L209.294 215.917L197.822 215.905L197.799 238.081L193.575 238.077L193.602 212.349L209.298 212.365ZM235.293 225.209C235.291 227.353 235.001 229.257 234.423 230.92C233.877 232.551 233.076 233.943 232.019 235.093C230.993 236.244 229.729 237.123 228.224 237.729C226.751 238.304 225.103 238.59 223.279 238.588C221.583 238.586 220.015 238.297 218.576 237.719C217.137 237.11 215.89 236.228 214.835 235.075C213.78 233.922 212.949 232.529 212.343 230.897C211.769 229.232 211.483 227.328 211.485 225.184C211.488 222.336 211.971 219.936 212.933 217.985C213.895 216.002 215.273 214.5 217.066 213.478C218.859 212.423 220.987 211.898 223.451 211.9C225.787 211.903 227.835 212.433 229.594 213.491C231.385 214.517 232.775 216.022 233.765 218.007C234.787 219.96 235.296 222.361 235.293 225.209ZM215.853 225.188C215.851 227.204 216.105 228.965 216.616 230.469C217.158 231.942 217.989 233.079 219.108 233.88C220.227 234.681 221.651 235.082 223.379 235.084C225.107 235.086 226.531 234.688 227.652 233.889C228.773 233.09 229.59 231.955 230.104 230.483C230.649 228.98 230.923 227.22 230.925 225.204C230.927 223.156 230.657 221.412 230.115 219.971C229.572 218.531 228.741 217.426 227.622 216.657C226.535 215.856 225.112 215.454 223.352 215.452C220.728 215.449 218.823 216.311 217.637 218.038C216.451 219.765 215.856 222.148 215.853 225.188ZM253.282 211.932C256.45 211.935 258.993 213.042 260.91 215.252C262.86 217.462 263.832 220.791 263.828 225.239C263.825 228.151 263.374 230.615 262.476 232.63C261.61 234.613 260.376 236.115 258.775 237.138C257.206 238.128 255.349 238.622 253.206 238.62C251.894 238.618 250.726 238.441 249.702 238.088C248.678 237.735 247.799 237.286 247.063 236.741C246.36 236.165 245.753 235.54 245.241 234.867L244.953 234.867C245.017 235.411 245.08 236.099 245.143 236.931C245.206 237.763 245.238 238.483 245.237 239.091L245.226 249.651L241.002 249.647L241.041 212.399L244.497 212.403L245.07 215.907L245.262 215.907C245.774 215.172 246.383 214.501 247.088 213.893C247.824 213.286 248.689 212.807 249.681 212.456C250.706 212.105 251.906 211.93 253.282 211.932ZM252.51 215.483C250.782 215.481 249.39 215.816 248.333 216.487C247.276 217.126 246.507 218.101 246.026 219.412C245.544 220.724 245.287 222.387 245.253 224.403L245.252 225.219C245.249 227.331 245.472 229.124 245.918 230.596C246.364 232.069 247.115 233.189 248.17 233.959C249.258 234.728 250.729 235.113 252.585 235.115C254.153 235.117 255.434 234.686 256.427 233.823C257.451 232.96 258.205 231.793 258.686 230.322C259.2 228.818 259.458 227.106 259.46 225.186C259.463 222.242 258.889 219.89 257.739 218.129C256.621 216.367 254.878 215.486 252.51 215.483ZM291.967 225.269C291.965 227.413 291.675 229.317 291.097 230.98C290.551 232.611 289.75 234.003 288.692 235.153C287.667 236.304 286.402 237.183 284.898 237.789C283.425 238.364 281.777 238.65 279.953 238.648C278.257 238.646 276.689 238.357 275.25 237.779C273.81 237.17 272.563 236.288 271.508 235.135C270.454 233.982 269.623 232.589 269.017 230.957C268.443 229.292 268.157 227.388 268.159 225.244C268.162 222.396 268.644 219.996 269.607 218.045C270.569 216.062 271.946 214.56 273.739 213.538C275.532 212.483 277.661 211.958 280.125 211.96C282.461 211.963 284.508 212.493 286.267 213.551C288.058 214.577 289.449 216.082 290.439 218.067C291.46 220.02 291.97 222.421 291.967 225.269ZM272.527 225.248C272.525 227.264 272.779 229.025 273.289 230.529C273.832 232.002 274.663 233.139 275.782 233.94C276.901 234.741 278.324 235.142 280.052 235.144C281.78 235.146 283.205 234.748 284.326 233.949C285.447 233.15 286.264 232.015 286.777 230.543C287.323 229.04 287.597 227.28 287.599 225.264C287.601 223.216 287.331 221.472 286.788 220.031C286.246 218.591 285.415 217.486 284.296 216.717C283.209 215.916 281.785 215.514 280.025 215.512C277.401 215.509 275.496 216.371 274.31 218.098C273.125 219.825 272.53 222.208 272.527 225.248ZM316.819 212.479L316.795 234.655L320.539 234.659L320.526 247.139L316.446 247.135L316.456 238.207L298.552 238.188L298.542 247.116L294.51 247.112L294.524 234.632L296.587 234.634C298.062 232.587 299.28 230.365 300.243 227.966C301.237 225.535 301.976 223.007 302.459 220.384C302.973 217.729 303.248 215.089 303.283 212.465L316.819 212.479ZM307.023 215.781C306.893 217.957 306.555 220.212 306.008 222.548C305.462 224.851 304.756 227.058 303.889 229.17C303.055 231.281 302.077 233.104 300.955 234.638L312.715 234.651L312.735 215.787L307.023 215.781ZM334.39 212.066C337.526 212.069 339.845 212.76 341.348 214.137C342.85 215.515 343.6 217.708 343.597 220.716L343.578 238.236L340.506 238.232L339.694 234.583L339.502 234.583C338.765 235.51 337.996 236.294 337.196 236.933C336.427 237.54 335.531 237.987 334.506 238.274C333.514 238.561 332.298 238.704 330.858 238.702C329.322 238.7 327.93 238.427 326.683 237.882C325.467 237.336 324.508 236.503 323.805 235.383C323.103 234.23 322.752 232.79 322.754 231.062C322.757 228.502 323.767 226.535 325.784 225.161C327.802 223.755 330.906 222.99 335.099 222.867L339.467 222.727L339.468 221.191C339.471 219.047 339.008 217.559 338.081 216.726C337.154 215.893 335.842 215.475 334.146 215.474C332.802 215.472 331.522 215.679 330.306 216.093C329.089 216.476 327.953 216.923 326.896 217.434L325.604 214.265C326.724 213.658 328.053 213.147 329.589 212.733C331.126 212.286 332.726 212.064 334.39 212.066ZM335.624 225.795C332.423 225.92 330.199 226.429 328.95 227.324C327.733 228.219 327.124 229.482 327.122 231.114C327.12 232.554 327.551 233.611 328.415 234.284C329.31 234.956 330.445 235.294 331.821 235.295C333.997 235.297 335.806 234.707 337.247 233.525C338.689 232.31 339.411 230.455 339.413 227.959L339.416 225.655L335.624 225.795ZM356.675 225.097L347.808 212.512L352.608 212.517L359.222 222.22L365.808 212.531L370.56 212.536L361.667 225.103L371.013 238.265L366.213 238.26L359.215 227.98L352.101 238.245L347.349 238.24L356.675 225.097ZM390.795 228.254C390.795 228.542 390.779 228.958 390.746 229.502C390.746 230.014 390.729 230.574 390.696 231.181C390.664 231.757 390.631 232.317 390.599 232.861C390.566 233.373 390.534 233.789 390.501 234.109L404.3 212.572L409.484 212.577L409.457 238.305L405.521 238.301L405.537 223.133C405.537 222.621 405.538 221.949 405.539 221.117C405.572 220.285 405.605 219.469 405.638 218.669C405.67 217.837 405.703 217.213 405.736 216.797L392.033 238.287L386.801 238.281L386.828 212.553L390.812 212.558L390.795 228.254ZM436.269 238.334L431.997 238.329L432.02 216.105L424.436 216.097C424.112 220.161 423.708 223.632 423.225 226.512C422.742 229.359 422.132 231.679 421.394 233.47C420.656 235.261 419.774 236.572 418.75 237.403C417.725 238.234 416.524 238.649 415.148 238.647C414.732 238.647 414.316 238.615 413.9 238.55C413.516 238.518 413.196 238.437 412.941 238.309L412.944 235.141C413.136 235.205 413.344 235.253 413.568 235.286C413.792 235.318 414.016 235.334 414.24 235.334C414.944 235.335 415.584 235.048 416.161 234.472C416.737 233.897 417.25 233.018 417.699 231.834C418.181 230.651 418.614 229.163 419 227.371C419.386 225.548 419.724 223.404 420.015 220.941C420.306 218.477 420.565 215.693 420.792 212.589L436.296 212.606L436.269 238.334ZM447.469 228.314C447.469 228.602 447.452 229.018 447.42 229.562C447.419 230.074 447.403 230.634 447.37 231.242C447.337 231.817 447.305 232.377 447.272 232.921C447.24 233.433 447.207 233.849 447.175 234.169L460.974 212.632L466.158 212.637L466.131 238.365L462.195 238.361L462.211 223.193C462.211 222.681 462.212 222.009 462.213 221.177C462.246 220.345 462.278 219.529 462.311 218.729C462.344 217.897 462.377 217.273 462.409 216.857L448.707 238.347L443.475 238.341L443.502 212.613L447.486 212.618L447.469 228.314ZM491.944 212.185C493.896 212.187 495.592 212.461 497.031 213.006C498.471 213.52 499.59 214.289 500.389 215.314C501.188 216.307 501.586 217.523 501.585 218.963C501.583 220.531 501.15 221.778 500.285 222.706C499.42 223.601 498.235 224.255 496.731 224.67L496.731 224.862C497.754 225.151 498.698 225.552 499.561 226.065C500.425 226.578 501.112 227.25 501.623 228.083C502.166 228.916 502.437 229.988 502.436 231.3C502.434 232.708 502.033 233.987 501.232 235.139C500.462 236.29 499.262 237.2 497.629 237.871C496.028 238.541 493.964 238.875 491.436 238.872C490.22 238.871 489.052 238.806 487.932 238.676C486.844 238.547 485.852 238.354 484.957 238.097C484.093 237.84 483.325 237.536 482.654 237.183L482.658 233.391C483.745 233.904 485.025 234.369 486.496 234.787C488 235.205 489.631 235.414 491.391 235.416C492.671 235.418 493.824 235.275 494.848 234.988C495.904 234.701 496.737 234.254 497.345 233.646C497.954 233.007 498.259 232.143 498.26 231.055C498.261 230.063 497.99 229.263 497.447 228.655C496.903 228.014 496.088 227.533 495 227.212C493.944 226.891 492.585 226.729 490.921 226.728L487.465 226.724L487.468 223.268L490.252 223.271C492.46 223.273 494.221 222.987 495.533 222.413C496.878 221.806 497.551 220.783 497.552 219.343C497.554 218.127 497.043 217.214 496.019 216.605C495.028 215.996 493.588 215.69 491.7 215.688C490.292 215.687 489.044 215.83 487.956 216.117C486.9 216.371 485.731 216.77 484.451 217.313L482.966 213.951C484.343 213.345 485.783 212.898 487.288 212.612C488.792 212.325 490.344 212.183 491.944 212.185ZM517.491 212.26C520.627 212.263 522.946 212.954 524.449 214.331C525.952 215.709 526.701 217.902 526.698 220.91L526.679 238.43L523.607 238.426L522.795 234.777L522.603 234.777C521.866 235.704 521.098 236.488 520.297 237.127C519.528 237.734 518.632 238.181 517.607 238.468C516.615 238.755 515.399 238.898 513.959 238.896C512.423 238.894 511.031 238.621 509.784 238.076C508.568 237.53 507.609 236.697 506.906 235.577C506.204 234.424 505.853 232.983 505.855 231.255C505.858 228.695 506.868 226.729 508.885 225.355C510.903 223.949 514.008 223.184 518.2 223.061L522.568 222.921L522.57 221.385C522.572 219.241 522.109 217.753 521.182 216.92C520.255 216.087 518.944 215.669 517.248 215.668C515.904 215.666 514.623 215.873 513.407 216.287C512.191 216.67 511.054 217.117 509.998 217.628L508.705 214.458C509.826 213.852 511.154 213.341 512.69 212.927C514.227 212.48 515.827 212.258 517.491 212.26ZM518.725 225.989C515.525 226.114 513.3 226.623 512.051 227.518C510.834 228.413 510.225 229.676 510.223 231.308C510.221 232.748 510.652 233.805 511.516 234.477C512.411 235.15 513.547 235.488 514.923 235.489C517.099 235.491 518.907 234.901 520.348 233.719C521.79 232.504 522.512 230.649 522.514 228.153L522.517 225.849L518.725 225.989ZM561.179 212.738L561.175 216.29L549.703 216.278L549.68 238.454L545.456 238.449L545.483 212.721L561.179 212.738ZM577.529 212.275C580.697 212.279 583.24 213.385 585.158 215.595C587.107 217.806 588.08 221.135 588.075 225.583C588.072 228.495 587.621 230.958 586.723 232.973C585.857 234.956 584.623 236.459 583.022 237.481C581.453 238.472 579.597 238.966 577.453 238.963C576.141 238.962 574.973 238.785 573.949 238.432C572.926 238.079 572.046 237.63 571.311 237.085C570.607 236.508 570 235.883 569.489 235.211L569.201 235.211C569.264 235.755 569.327 236.443 569.391 237.275C569.454 238.107 569.485 238.827 569.484 239.435L569.473 249.995L565.249 249.99L565.289 212.742L568.745 212.746L569.317 216.251L569.509 216.251C570.022 215.515 570.63 214.844 571.335 214.237C572.072 213.63 572.936 213.151 573.929 212.8C574.953 212.449 576.153 212.274 577.529 212.275ZM576.757 215.827C575.029 215.825 573.637 216.159 572.58 216.83C571.524 217.469 570.755 218.444 570.273 219.756C569.792 221.067 569.534 222.731 569.5 224.747L569.499 225.563C569.497 227.675 569.719 229.467 570.165 230.94C570.612 232.412 571.363 233.533 572.418 234.302C573.505 235.071 574.977 235.457 576.833 235.459C578.401 235.46 579.681 235.03 580.674 234.167C581.699 233.304 582.452 232.137 582.934 230.665C583.447 229.162 583.705 227.45 583.707 225.53C583.71 222.586 583.137 220.233 581.987 218.472C580.868 216.711 579.125 215.829 576.757 215.827ZM603.604 212.351C606.74 212.354 609.06 213.045 610.562 214.422C612.065 215.8 612.814 217.993 612.811 221.001L612.793 238.521L609.721 238.518L608.908 234.869L608.716 234.868C607.979 235.796 607.211 236.579 606.41 237.218C605.641 237.825 604.745 238.272 603.721 238.559C602.728 238.846 601.512 238.989 600.072 238.987C598.536 238.986 597.144 238.712 595.897 238.167C594.682 237.622 593.722 236.789 593.02 235.668C592.317 234.515 591.966 233.075 591.968 231.347C591.971 228.787 592.981 226.82 594.998 225.446C597.016 224.04 600.121 223.275 604.313 223.152L608.681 223.012L608.683 221.476C608.685 219.332 608.222 217.844 607.295 217.011C606.368 216.178 605.057 215.761 603.361 215.759C602.017 215.757 600.736 215.964 599.52 216.379C598.304 216.761 597.167 217.208 596.111 217.719L594.818 214.55C595.939 213.943 597.267 213.432 598.804 213.018C600.34 212.572 601.94 212.349 603.604 212.351ZM604.838 226.08C601.638 226.205 599.413 226.715 598.164 227.609C596.947 228.504 596.338 229.767 596.336 231.399C596.335 232.839 596.765 233.896 597.629 234.569C598.524 235.242 599.66 235.579 601.036 235.58C603.212 235.583 605.02 234.993 606.462 233.81C607.903 232.596 608.625 230.74 608.627 228.244L608.63 225.94L604.838 226.08ZM624.03 212.805L624.019 223.509L637.987 223.523L637.998 212.819L642.222 212.824L642.195 238.552L637.971 238.547L637.983 227.075L624.015 227.061L624.003 238.533L619.779 238.528L619.806 212.8L624.03 212.805ZM653.376 228.532C653.376 228.82 653.359 229.236 653.327 229.78C653.326 230.292 653.309 230.852 653.277 231.46C653.244 232.036 653.212 232.596 653.179 233.14C653.146 233.652 653.114 234.067 653.082 234.387L666.881 212.85L672.065 212.856L672.037 238.584L668.101 238.579L668.117 223.411C668.118 222.899 668.119 222.227 668.119 221.395C668.152 220.563 668.185 219.747 668.218 218.947C668.251 218.116 668.284 217.492 668.316 217.076L654.613 238.565L649.381 238.56L649.409 212.832L653.393 212.836L653.376 228.532ZM704.648 247.546L700.52 247.542L700.529 238.614L679.265 238.591L679.292 212.863L683.516 212.868L683.493 235.044L696.789 235.058L696.812 212.882L701.036 212.886L701.013 235.11L704.661 235.114L704.648 247.546ZM718.597 212.425C720.805 212.427 722.692 212.909 724.259 213.871C725.858 214.833 727.073 216.194 727.903 217.955C728.765 219.684 729.195 221.716 729.193 224.052L729.19 226.596L711.574 226.577C711.635 229.489 712.368 231.714 713.775 233.252C715.213 234.757 717.212 235.511 719.772 235.514C721.404 235.516 722.845 235.373 724.093 235.087C725.373 234.768 726.686 234.321 728.03 233.747L728.026 237.443C726.714 238.017 725.417 238.432 724.137 238.687C722.857 238.973 721.337 239.116 719.577 239.114C717.145 239.111 714.985 238.613 713.098 237.619C711.243 236.625 709.789 235.152 708.735 233.198C707.713 231.213 707.204 228.797 707.207 225.949C707.21 223.133 707.676 220.717 708.606 218.702C709.568 216.687 710.898 215.137 712.595 214.05C714.324 212.964 716.325 212.422 718.597 212.425ZM718.545 215.881C716.529 215.879 714.929 216.533 713.743 217.844C712.59 219.122 711.9 220.914 711.673 223.218L724.777 223.231C724.779 221.759 724.556 220.479 724.11 219.391C723.663 218.302 722.976 217.453 722.048 216.844C721.153 216.204 719.985 215.882 718.545 215.881ZM755.637 202.288C755.508 203.888 755.106 205.232 754.433 206.319C753.792 207.406 752.831 208.221 751.551 208.764C750.27 209.306 748.606 209.577 746.558 209.574C744.478 209.572 742.798 209.298 741.519 208.753C740.271 208.208 739.36 207.407 738.785 206.35C738.21 205.262 737.86 203.901 737.733 202.269L741.669 202.273C741.828 204.001 742.274 205.17 743.01 205.779C743.777 206.356 744.993 206.645 746.657 206.647C748.129 206.648 749.281 206.345 750.114 205.738C750.978 205.099 751.492 203.948 751.653 202.284L755.637 202.288ZM738.762 228.622C738.761 228.91 738.745 229.326 738.712 229.87C738.712 230.382 738.695 230.942 738.662 231.55C738.63 232.126 738.597 232.686 738.565 233.23C738.532 233.742 738.5 234.158 738.467 234.478L752.266 212.941L757.45 212.946L757.423 238.674L753.487 238.67L753.503 223.502C753.503 222.99 753.504 222.318 753.505 221.486C753.538 220.654 753.571 219.838 753.604 219.038C753.637 218.206 753.669 217.582 753.702 217.166L739.999 238.656L734.767 238.65L734.794 212.922L738.778 212.926L738.762 228.622ZM760.756 244.582L763.552 233.976L767.728 233.981L763.54 244.584L760.756 244.582ZM229.59 261.747C229.589 263.251 230.004 264.371 230.835 265.108C231.698 265.813 232.93 266.166 234.53 266.168C236.13 266.17 237.586 265.931 238.898 265.453C240.211 264.942 241.556 264.272 242.933 263.441L242.944 252.401L247.168 252.405L247.141 278.133L242.917 278.129L242.929 266.657C241.488 267.583 240.063 268.318 238.655 268.86C237.278 269.371 235.614 269.625 233.662 269.623C231.038 269.62 228.991 268.93 227.52 267.553C226.082 266.175 225.364 264.334 225.366 262.03L225.376 252.382L229.6 252.387L229.59 261.747ZM272.138 255.984L263.738 255.975L263.714 278.151L259.538 278.147L259.562 255.971L251.258 255.962L251.262 252.41L272.142 252.432L272.138 255.984ZM298.135 265.275C298.133 267.419 297.843 269.323 297.265 270.987C296.72 272.618 295.918 274.009 294.861 275.16C293.836 276.311 292.571 277.19 291.066 277.796C289.594 278.37 287.945 278.657 286.121 278.655C284.425 278.653 282.858 278.363 281.418 277.786C279.979 277.176 278.732 276.295 277.677 275.142C276.622 273.989 275.792 272.596 275.185 270.963C274.611 269.299 274.325 267.394 274.327 265.25C274.33 262.402 274.813 260.003 275.775 258.052C276.737 256.069 278.115 254.566 279.908 253.544C281.701 252.49 283.83 251.964 286.294 251.967C288.63 251.969 290.677 252.5 292.436 253.557C294.227 254.583 295.617 256.089 296.607 258.074C297.629 260.027 298.138 262.427 298.135 265.275ZM278.695 265.255C278.693 267.271 278.947 269.031 279.458 270.536C280 272.008 280.831 273.145 281.95 273.946C283.069 274.747 284.493 275.149 286.221 275.151C287.949 275.153 289.373 274.754 290.494 273.955C291.615 273.157 292.432 272.021 292.946 270.55C293.491 269.047 293.765 267.287 293.767 265.271C293.77 263.223 293.499 261.479 292.957 260.038C292.415 258.597 291.584 257.493 290.465 256.723C289.377 255.922 287.954 255.521 286.194 255.519C283.57 255.516 281.665 256.378 280.479 258.105C279.293 259.831 278.699 262.215 278.695 265.255ZM334.778 252.498L334.754 274.674L338.498 274.678L338.485 287.158L334.405 287.154L334.414 278.226L316.51 278.207L316.501 287.135L312.469 287.131L312.482 274.651L314.546 274.653C316.02 272.606 317.239 270.384 318.201 267.985C319.196 265.554 319.934 263.027 320.417 260.403C320.932 257.748 321.207 255.108 321.242 252.484L334.778 252.498ZM324.982 255.8C324.852 257.976 324.513 260.231 323.967 262.567C323.42 264.87 322.714 267.077 321.848 269.189C321.014 271.3 320.036 273.123 318.914 274.657L330.674 274.67L330.694 255.806L324.982 255.8ZM352.541 252.037C354.749 252.039 356.636 252.521 358.203 253.483C359.802 254.445 361.017 255.806 361.847 257.567C362.709 259.296 363.139 261.328 363.136 263.664L363.134 266.208L345.518 266.19C345.579 269.102 346.312 271.326 347.719 272.864C349.157 274.37 351.156 275.124 353.716 275.126C355.348 275.128 356.788 274.986 358.037 274.699C359.317 274.38 360.629 273.934 361.974 273.359L361.97 277.055C360.658 277.63 359.361 278.044 358.081 278.299C356.801 278.586 355.28 278.728 353.52 278.726C351.088 278.724 348.929 278.225 347.042 277.231C345.187 276.237 343.733 274.764 342.679 272.811C341.657 270.826 341.147 268.409 341.15 265.561C341.153 262.745 341.62 260.33 342.55 258.314C343.512 256.3 344.842 254.749 346.539 253.663C348.268 252.577 350.269 252.035 352.541 252.037ZM352.489 255.493C350.473 255.491 348.872 256.145 347.687 257.456C346.534 258.735 345.844 260.526 345.617 262.83L358.721 262.844C358.723 261.372 358.5 260.091 358.053 259.003C357.606 257.914 356.919 257.066 355.992 256.457C355.097 255.816 353.929 255.495 352.489 255.493ZM388.295 278.283L384.023 278.278L384.046 256.054L376.462 256.046C376.138 260.11 375.734 263.582 375.251 266.461C374.768 269.309 374.158 271.628 373.42 273.419C372.682 275.21 371.8 276.521 370.776 277.352C369.751 278.183 368.55 278.598 367.174 278.597C366.758 278.596 366.342 278.564 365.926 278.499C365.542 278.467 365.222 278.387 364.967 278.258L364.97 275.09C365.162 275.154 365.37 275.203 365.594 275.235C365.818 275.267 366.042 275.283 366.266 275.284C366.97 275.284 367.61 274.997 368.187 274.422C368.763 273.846 369.276 272.967 369.725 271.783C370.207 270.6 370.64 269.112 371.026 267.321C371.412 265.497 371.75 263.353 372.041 260.89C372.332 258.426 372.591 255.642 372.818 252.539L388.322 252.555L388.295 278.283ZM405.272 252.141C408.408 252.144 410.728 252.835 412.23 254.212C413.733 255.59 414.482 257.783 414.479 260.791L414.461 278.311L411.389 278.307L410.576 274.659L410.384 274.658C409.647 275.586 408.879 276.369 408.078 277.008C407.309 277.615 406.413 278.062 405.389 278.349C404.396 278.636 403.18 278.779 401.74 278.777C400.204 278.776 398.812 278.502 397.565 277.957C396.35 277.412 395.39 276.578 394.688 275.458C393.985 274.305 393.634 272.865 393.636 271.137C393.639 268.577 394.649 266.61 396.666 265.236C398.684 263.83 401.789 263.065 405.981 262.942L410.349 262.802L410.351 261.266C410.353 259.122 409.891 257.634 408.963 256.801C408.036 255.968 406.725 255.55 405.029 255.549C403.685 255.547 402.404 255.754 401.188 256.169C399.972 256.551 398.835 256.998 397.779 257.509L396.486 254.34C397.607 253.733 398.935 253.222 400.472 252.808C402.008 252.361 403.608 252.139 405.272 252.141ZM406.506 265.87C403.306 265.995 401.081 266.505 399.832 267.399C398.615 268.294 398.006 269.557 398.004 271.189C398.003 272.629 398.433 273.686 399.297 274.359C400.192 275.032 401.328 275.369 402.704 275.37C404.88 275.373 406.688 274.782 408.13 273.6C409.571 272.386 410.293 270.53 410.295 268.034L410.298 265.73L406.506 265.87ZM431.411 252.121C433.619 252.123 435.506 252.605 437.073 253.567C438.672 254.528 439.887 255.89 440.717 257.65C441.579 259.379 442.009 261.412 442.006 263.748L442.004 266.292L424.388 266.273C424.449 269.185 425.182 271.41 426.589 272.948C428.027 274.453 430.026 275.207 432.586 275.21C434.218 275.212 435.658 275.069 436.907 274.782C438.187 274.464 439.499 274.017 440.844 273.443L440.84 277.139C439.528 277.713 438.231 278.128 436.951 278.383C435.67 278.669 434.15 278.812 432.39 278.81C429.958 278.807 427.799 278.309 425.912 277.315C424.057 276.321 422.603 274.847 421.549 272.894C420.527 270.909 420.017 268.493 420.02 265.645C420.023 262.829 420.49 260.413 421.42 258.398C422.382 256.383 423.712 254.832 425.409 253.746C427.138 252.66 429.139 252.118 431.411 252.121ZM431.359 255.577C429.343 255.574 427.742 256.229 426.557 257.539C425.404 258.818 424.714 260.61 424.487 262.913L437.591 262.927C437.593 261.455 437.37 260.175 436.923 259.086C436.476 257.998 435.789 257.149 434.862 256.54C433.967 255.899 432.799 255.578 431.359 255.577ZM465.364 256.189L456.964 256.18L456.941 278.356L452.765 278.351L452.788 256.175L444.484 256.166L444.488 252.614L465.368 252.637L465.364 256.189ZM491.202 252.184C493.41 252.186 495.298 252.668 496.865 253.63C498.464 254.592 499.678 255.953 500.509 257.714C501.371 259.443 501.801 261.475 501.798 263.811L501.795 266.355L484.179 266.337C484.24 269.249 484.974 271.473 486.38 273.011C487.819 274.516 489.818 275.271 492.378 275.273C494.01 275.275 495.45 275.132 496.698 274.846C497.979 274.527 499.291 274.081 500.636 273.506L500.632 277.202C499.319 277.777 498.023 278.191 496.743 278.446C495.462 278.732 493.942 278.875 492.182 278.873C489.75 278.87 487.591 278.372 485.704 277.378C483.849 276.384 482.394 274.911 481.34 272.958C480.319 270.972 479.809 268.556 479.812 265.708C479.815 262.892 480.282 260.476 481.212 258.461C482.174 256.446 483.504 254.896 485.201 253.81C486.93 252.723 488.93 252.182 491.202 252.184ZM491.151 255.64C489.135 255.638 487.534 256.292 486.349 257.603C485.195 258.882 484.505 260.673 484.279 262.977L497.383 262.991C497.385 261.519 497.162 260.238 496.715 259.15C496.268 258.061 495.581 257.213 494.654 256.604C493.758 255.963 492.591 255.641 491.151 255.64ZM523.096 252.698L523.092 256.25L511.62 256.238L511.596 278.414L507.372 278.409L507.4 252.681L523.096 252.698ZM549.091 265.541C549.089 267.685 548.799 269.589 548.221 271.252C547.675 272.884 546.874 274.275 545.816 275.426C544.791 276.577 543.526 277.455 542.022 278.062C540.549 278.636 538.901 278.923 537.077 278.921C535.381 278.919 533.813 278.629 532.374 278.052C530.934 277.442 529.687 276.561 528.632 275.408C527.578 274.255 526.747 272.862 526.141 271.229C525.567 269.564 525.281 267.66 525.283 265.516C525.286 262.668 525.769 260.269 526.731 258.318C527.693 256.335 529.07 254.832 530.863 253.81C532.656 252.756 534.785 252.23 537.249 252.233C539.585 252.235 541.632 252.765 543.391 253.823C545.182 254.849 546.573 256.355 547.563 258.34C548.585 260.293 549.094 262.693 549.091 265.541ZM529.651 265.521C529.649 267.537 529.903 269.297 530.413 270.802C530.956 272.274 531.787 273.411 532.906 274.212C534.025 275.013 535.448 275.415 537.176 275.417C538.904 275.419 540.329 275.02 541.45 274.221C542.571 273.422 543.388 272.287 543.901 270.816C544.447 269.312 544.721 267.553 544.723 265.537C544.725 263.489 544.455 261.744 543.912 260.304C543.37 258.863 542.539 257.758 541.42 256.989C540.333 256.188 538.909 255.787 537.149 255.785C534.525 255.782 532.62 256.644 531.435 258.371C530.249 260.097 529.654 262.481 529.651 265.521ZM565.274 263.014C565.278 259.27 565.649 256.087 566.388 253.464C567.159 250.808 568.329 248.698 569.899 247.131C571.501 245.533 573.55 244.463 576.046 243.922C578.127 243.476 580.159 243.078 582.144 242.728C584.128 242.378 585.984 242.06 587.713 241.774L588.429 245.471C587.597 245.598 586.668 245.757 585.644 245.948C584.62 246.107 583.58 246.282 582.524 246.473C581.468 246.632 580.443 246.807 579.451 246.997C578.491 247.156 577.643 247.316 576.907 247.475C575.85 247.698 574.906 248.081 574.073 248.624C573.241 249.135 572.52 249.838 571.911 250.733C571.334 251.629 570.869 252.732 570.516 254.044C570.162 255.356 569.953 256.907 569.887 258.699L570.175 258.7C570.623 258.092 571.232 257.469 572.001 256.83C572.801 256.19 573.746 255.647 574.834 255.201C575.955 254.754 577.219 254.531 578.627 254.533C580.867 254.535 582.723 255.033 584.194 256.026C585.697 256.988 586.815 258.333 587.549 260.062C588.315 261.791 588.697 263.807 588.695 266.111C588.692 268.959 588.193 271.343 587.199 273.262C586.205 275.181 584.828 276.619 583.067 277.577C581.306 278.503 579.257 278.965 576.921 278.963C575.161 278.961 573.562 278.623 572.122 277.95C570.683 277.244 569.452 276.219 568.43 274.874C567.407 273.529 566.625 271.864 566.083 269.879C565.541 267.895 565.271 265.606 565.274 263.014ZM577.261 275.459C578.669 275.461 579.885 275.174 580.91 274.599C581.966 274.024 582.783 273.081 583.361 271.77C583.938 270.458 584.228 268.715 584.23 266.539C584.233 263.915 583.739 261.85 582.749 260.345C581.791 258.808 580.191 258.038 577.951 258.036C576.543 258.034 575.263 258.353 574.11 258.992C572.958 259.599 571.997 260.302 571.228 261.101C570.459 261.9 569.915 262.571 569.594 263.115C569.592 264.683 569.703 266.203 569.925 267.675C570.148 269.148 570.53 270.476 571.073 271.661C571.648 272.813 572.431 273.742 573.422 274.447C574.445 275.12 575.725 275.458 577.261 275.459ZM616.758 265.613C616.756 267.757 616.466 269.661 615.888 271.324C615.342 272.955 614.541 274.347 613.483 275.498C612.458 276.648 611.193 277.527 609.689 278.134C608.216 278.708 606.568 278.994 604.744 278.992C603.048 278.99 601.48 278.701 600.041 278.123C598.601 277.514 597.354 276.632 596.299 275.479C595.245 274.326 594.414 272.933 593.808 271.301C593.234 269.636 592.948 267.732 592.95 265.588C592.953 262.74 593.435 260.34 594.397 258.389C595.36 256.406 596.737 254.904 598.53 253.882C600.323 252.828 602.452 252.302 604.916 252.304C607.252 252.307 609.299 252.837 611.058 253.895C612.849 254.921 614.24 256.426 615.229 258.411C616.251 260.364 616.761 262.765 616.758 265.613ZM597.318 265.592C597.316 267.608 597.57 269.369 598.08 270.873C598.623 272.346 599.453 273.483 600.573 274.284C601.692 275.085 603.115 275.487 604.843 275.488C606.571 275.49 607.996 275.092 609.117 274.293C610.237 273.494 611.055 272.359 611.568 270.887C612.114 269.384 612.388 267.624 612.39 265.608C612.392 263.56 612.122 261.816 611.579 260.375C611.037 258.935 610.206 257.83 609.087 257.061C608 256.26 606.576 255.858 604.816 255.856C602.192 255.854 600.287 256.716 599.101 258.442C597.916 260.169 597.321 262.552 597.318 265.592ZM642.063 278.552L637.791 278.547L637.814 256.323L630.23 256.315C629.906 260.379 629.502 263.85 629.019 266.73C628.536 269.577 627.926 271.897 627.188 273.688C626.45 275.479 625.568 276.79 624.544 277.621C623.519 278.452 622.318 278.867 620.942 278.865C620.526 278.865 620.11 278.833 619.694 278.768C619.31 278.736 618.99 278.655 618.735 278.527L618.738 275.359C618.93 275.423 619.138 275.472 619.362 275.504C619.586 275.536 619.81 275.552 620.034 275.552C620.738 275.553 621.378 275.266 621.955 274.69C622.531 274.115 623.044 273.236 623.493 272.052C623.975 270.869 624.408 269.381 624.794 267.589C625.18 265.766 625.518 263.622 625.809 261.159C626.1 258.695 626.359 255.911 626.586 252.807L642.09 252.824L642.063 278.552ZM659.232 252.362C661.44 252.364 663.328 252.846 664.895 253.808C666.494 254.77 667.708 256.131 668.538 257.892C669.401 259.621 669.83 261.653 669.828 263.989L669.825 266.533L652.209 266.515C652.27 269.427 653.004 271.651 654.41 273.189C655.849 274.694 657.848 275.449 660.408 275.451C662.04 275.453 663.48 275.31 664.728 275.024C666.009 274.705 667.321 274.259 668.666 273.684L668.662 277.38C667.349 277.955 666.053 278.369 664.773 278.624C663.492 278.91 661.972 279.053 660.212 279.051C657.78 279.048 655.621 278.55 653.734 277.556C651.879 276.562 650.424 275.089 649.37 273.136C648.348 271.15 647.839 268.734 647.842 265.886C647.845 263.07 648.312 260.654 649.242 258.639C650.204 256.624 651.533 255.074 653.231 253.988C654.96 252.901 656.96 252.36 659.232 252.362ZM659.181 255.818C657.165 255.816 655.564 256.47 654.379 257.781C653.225 259.06 652.535 260.851 652.309 263.155L665.413 263.169C665.414 261.697 665.192 260.416 664.745 259.328C664.298 258.239 663.611 257.391 662.684 256.782C661.788 256.141 660.621 255.819 659.181 255.818ZM685.366 252.39C687.574 252.392 689.462 252.874 691.029 253.836C692.628 254.797 693.842 256.159 694.672 257.92C695.534 259.648 695.964 261.681 695.962 264.017L695.959 266.561L678.343 266.542C678.404 269.454 679.138 271.679 680.544 273.217C681.982 274.722 683.982 275.476 686.542 275.479C688.174 275.481 689.614 275.338 690.862 275.051C692.142 274.733 693.455 274.286 694.8 273.712L694.796 277.408C693.483 277.982 692.187 278.397 690.906 278.652C689.626 278.938 688.106 279.081 686.346 279.079C683.914 279.076 681.754 278.578 679.867 277.584C678.012 276.59 676.558 275.116 675.504 273.163C674.482 271.178 673.973 268.762 673.976 265.914C673.979 263.098 674.445 260.682 675.375 258.667C676.338 256.652 677.667 255.102 679.364 254.015C681.094 252.929 683.094 252.387 685.366 252.39ZM685.314 255.846C683.298 255.843 681.698 256.498 680.512 257.809C679.359 259.087 678.669 260.879 678.443 263.182L691.547 263.196C691.548 261.724 691.326 260.444 690.879 259.355C690.432 258.267 689.745 257.418 688.817 256.809C687.922 256.168 686.754 255.847 685.314 255.846ZM191.152 292.346L191.129 314.522L194.873 314.526L194.86 327.006L190.78 327.002L190.789 318.074L172.885 318.055L172.876 326.983L168.844 326.979L168.857 314.499L170.921 314.501C172.395 312.454 173.613 310.232 174.576 307.833C175.571 305.402 176.309 302.874 176.792 300.251C177.307 297.595 177.582 294.956 177.616 292.332L191.152 292.346ZM181.357 295.648C181.227 297.824 180.888 300.079 180.342 302.415C179.795 304.718 179.089 306.925 178.223 309.036C177.388 311.148 176.411 312.971 175.289 314.505L187.049 314.518L187.069 295.654L181.357 295.648ZM221.333 305.194C221.331 307.338 221.041 309.242 220.463 310.905C219.918 312.537 219.116 313.928 218.059 315.079C217.034 316.23 215.769 317.108 214.264 317.715C212.792 318.289 211.143 318.575 209.319 318.573C207.623 318.572 206.056 318.282 204.616 317.704C203.177 317.095 201.93 316.214 200.875 315.06C199.82 313.907 198.99 312.514 198.383 310.882C197.809 309.217 197.523 307.313 197.525 305.169C197.528 302.321 198.011 299.921 198.973 297.97C199.935 295.987 201.313 294.485 203.106 293.463C204.899 292.409 207.028 291.883 209.492 291.886C211.828 291.888 213.875 292.418 215.634 293.476C217.425 294.502 218.815 296.007 219.805 297.992C220.827 299.946 221.336 302.346 221.333 305.194ZM201.893 305.174C201.891 307.19 202.145 308.95 202.656 310.454C203.198 311.927 204.029 313.064 205.148 313.865C206.267 314.666 207.691 315.068 209.419 315.069C211.147 315.071 212.571 314.673 213.692 313.874C214.813 313.075 215.63 311.94 216.144 310.469C216.689 308.965 216.963 307.205 216.965 305.189C216.968 303.141 216.697 301.397 216.155 299.957C215.613 298.516 214.782 297.411 213.662 296.642C212.575 295.841 211.152 295.439 209.392 295.437C206.768 295.435 204.863 296.297 203.677 298.023C202.491 299.75 201.897 302.134 201.893 305.174ZM237.374 318.603C235.102 318.601 233.07 318.135 231.279 317.205C229.52 316.275 228.13 314.833 227.108 312.88C226.118 310.927 225.625 308.431 225.628 305.391C225.631 302.223 226.162 299.647 227.22 297.664C228.278 295.681 229.704 294.227 231.497 293.301C233.322 292.375 235.386 291.913 237.69 291.915C239.002 291.917 240.266 292.062 241.482 292.351C242.697 292.609 243.689 292.93 244.457 293.315L243.157 296.817C242.389 296.528 241.493 296.255 240.47 295.998C239.446 295.741 238.486 295.612 237.59 295.611C235.862 295.609 234.438 295.976 233.317 296.711C232.196 297.446 231.363 298.533 230.817 299.972C230.272 301.412 229.998 303.203 229.996 305.347C229.994 307.395 230.264 309.14 230.806 310.58C231.349 312.021 232.164 313.11 233.251 313.847C234.338 314.584 235.698 314.953 237.33 314.955C238.738 314.957 239.97 314.814 241.026 314.527C242.114 314.24 243.107 313.889 244.003 313.474L243.999 317.218C243.135 317.665 242.174 318 241.118 318.223C240.094 318.478 238.846 318.605 237.374 318.603ZM266.94 295.978L258.54 295.97L258.517 318.146L254.341 318.141L254.364 295.965L246.06 295.956L246.064 292.404L266.944 292.426L266.94 295.978ZM267.02 292.427L271.532 292.431L277.085 307.077C277.404 307.942 277.691 308.774 277.946 309.574C278.233 310.374 278.488 311.159 278.711 311.927C278.935 312.663 279.11 313.383 279.237 314.087L279.429 314.088C279.622 313.288 279.927 312.248 280.344 310.969C280.762 309.657 281.195 308.346 281.645 307.034L286.892 292.448L291.452 292.452L280.333 321.721C279.723 323.32 279.002 324.711 278.169 325.894C277.367 327.109 276.374 328.036 275.19 328.675C274.037 329.346 272.629 329.68 270.965 329.679C270.197 329.678 269.525 329.629 268.949 329.533C268.373 329.468 267.877 329.387 267.461 329.291L267.465 325.931C267.817 325.995 268.232 326.06 268.712 326.124C269.224 326.189 269.752 326.221 270.296 326.222C271.288 326.223 272.137 326.032 272.841 325.649C273.577 325.297 274.202 324.77 274.715 324.067C275.227 323.395 275.66 322.596 276.013 321.668L277.361 318.261L267.02 292.427ZM316.305 292.479L316.278 318.207L312.054 318.202L312.077 296.074L298.781 296.06L298.758 318.188L294.534 318.184L294.561 292.456L316.305 292.479ZM327.778 292.491L327.767 303.195L341.735 303.21L341.746 292.506L345.97 292.51L345.943 318.238L341.719 318.234L341.731 306.762L327.763 306.747L327.751 318.219L323.527 318.214L323.554 292.486L327.778 292.491ZM353.129 318.246L353.156 292.518L357.38 292.522L357.369 303.082L364.041 303.089C366.281 303.092 368.121 303.366 369.56 303.911C371 304.457 372.071 305.274 372.774 306.363C373.477 307.419 373.827 308.764 373.826 310.396C373.824 311.996 373.47 313.387 372.765 314.571C372.092 315.754 371.019 316.665 369.546 317.303C368.106 317.942 366.201 318.26 363.833 318.257L353.129 318.246ZM363.453 314.849C365.277 314.851 366.765 314.548 367.918 313.941C369.07 313.303 369.648 312.199 369.649 310.631C369.651 309.063 369.124 308.007 368.069 307.462C367.013 306.884 365.494 306.595 363.51 306.593L357.366 306.586L357.357 314.842L363.453 314.849ZM378.089 318.272L378.116 292.544L382.34 292.549L382.313 318.277L378.089 318.272ZM417.156 292.586L417.129 318.314L413.337 318.31L413.354 301.894C413.355 301.222 413.371 300.518 413.404 299.782C413.469 299.046 413.534 298.326 413.598 297.622L413.454 297.622L405.033 318.301L401.481 318.297L393.342 297.6L393.198 297.6C393.262 298.304 393.293 299.024 393.292 299.76C393.323 300.496 393.339 301.248 393.338 302.016L393.321 318.288L389.529 318.284L389.556 292.556L395.172 292.562L403.262 313.259L411.54 292.58L417.156 292.586ZM455.302 292.626L455.279 314.802L459.023 314.806L459.01 327.286L454.93 327.282L454.939 318.354L437.035 318.335L437.026 327.263L432.994 327.258L433.007 314.778L435.071 314.781C436.545 312.734 437.763 310.511 438.726 308.112C439.72 305.681 440.459 303.154 440.942 300.531C441.457 297.875 441.731 295.236 441.766 292.612L455.302 292.626ZM445.507 295.928C445.376 298.103 445.038 300.359 444.492 302.695C443.945 304.998 443.239 307.205 442.373 309.316C441.538 311.427 440.56 313.25 439.439 314.785L451.199 314.798L451.219 295.934L445.507 295.928ZM482.686 318.383L478.414 318.378L478.437 296.154L470.853 296.146C470.529 300.21 470.125 303.682 469.642 306.561C469.159 309.409 468.549 311.728 467.811 313.519C467.073 315.31 466.191 316.622 465.167 317.452C464.142 318.283 462.941 318.698 461.565 318.697C461.149 318.696 460.733 318.664 460.317 318.599C459.933 318.567 459.613 318.487 459.358 318.358L459.361 315.19C459.553 315.254 459.761 315.303 459.985 315.335C460.209 315.367 460.433 315.383 460.657 315.384C461.361 315.384 462.001 315.097 462.578 314.522C463.154 313.946 463.667 313.067 464.116 311.883C464.598 310.7 465.031 309.212 465.417 307.421C465.803 305.597 466.141 303.453 466.432 300.99C466.723 298.526 466.982 295.742 467.209 292.639L482.713 292.655L482.686 318.383ZM491.476 318.392L486.58 318.387L493.935 307.595C492.943 307.338 491.984 306.937 491.056 306.392C490.129 305.815 489.378 305.03 488.803 304.037C488.228 303.013 487.941 301.749 487.943 300.245C487.945 297.781 488.779 295.909 490.445 294.631C492.11 293.321 494.319 292.667 497.071 292.67L508.591 292.682L508.564 318.41L504.34 318.406L504.35 308.182L498.11 308.175L491.476 318.392ZM492.023 300.297C492.021 301.769 492.564 302.873 493.651 303.611C494.771 304.316 496.322 304.669 498.306 304.672L504.354 304.678L504.363 296.182L497.499 296.175C495.547 296.173 494.139 296.555 493.274 297.322C492.441 298.089 492.024 299.081 492.023 300.297ZM562.457 292.739L562.43 318.467L527.534 318.43L527.561 292.703L531.785 292.707L531.762 314.883L542.85 314.895L542.873 292.719L547.097 292.723L547.074 314.899L558.21 314.911L558.233 292.735L562.457 292.739ZM573.694 308.447C573.693 308.735 573.677 309.151 573.644 309.695C573.644 310.207 573.627 310.767 573.595 311.375C573.562 311.951 573.529 312.511 573.497 313.055C573.464 313.567 573.432 313.983 573.4 314.303L587.198 292.766L592.382 292.771L592.355 318.499L588.419 318.495L588.435 303.327C588.436 302.815 588.436 302.143 588.437 301.311C588.47 300.479 588.503 299.663 588.536 298.863C588.569 298.031 588.601 297.407 588.634 296.991L574.931 318.481L569.699 318.475L569.726 292.747L573.71 292.751L573.694 308.447ZM611.851 292.312C615.019 292.315 617.561 293.422 619.479 295.632C621.429 297.842 622.401 301.171 622.396 305.619C622.393 308.531 621.943 310.995 621.045 313.01C620.179 314.993 618.945 316.495 617.344 317.518C615.775 318.508 613.918 319.002 611.774 319C610.462 318.998 609.294 318.821 608.271 318.468C607.247 318.115 606.368 317.666 605.632 317.121C604.929 316.544 604.322 315.92 603.81 315.247L603.522 315.247C603.586 315.791 603.649 316.479 603.712 317.311C603.775 318.143 603.806 318.863 603.806 319.471L603.795 330.031L599.571 330.027L599.61 292.779L603.066 292.782L603.638 296.287L603.83 296.287C604.343 295.552 604.952 294.88 605.656 294.273C606.393 293.666 607.258 293.187 608.25 292.836C609.274 292.485 610.475 292.31 611.851 292.312ZM611.079 295.863C609.351 295.861 607.958 296.196 606.902 296.867C605.845 297.505 605.076 298.481 604.595 299.792C604.113 301.104 603.855 302.767 603.821 304.783L603.82 305.599C603.818 307.711 604.04 309.504 604.487 310.976C604.933 312.448 605.684 313.569 606.739 314.338C607.826 315.108 609.298 315.493 611.154 315.495C612.722 315.497 614.002 315.066 614.995 314.203C616.02 313.34 616.774 312.173 617.255 310.702C617.769 309.198 618.027 307.486 618.029 305.566C618.032 302.622 617.458 300.27 616.308 298.509C615.19 296.747 613.447 295.865 611.079 295.863ZM650.536 305.649C650.533 307.793 650.243 309.696 649.666 311.36C649.12 312.991 648.318 314.382 647.261 315.533C646.236 316.684 644.971 317.563 643.466 318.169C641.994 318.744 640.346 319.03 638.522 319.028C636.826 319.026 635.258 318.737 633.818 318.159C632.379 317.55 631.132 316.668 630.077 315.515C629.022 314.362 628.192 312.969 627.586 311.336C627.011 309.672 626.725 307.768 626.728 305.624C626.731 302.776 627.213 300.376 628.175 298.425C629.137 296.442 630.515 294.94 632.308 293.917C634.101 292.863 636.23 292.338 638.694 292.34C641.03 292.343 643.077 292.873 644.836 293.931C646.627 294.957 648.017 296.462 649.007 298.447C650.029 300.4 650.539 302.801 650.536 305.649ZM631.096 305.628C631.094 307.644 631.348 309.404 631.858 310.909C632.401 312.382 633.231 313.518 634.351 314.32C635.47 315.121 636.893 315.522 638.621 315.524C640.349 315.526 641.774 315.128 642.895 314.329C644.015 313.53 644.833 312.395 645.346 310.923C645.892 309.42 646.166 307.66 646.168 305.644C646.17 303.596 645.9 301.852 645.357 300.411C644.815 298.971 643.984 297.866 642.865 297.097C641.778 296.296 640.354 295.894 638.594 295.892C635.97 295.889 634.065 296.751 632.879 298.478C631.693 300.205 631.099 302.588 631.096 305.628ZM671.5 292.855L676.108 292.86L665.103 305.232L676.993 318.589L672.097 318.584L660.494 305.515L660.481 318.571L656.257 318.567L656.284 292.839L660.508 292.843L660.495 305.323L671.5 292.855ZM702.147 305.703C702.145 307.847 701.855 309.751 701.277 311.415C700.731 313.046 699.93 314.437 698.872 315.588C697.847 316.739 696.582 317.618 695.078 318.224C693.605 318.798 691.957 319.085 690.133 319.083C688.437 319.081 686.869 318.791 685.43 318.214C683.99 317.604 682.743 316.723 681.688 315.57C680.634 314.417 679.803 313.024 679.197 311.391C678.623 309.727 678.337 307.822 678.339 305.678C678.342 302.83 678.824 300.431 679.787 298.48C680.749 296.497 682.126 294.994 683.919 293.972C685.712 292.918 687.841 292.392 690.305 292.395C692.641 292.397 694.688 292.928 696.447 293.985C698.238 295.011 699.629 296.517 700.619 298.502C701.64 300.455 702.15 302.855 702.147 305.703ZM682.707 305.683C682.705 307.699 682.959 309.459 683.469 310.964C684.012 312.436 684.843 313.573 685.962 314.374C687.081 315.176 688.504 315.577 690.232 315.579C691.96 315.581 693.385 315.182 694.506 314.383C695.627 313.585 696.444 312.449 696.957 310.978C697.503 309.475 697.777 307.715 697.779 305.699C697.781 303.651 697.511 301.907 696.968 300.466C696.426 299.025 695.595 297.921 694.476 297.151C693.389 296.35 691.965 295.949 690.205 295.947C687.581 295.944 685.676 296.806 684.49 298.533C683.305 300.259 682.71 302.643 682.707 305.683ZM723.591 292.91L723.587 296.462L712.115 296.45L712.092 318.626L707.868 318.622L707.895 292.894L723.591 292.91ZM749.586 305.754C749.584 307.898 749.294 309.801 748.716 311.465C748.171 313.096 747.369 314.487 746.312 315.638C745.287 316.789 744.022 317.668 742.517 318.274C741.044 318.849 739.396 319.135 737.572 319.133C735.876 319.131 734.308 318.842 732.869 318.264C731.43 317.654 730.183 316.773 729.128 315.62C728.073 314.467 727.243 313.074 726.636 311.441C726.062 309.777 725.776 307.872 725.778 305.728C725.781 302.88 726.264 300.481 727.226 298.53C728.188 296.547 729.566 295.045 731.359 294.022C733.152 292.968 735.28 292.443 737.744 292.445C740.08 292.448 742.128 292.978 743.887 294.036C745.678 295.062 747.068 296.567 748.058 298.552C749.08 300.505 749.589 302.906 749.586 305.754ZM730.146 305.733C730.144 307.749 730.398 309.509 730.909 311.014C731.451 312.487 732.282 313.623 733.401 314.425C734.52 315.226 735.944 315.627 737.672 315.629C739.4 315.631 740.824 315.232 741.945 314.434C743.066 313.635 743.883 312.5 744.397 311.028C744.942 309.525 745.216 307.765 745.218 305.749C745.221 303.701 744.95 301.957 744.408 300.516C743.865 299.076 743.035 297.971 741.915 297.202C740.828 296.4 739.405 295.999 737.645 295.997C735.021 295.994 733.116 296.856 731.93 298.583C730.744 300.31 730.15 302.693 730.146 305.733ZM310.519 332.473L315.127 332.477L304.122 344.85L316.012 358.206L311.116 358.201L299.514 345.133L299.5 358.189L295.276 358.184L295.303 332.456L299.527 332.461L299.514 344.941L310.519 332.473ZM331.99 332.015C335.158 332.019 337.701 333.125 339.618 335.335C341.568 337.546 342.541 340.875 342.536 345.323C342.533 348.235 342.082 350.698 341.184 352.713C340.318 354.696 339.084 356.199 337.483 357.221C335.914 358.212 334.058 358.706 331.914 358.703C330.602 358.702 329.434 358.525 328.41 358.172C327.387 357.818 326.507 357.37 325.772 356.825C325.068 356.248 324.461 355.623 323.95 354.951L323.662 354.951C323.725 355.495 323.788 356.183 323.851 357.015C323.915 357.847 323.946 358.567 323.945 359.175L323.934 369.735L319.71 369.73L319.749 332.482L323.205 332.486L323.778 335.991L323.97 335.991C324.482 335.255 325.091 334.584 325.796 333.977C326.532 333.37 327.397 332.89 328.389 332.54C329.414 332.189 330.614 332.014 331.99 332.015ZM331.218 335.567C329.49 335.565 328.098 335.899 327.041 336.57C325.984 337.209 325.215 338.184 324.734 339.496C324.253 340.807 323.995 342.471 323.961 344.487L323.96 345.303C323.958 347.415 324.18 349.207 324.626 350.68C325.073 352.152 325.823 353.273 326.879 354.042C327.966 354.811 329.437 355.197 331.293 355.199C332.861 355.2 334.142 354.77 335.135 353.907C336.16 353.044 336.913 351.877 337.394 350.405C337.908 348.902 338.166 347.19 338.168 345.27C338.171 342.326 337.597 339.973 336.447 338.212C335.329 336.451 333.586 335.569 331.218 335.567ZM343.82 332.508L348.332 332.513L353.884 347.159C354.203 348.023 354.491 348.855 354.746 349.655C355.033 350.456 355.288 351.24 355.511 352.008C355.734 352.745 355.91 353.465 356.037 354.169L356.229 354.169C356.422 353.369 356.727 352.33 357.144 351.05C357.562 349.738 357.995 348.427 358.444 347.115L363.692 332.529L368.252 332.534L357.133 361.802C356.523 363.401 355.802 364.793 354.968 365.976C354.167 367.191 353.174 368.118 351.99 368.757C350.837 369.427 349.428 369.762 347.764 369.76C346.996 369.759 346.324 369.711 345.749 369.614C345.173 369.549 344.677 369.469 344.261 369.372L344.264 366.012C344.616 366.077 345.032 366.141 345.512 366.206C346.024 366.27 346.552 366.303 347.096 366.303C348.088 366.304 348.936 366.113 349.641 365.73C350.377 365.379 351.002 364.852 351.514 364.148C352.027 363.477 352.46 362.677 352.813 361.749L354.161 358.343L343.82 332.508ZM387.057 332.554L387.053 336.106L375.581 336.094L375.557 358.27L371.333 358.265L371.361 332.537L387.057 332.554ZM400.911 332.136C404.047 332.14 406.366 332.83 407.868 334.208C409.371 335.585 410.121 337.778 410.118 340.786L410.099 358.306L407.027 358.303L406.215 354.654L406.023 354.654C405.286 355.581 404.517 356.364 403.716 357.003C402.948 357.611 402.051 358.058 401.027 358.345C400.035 358.631 398.818 358.774 397.378 358.773C395.842 358.771 394.451 358.498 393.203 357.952C391.988 357.407 391.029 356.574 390.326 355.453C389.623 354.3 389.273 352.86 389.275 351.132C389.277 348.572 390.287 346.605 392.305 345.231C394.322 343.825 397.427 343.061 401.619 342.937L405.987 342.798L405.989 341.262C405.991 339.118 405.529 337.629 404.602 336.796C403.675 335.963 402.363 335.546 400.667 335.544C399.323 335.543 398.043 335.749 396.826 336.164C395.61 336.547 394.474 336.994 393.417 337.504L392.124 334.335C393.245 333.728 394.574 333.218 396.11 332.803C397.646 332.357 399.247 332.135 400.911 332.136ZM402.144 345.866C398.944 345.99 396.719 346.5 395.471 347.395C394.254 348.289 393.644 349.553 393.643 351.185C393.641 352.625 394.072 353.681 394.935 354.354C395.83 355.027 396.966 355.364 398.342 355.366C400.518 355.368 402.327 354.778 403.768 353.595C405.209 352.381 405.931 350.526 405.934 348.03L405.936 345.726L402.144 345.866ZM446.659 336.169L438.259 336.16L438.235 358.336L434.059 358.331L434.083 336.156L425.779 336.147L425.782 332.595L446.662 332.617L446.659 336.169ZM446.739 332.617L451.251 332.622L456.803 347.268C457.122 348.132 457.409 348.964 457.664 349.764C457.952 350.565 458.207 351.349 458.43 352.117C458.653 352.854 458.828 353.574 458.956 354.278L459.148 354.278C459.34 353.478 459.646 352.439 460.063 351.159C460.48 349.847 460.914 348.536 461.363 347.224L466.611 332.638L471.171 332.643L460.052 361.911C459.442 363.51 458.72 364.902 457.887 366.085C457.086 367.3 456.093 368.227 454.908 368.866C453.755 369.536 452.347 369.871 450.683 369.869C449.915 369.868 449.243 369.82 448.667 369.723C448.091 369.658 447.595 369.578 447.18 369.481L447.183 366.121C447.535 366.186 447.951 366.25 448.431 366.315C448.943 366.379 449.471 366.412 450.015 366.412C451.007 366.413 451.855 366.222 452.559 365.839C453.296 365.488 453.92 364.961 454.433 364.257C454.946 363.586 455.379 362.786 455.732 361.858L457.079 358.452L446.739 332.617ZM486.52 332.179C489.688 332.182 492.231 333.289 494.148 335.499C496.098 337.709 497.07 341.038 497.066 345.486C497.063 348.398 496.612 350.862 495.714 352.877C494.848 354.86 493.614 356.363 492.013 357.385C490.444 358.375 488.588 358.869 486.444 358.867C485.132 358.866 483.964 358.688 482.94 358.335C481.917 357.982 481.037 357.533 480.302 356.988C479.598 356.412 478.991 355.787 478.48 355.115L478.192 355.114C478.255 355.658 478.318 356.346 478.381 357.178C478.444 358.011 478.476 358.731 478.475 359.339L478.464 369.899L474.24 369.894L474.279 332.646L477.735 332.65L478.308 336.154L478.5 336.155C479.012 335.419 479.621 334.748 480.326 334.14C481.062 333.533 481.927 333.054 482.919 332.703C483.944 332.352 485.144 332.178 486.52 332.179ZM485.748 335.73C484.02 335.728 482.628 336.063 481.571 336.734C480.514 337.373 479.745 338.348 479.264 339.659C478.783 340.971 478.525 342.635 478.491 344.651L478.49 345.467C478.488 347.579 478.71 349.371 479.156 350.843C479.603 352.316 480.353 353.437 481.409 354.206C482.496 354.975 483.967 355.36 485.823 355.362C487.391 355.364 488.672 354.933 489.665 354.07C490.69 353.207 491.443 352.04 491.924 350.569C492.438 349.065 492.696 347.354 492.698 345.434C492.701 342.49 492.127 340.137 490.977 338.376C489.859 336.615 488.116 335.733 485.748 335.73ZM506.818 348.377C506.818 348.665 506.801 349.081 506.769 349.625C506.768 350.137 506.751 350.696 506.719 351.304C506.686 351.88 506.654 352.44 506.621 352.984C506.589 353.496 506.556 353.912 506.524 354.232L520.323 332.695L525.507 332.7L525.479 358.428L521.543 358.424L521.559 343.256C521.56 342.744 521.561 342.072 521.562 341.24C521.594 340.408 521.627 339.592 521.66 338.792C521.693 337.96 521.726 337.336 521.758 336.92L508.055 358.41L502.823 358.404L502.851 332.676L506.835 332.681L506.818 348.377ZM543.027 358.927C540.755 358.925 538.723 358.458 536.932 357.528C535.173 356.599 533.782 355.157 532.761 353.204C531.771 351.251 531.277 348.754 531.28 345.714C531.284 342.546 531.815 339.971 532.873 337.988C533.931 336.005 535.356 334.551 537.149 333.625C538.974 332.699 541.039 332.237 543.343 332.239C544.655 332.241 545.919 332.386 547.134 332.675C548.35 332.933 549.342 333.254 550.109 333.638L548.81 337.141C548.042 336.852 547.146 336.579 546.122 336.322C545.099 336.065 544.139 335.936 543.243 335.935C541.515 335.933 540.09 336.3 538.97 337.035C537.849 337.769 537.016 338.857 536.47 340.296C535.925 341.735 535.651 343.527 535.649 345.671C535.646 347.719 535.917 349.463 536.459 350.904C537.001 352.345 537.816 353.433 538.904 354.171C539.991 354.908 541.35 355.277 542.982 355.279C544.39 355.28 545.623 355.138 546.679 354.851C547.767 354.564 548.76 354.213 549.656 353.798L549.652 357.542C548.788 357.989 547.827 358.324 546.771 358.547C545.747 358.802 544.499 358.928 543.027 358.927ZM572.593 336.302L564.193 336.293L564.17 358.469L559.994 358.465L560.017 336.289L551.713 336.28L551.717 332.728L572.597 332.75L572.593 336.302ZM598.591 345.594C598.588 347.738 598.298 349.641 597.721 351.305C597.175 352.936 596.373 354.327 595.316 355.478C594.291 356.629 593.026 357.508 591.521 358.114C590.049 358.689 588.4 358.975 586.576 358.973C584.88 358.971 583.313 358.682 581.873 358.104C580.434 357.495 579.187 356.613 578.132 355.46C577.077 354.307 576.247 352.914 575.641 351.281C575.066 349.617 574.78 347.713 574.783 345.569C574.786 342.721 575.268 340.321 576.23 338.37C577.192 336.387 578.57 334.885 580.363 333.862C582.156 332.808 584.285 332.283 586.749 332.285C589.085 332.288 591.132 332.818 592.891 333.876C594.682 334.902 596.072 336.407 597.062 338.392C598.084 340.345 598.594 342.746 598.591 345.594ZM579.151 345.573C579.148 347.589 579.403 349.349 579.913 350.854C580.455 352.327 581.286 353.463 582.405 354.265C583.525 355.066 584.948 355.467 586.676 355.469C588.404 355.471 589.829 355.073 590.949 354.274C592.07 353.475 592.887 352.34 593.401 350.868C593.947 349.365 594.22 347.605 594.223 345.589C594.225 343.541 593.955 341.797 593.412 340.356C592.87 338.916 592.039 337.811 590.92 337.042C589.832 336.241 588.409 335.839 586.649 335.837C584.025 335.834 582.12 336.696 580.934 338.423C579.748 340.15 579.154 342.533 579.151 345.573ZM625.02 339.286C625.018 340.886 624.537 342.133 623.576 343.028C622.615 343.923 621.382 344.53 619.878 344.848L619.878 345.04C621.477 345.266 622.869 345.844 624.052 346.773C625.235 347.67 625.825 349.079 625.823 350.999C625.822 352.087 625.613 353.094 625.196 354.022C624.811 354.95 624.202 355.749 623.37 356.42C622.537 357.091 621.464 357.618 620.152 358.001C618.84 358.351 617.255 358.526 615.399 358.524L604.311 358.512L604.339 332.784L615.379 332.796C617.203 332.797 618.834 333.007 620.274 333.425C621.746 333.81 622.897 334.484 623.728 335.444C624.591 336.373 625.021 337.654 625.02 339.286ZM621.455 350.994C621.457 349.522 620.898 348.465 619.779 347.824C618.659 347.183 617.012 346.861 614.836 346.859L608.548 346.852L608.539 355.108L614.923 355.115C617.035 355.117 618.651 354.815 619.772 354.208C620.893 353.569 621.454 352.498 621.455 350.994ZM620.747 339.809C620.748 338.593 620.301 337.713 619.406 337.168C618.543 336.591 617.119 336.301 615.135 336.299L608.559 336.292L608.551 343.348L614.359 343.354C616.439 343.357 618.024 343.07 619.112 342.496C620.201 341.921 620.746 341.025 620.747 339.809Z" fill="#CA9E58"/>
</svg>
