<svg width="920" height="460" viewBox="0 0 920 460" fill="none" xmlns="http://www.w3.org/2000/svg">
<rect width="920" height="460" rx="46" fill="#D8BF92"/>
<path d="M262.557 115.55C260.65 115.55 258.945 115.403 257.442 115.11C255.975 114.817 254.6 114.34 253.317 113.68V107.3C254.637 107.887 256.03 108.4 257.497 108.84C259 109.243 260.54 109.445 262.117 109.445C263.363 109.445 264.445 109.225 265.362 108.785C266.278 108.308 267.012 107.557 267.562 106.53C268.112 105.503 268.442 104.183 268.552 102.57H257.222V97.125H268.552C268.405 94.8883 267.855 93.22 266.902 92.12C265.985 91.02 264.61 90.47 262.777 90.47C261.493 90.47 260.247 90.6533 259.037 91.02C257.863 91.35 256.782 91.735 255.792 92.175L253.482 86.565C254.655 86.0517 256.067 85.575 257.717 85.135C259.403 84.6583 261.2 84.42 263.107 84.42C265.747 84.42 268.112 84.8783 270.202 85.795C272.292 86.7117 273.942 88.27 275.152 90.47C276.398 92.67 277.022 95.7317 277.022 99.655C277.022 103.248 276.453 106.237 275.317 108.62C274.18 110.967 272.53 112.708 270.367 113.845C268.24 114.982 265.637 115.55 262.557 115.55ZM302.361 84.97H311.381L299.501 99.38L312.426 115H303.131L290.866 99.765V115H282.671V84.97H290.866V99.545L302.361 84.97ZM341.83 99.93C341.83 102.423 341.482 104.642 340.785 106.585C340.125 108.528 339.153 110.178 337.87 111.535C336.623 112.855 335.102 113.863 333.305 114.56C331.508 115.22 329.473 115.55 327.2 115.55C325.11 115.55 323.167 115.22 321.37 114.56C319.61 113.863 318.088 112.855 316.805 111.535C315.522 110.178 314.513 108.528 313.78 106.585C313.083 104.642 312.735 102.423 312.735 99.93C312.735 96.5933 313.322 93.7883 314.495 91.515C315.668 89.205 317.355 87.445 319.555 86.235C321.755 85.025 324.358 84.42 327.365 84.42C330.188 84.42 332.682 85.025 334.845 86.235C337.008 87.445 338.713 89.205 339.96 91.515C341.207 93.7883 341.83 96.5933 341.83 99.93ZM321.095 99.93C321.095 101.91 321.297 103.578 321.7 104.935C322.14 106.255 322.818 107.263 323.735 107.96C324.652 108.62 325.843 108.95 327.31 108.95C328.777 108.95 329.95 108.62 330.83 107.96C331.747 107.263 332.407 106.255 332.81 104.935C333.25 103.578 333.47 101.91 333.47 99.93C333.47 97.95 333.25 96.3 332.81 94.98C332.407 93.66 331.747 92.67 330.83 92.01C329.913 91.35 328.722 91.02 327.255 91.02C325.092 91.02 323.515 91.7717 322.525 93.275C321.572 94.7417 321.095 96.96 321.095 99.93ZM374.398 115H366.203V91.13H358.668C358.301 95.53 357.843 99.2883 357.293 102.405C356.779 105.485 356.119 107.997 355.313 109.94C354.543 111.883 353.553 113.313 352.343 114.23C351.133 115.11 349.648 115.55 347.888 115.55C346.934 115.55 346.073 115.477 345.303 115.33C344.533 115.183 343.836 114.963 343.213 114.67V108.125C343.616 108.272 344.038 108.4 344.478 108.51C344.918 108.62 345.376 108.675 345.853 108.675C346.366 108.675 346.843 108.473 347.283 108.07C347.759 107.667 348.199 106.952 348.603 105.925C349.043 104.898 349.446 103.487 349.813 101.69C350.179 99.8933 350.509 97.6383 350.803 94.925C351.133 92.175 351.426 88.8567 351.683 84.97H374.398V115ZM409.132 99.93C409.132 102.423 408.783 104.642 408.087 106.585C407.427 108.528 406.455 110.178 405.172 111.535C403.925 112.855 402.403 113.863 400.607 114.56C398.81 115.22 396.775 115.55 394.502 115.55C392.412 115.55 390.468 115.22 388.672 114.56C386.912 113.863 385.39 112.855 384.107 111.535C382.823 110.178 381.815 108.528 381.082 106.585C380.385 104.642 380.037 102.423 380.037 99.93C380.037 96.5933 380.623 93.7883 381.797 91.515C382.97 89.205 384.657 87.445 386.857 86.235C389.057 85.025 391.66 84.42 394.667 84.42C397.49 84.42 399.983 85.025 402.147 86.235C404.31 87.445 406.015 89.205 407.262 91.515C408.508 93.7883 409.132 96.5933 409.132 99.93ZM388.397 99.93C388.397 101.91 388.598 103.578 389.002 104.935C389.442 106.255 390.12 107.263 391.037 107.96C391.953 108.62 393.145 108.95 394.612 108.95C396.078 108.95 397.252 108.62 398.132 107.96C399.048 107.263 399.708 106.255 400.112 104.935C400.552 103.578 400.772 101.91 400.772 99.93C400.772 97.95 400.552 96.3 400.112 94.98C399.708 93.66 399.048 92.67 398.132 92.01C397.215 91.35 396.023 91.02 394.557 91.02C392.393 91.02 390.817 91.7717 389.827 93.275C388.873 94.7417 388.397 96.96 388.397 99.93ZM435.54 84.97V91.13H423V115H414.805V84.97H435.54ZM447.889 96.85C447.889 97.4733 447.853 98.2433 447.779 99.16C447.743 100.077 447.688 101.012 447.614 101.965C447.578 102.918 447.523 103.762 447.449 104.495C447.376 105.228 447.321 105.742 447.284 106.035L461.144 84.97H470.989V115H463.069V103.01C463.069 102.02 463.106 100.938 463.179 99.765C463.253 98.555 463.326 97.4367 463.399 96.41C463.509 95.3467 463.583 94.54 463.619 93.99L449.814 115H439.969V84.97H447.889V96.85ZM485.659 95.97C485.659 97.2533 485.971 98.225 486.594 98.885C487.254 99.545 488.153 99.875 489.289 99.875C490.866 99.875 492.333 99.71 493.689 99.38C495.046 99.0133 496.403 98.5367 497.759 97.95V84.97H505.954V115H497.759V103.065C496.476 103.762 495.009 104.403 493.359 104.99C491.709 105.54 489.839 105.815 487.749 105.815C484.633 105.815 482.139 105.008 480.269 103.395C478.399 101.782 477.464 99.3617 477.464 96.135V84.97H485.659V95.97ZM521.643 84.97V96.52H533.083V84.97H541.278V115H533.083V102.625H521.643V115H513.448V84.97H521.643ZM576.044 99.93C576.044 102.423 575.696 104.642 574.999 106.585C574.339 108.528 573.367 110.178 572.084 111.535C570.837 112.855 569.316 113.863 567.519 114.56C565.722 115.22 563.687 115.55 561.414 115.55C559.324 115.55 557.381 115.22 555.584 114.56C553.824 113.863 552.302 112.855 551.019 111.535C549.736 110.178 548.727 108.528 547.994 106.585C547.297 104.642 546.949 102.423 546.949 99.93C546.949 96.5933 547.536 93.7883 548.709 91.515C549.882 89.205 551.569 87.445 553.769 86.235C555.969 85.025 558.572 84.42 561.579 84.42C564.402 84.42 566.896 85.025 569.059 86.235C571.222 87.445 572.927 89.205 574.174 91.515C575.421 93.7883 576.044 96.5933 576.044 99.93ZM555.309 99.93C555.309 101.91 555.511 103.578 555.914 104.935C556.354 106.255 557.032 107.263 557.949 107.96C558.866 108.62 560.057 108.95 561.524 108.95C562.991 108.95 564.164 108.62 565.044 107.96C565.961 107.263 566.621 106.255 567.024 104.935C567.464 103.578 567.684 101.91 567.684 99.93C567.684 97.95 567.464 96.3 567.024 94.98C566.621 93.66 565.961 92.67 565.044 92.01C564.127 91.35 562.936 91.02 561.469 91.02C559.306 91.02 557.729 91.7717 556.739 93.275C555.786 94.7417 555.309 96.96 555.309 99.93ZM593.927 115.55C590.957 115.55 588.427 115.018 586.337 113.955C584.247 112.855 582.652 111.168 581.552 108.895C580.452 106.622 579.902 103.707 579.902 100.15C579.902 96.4833 580.525 93.495 581.772 91.185C583.018 88.875 584.742 87.17 586.942 86.07C589.178 84.97 591.745 84.42 594.642 84.42C596.695 84.42 598.473 84.6217 599.977 85.025C601.517 85.4283 602.855 85.905 603.992 86.455L601.572 92.78C600.288 92.2667 599.078 91.845 597.942 91.515C596.842 91.185 595.742 91.02 594.642 91.02C593.212 91.02 592.02 91.3683 591.067 92.065C590.113 92.725 589.398 93.7333 588.922 95.09C588.482 96.41 588.262 98.0783 588.262 100.095C588.262 102.075 588.5 103.725 588.977 105.045C589.49 106.328 590.223 107.3 591.177 107.96C592.13 108.583 593.285 108.895 594.642 108.895C596.365 108.895 597.887 108.675 599.207 108.235C600.527 107.758 601.81 107.117 603.057 106.31V113.295C601.81 114.102 600.49 114.67 599.097 115C597.74 115.367 596.017 115.55 593.927 115.55ZM633.729 91.13H623.884V115H615.689V91.13H605.844V84.97H633.729V91.13ZM652.139 96.575C655.219 96.575 657.767 96.905 659.784 97.565C661.801 98.1883 663.286 99.16 664.239 100.48C665.229 101.8 665.724 103.45 665.724 105.43C665.724 107.373 665.266 109.06 664.349 110.49C663.469 111.92 662.057 113.038 660.114 113.845C658.171 114.615 655.622 115 652.469 115H638.169V84.97H646.364V96.575H652.139ZM657.529 105.54C657.529 104.367 657.052 103.523 656.099 103.01C655.182 102.497 653.807 102.24 651.974 102.24H646.364V109.335H652.084C653.697 109.335 654.999 109.042 655.989 108.455C657.016 107.868 657.529 106.897 657.529 105.54Z" fill="#A0804D"/>
<path d="M141.467 163.327L141.44 189.055L137.216 189.051L137.239 166.923L123.943 166.909L123.92 189.037L119.696 189.032L119.723 163.304L141.467 163.327ZM160.956 162.868C164.124 162.871 166.667 163.978 168.585 166.188C170.535 168.398 171.507 171.727 171.502 176.175C171.499 179.087 171.049 181.551 170.151 183.566C169.284 185.549 168.051 187.051 166.45 188.074C164.881 189.064 163.024 189.558 160.88 189.556C159.568 189.554 158.4 189.377 157.377 189.024C156.353 188.671 155.474 188.222 154.738 187.677C154.035 187.101 153.427 186.476 152.916 185.803L152.628 185.803C152.692 186.347 152.755 187.035 152.818 187.867C152.881 188.699 152.912 189.419 152.912 190.027L152.901 200.587L148.677 200.583L148.716 163.335L152.172 163.339L152.744 166.843L152.936 166.843C153.449 166.108 154.058 165.437 154.762 164.829C155.499 164.222 156.364 163.743 157.356 163.392C158.38 163.041 159.58 162.866 160.956 162.868ZM160.185 166.419C158.457 166.417 157.064 166.752 156.008 167.423C154.951 168.062 154.182 169.037 153.701 170.348C153.219 171.66 152.961 173.323 152.927 175.339L152.926 176.155C152.924 178.267 153.146 180.06 153.593 181.532C154.039 183.005 154.79 184.125 155.845 184.895C156.932 185.664 158.404 186.049 160.26 186.051C161.828 186.053 163.108 185.622 164.101 184.759C165.126 183.896 165.879 182.729 166.361 181.258C166.875 179.754 167.132 178.043 167.134 176.123C167.138 173.179 166.564 170.826 165.414 169.065C164.296 167.303 162.553 166.422 160.185 166.419ZM199.642 176.205C199.639 178.349 199.349 180.253 198.772 181.916C198.226 183.547 197.424 184.939 196.367 186.089C195.342 187.24 194.077 188.119 192.572 188.725C191.1 189.3 189.451 189.586 187.627 189.584C185.931 189.582 184.364 189.293 182.924 188.715C181.485 188.106 180.238 187.224 179.183 186.071C178.128 184.918 177.298 183.525 176.692 181.893C176.117 180.228 175.831 178.324 175.834 176.18C175.837 173.332 176.319 170.932 177.281 168.981C178.243 166.998 179.621 165.496 181.414 164.474C183.207 163.42 185.336 162.894 187.8 162.896C190.136 162.899 192.183 163.429 193.942 164.487C195.733 165.513 197.123 167.018 198.113 169.003C199.135 170.956 199.645 173.357 199.642 176.205ZM180.202 176.184C180.2 178.2 180.454 179.961 180.964 181.465C181.506 182.938 182.337 184.075 183.456 184.876C184.576 185.677 185.999 186.078 187.727 186.08C189.455 186.082 190.88 185.684 192 184.885C193.121 184.086 193.938 182.951 194.452 181.479C194.998 179.976 195.272 178.216 195.274 176.2C195.276 174.152 195.006 172.408 194.463 170.967C193.921 169.527 193.09 168.422 191.971 167.653C190.884 166.852 189.46 166.45 187.7 166.448C185.076 166.446 183.171 167.307 181.985 169.034C180.799 170.761 180.205 173.144 180.202 176.184ZM221.086 163.412L221.082 166.964L209.61 166.951L209.586 189.127L205.362 189.123L205.39 163.395L221.086 163.412ZM221.163 163.412L225.675 163.417L231.228 178.062C231.547 178.927 231.834 179.759 232.089 180.559C232.376 181.36 232.631 182.144 232.855 182.912C233.078 183.648 233.253 184.369 233.38 185.073L233.572 185.073C233.765 184.273 234.07 183.233 234.488 181.954C234.905 180.642 235.338 179.331 235.788 178.019L241.035 163.433L245.595 163.438L234.476 192.706C233.867 194.305 233.145 195.696 232.312 196.88C231.511 198.095 230.518 199.022 229.333 199.66C228.18 200.331 226.772 200.666 225.108 200.664C224.34 200.663 223.668 200.614 223.092 200.518C222.516 200.453 222.02 200.373 221.604 200.276L221.608 196.916C221.96 196.981 222.376 197.045 222.856 197.11C223.368 197.174 223.896 197.207 224.44 197.207C225.432 197.208 226.28 197.017 226.984 196.634C227.721 196.283 228.345 195.755 228.858 195.052C229.371 194.38 229.803 193.581 230.156 192.653L231.504 189.247L221.163 163.412ZM267.323 189.189L263.051 189.184L263.075 166.96L255.491 166.952C255.167 171.016 254.763 174.487 254.28 177.367C253.797 180.214 253.186 182.534 252.448 184.325C251.711 186.116 250.829 187.427 249.804 188.258C248.779 189.089 247.579 189.504 246.203 189.502C245.787 189.502 245.371 189.469 244.955 189.405C244.571 189.373 244.251 189.292 243.995 189.164L243.999 185.996C244.191 186.06 244.399 186.108 244.623 186.141C244.846 186.173 245.07 186.189 245.294 186.189C245.998 186.19 246.639 185.903 247.215 185.327C247.792 184.752 248.305 183.872 248.754 182.689C249.235 181.505 249.669 180.018 250.055 178.226C250.441 176.403 250.779 174.259 251.07 171.795C251.36 169.332 251.619 166.548 251.847 163.444L267.351 163.461L267.323 189.189ZM289.773 163.484L294.381 163.489L283.375 175.862L295.265 189.218L290.369 189.213L278.767 176.145L278.753 189.201L274.529 189.196L274.557 163.468L278.781 163.473L278.767 175.953L289.773 163.484ZM302.97 179.194C302.97 179.482 302.953 179.898 302.921 180.442C302.92 180.954 302.904 181.514 302.871 182.122C302.838 182.698 302.806 183.258 302.773 183.802C302.741 184.314 302.708 184.73 302.676 185.05L316.475 163.513L321.659 163.518L321.632 189.246L317.696 189.242L317.712 174.074C317.712 173.562 317.713 172.89 317.714 172.058C317.747 171.226 317.779 170.41 317.812 169.61C317.845 168.778 317.878 168.154 317.91 167.738L304.208 189.228L298.976 189.222L299.003 163.494L302.987 163.498L302.97 179.194ZM344.901 163.543L344.889 174.247L358.857 174.262L358.869 163.558L363.093 163.562L363.065 189.29L358.841 189.286L358.853 177.814L344.885 177.799L344.873 189.271L340.649 189.266L340.677 163.538L344.901 163.543ZM380.023 163.148C383.159 163.151 385.479 163.842 386.981 165.219C388.484 166.597 389.233 168.79 389.23 171.798L389.212 189.318L386.14 189.315L385.328 185.666L385.136 185.665C384.399 186.593 383.63 187.376 382.829 188.015C382.06 188.622 381.164 189.069 380.14 189.356C379.147 189.643 377.931 189.786 376.491 189.784C374.955 189.783 373.564 189.509 372.316 188.964C371.101 188.419 370.142 187.586 369.439 186.465C368.736 185.312 368.385 183.872 368.387 182.144C368.39 179.584 369.4 177.617 371.418 176.243C373.435 174.837 376.54 174.072 380.732 173.949L385.1 173.809L385.102 172.273C385.104 170.129 384.642 168.641 383.715 167.808C382.787 166.975 381.476 166.558 379.78 166.556C378.436 166.554 377.156 166.761 375.939 167.176C374.723 167.558 373.586 168.005 372.53 168.516L371.237 165.347C372.358 164.74 373.686 164.229 375.223 163.815C376.759 163.369 378.359 163.146 380.023 163.148ZM381.257 176.877C378.057 177.002 375.832 177.512 374.583 178.406C373.366 179.301 372.757 180.564 372.755 182.196C372.754 183.636 373.185 184.693 374.048 185.366C374.943 186.039 376.079 186.376 377.455 186.377C379.631 186.38 381.439 185.79 382.881 184.607C384.322 183.393 385.044 181.537 385.047 179.041L385.049 176.737L381.257 176.877ZM418.307 189.829C416.035 189.826 414.004 189.36 412.213 188.43C410.454 187.5 409.063 186.059 408.042 184.106C407.052 182.153 406.558 179.656 406.561 176.616C406.565 173.448 407.096 170.873 408.154 168.89C409.212 166.907 410.637 165.452 412.43 164.526C414.255 163.6 416.32 163.138 418.624 163.141C419.936 163.142 421.2 163.288 422.415 163.577C423.631 163.834 424.623 164.155 425.39 164.54L424.091 168.043C423.323 167.754 422.427 167.481 421.403 167.224C420.38 166.967 419.42 166.838 418.524 166.837C416.796 166.835 415.371 167.201 414.251 167.936C413.13 168.671 412.297 169.758 411.751 171.198C411.206 172.637 410.932 174.429 410.93 176.573C410.927 178.621 411.197 180.365 411.74 181.806C412.282 183.246 413.097 184.335 414.185 185.072C415.272 185.809 416.631 186.179 418.263 186.181C419.671 186.182 420.903 186.039 421.96 185.752C423.048 185.466 424.04 185.115 424.937 184.7L424.933 188.444C424.068 188.891 423.108 189.226 422.052 189.449C421.028 189.703 419.779 189.83 418.307 189.829ZM450.799 170.135C450.797 171.735 450.316 172.982 449.355 173.877C448.394 174.772 447.161 175.379 445.657 175.698L445.657 175.89C447.256 176.115 448.648 176.693 449.831 177.622C451.014 178.519 451.604 179.928 451.602 181.848C451.601 182.936 451.392 183.944 450.975 184.871C450.59 185.799 449.981 186.598 449.149 187.269C448.316 187.94 447.243 188.467 445.931 188.85C444.619 189.2 443.034 189.375 441.178 189.373L430.09 189.361L430.118 163.633L441.158 163.645C442.982 163.647 444.613 163.856 446.053 164.274C447.525 164.66 448.676 165.333 449.507 166.294C450.37 167.223 450.801 168.503 450.799 170.135ZM447.234 181.843C447.236 180.371 446.677 179.315 445.558 178.673C444.438 178.032 442.791 177.711 440.615 177.708L434.327 177.702L434.318 185.958L440.702 185.964C442.814 185.967 444.43 185.664 445.551 185.057C446.672 184.419 447.233 183.347 447.234 181.843ZM446.526 170.658C446.528 169.442 446.08 168.562 445.185 168.017C444.322 167.44 442.898 167.151 440.914 167.149L434.338 167.142L434.331 174.198L440.139 174.204C442.219 174.206 443.803 173.92 444.891 173.345C445.98 172.77 446.525 171.874 446.526 170.658ZM466.75 163.192C468.958 163.194 470.846 163.676 472.413 164.638C474.012 165.6 475.226 166.961 476.057 168.722C476.919 170.451 477.349 172.483 477.346 174.819L477.343 177.363L459.727 177.344C459.788 180.257 460.522 182.481 461.928 184.019C463.367 185.524 465.366 186.278 467.926 186.281C469.558 186.283 470.998 186.14 472.246 185.854C473.527 185.535 474.839 185.088 476.184 184.514L476.18 188.21C474.867 188.785 473.571 189.199 472.291 189.454C471.01 189.74 469.49 189.883 467.73 189.881C465.298 189.878 463.139 189.38 461.252 188.386C459.397 187.392 457.942 185.919 456.888 183.965C455.867 181.98 455.357 179.564 455.36 176.716C455.363 173.9 455.83 171.484 456.76 169.469C457.722 167.454 459.052 165.904 460.749 164.818C462.478 163.731 464.478 163.189 466.75 163.192ZM466.699 166.648C464.683 166.646 463.082 167.3 461.897 168.611C460.743 169.89 460.053 171.681 459.827 173.985L472.931 173.998C472.933 172.526 472.71 171.246 472.263 170.158C471.816 169.069 471.129 168.221 470.202 167.612C469.306 166.971 468.139 166.649 466.699 166.648ZM513.812 163.722L503.19 176.191L514.696 189.451L509.896 189.446L498.774 176.378L498.76 189.434L494.824 189.43L494.838 176.374L483.688 189.418L478.888 189.413L490.422 176.177L479.828 163.686L484.436 163.691L494.838 176.182L494.852 163.702L498.788 163.706L498.774 176.186L509.252 163.717L513.812 163.722ZM526.987 163.256C529.195 163.258 531.082 163.74 532.649 164.702C534.248 165.663 535.463 167.025 536.293 168.786C537.155 170.514 537.585 172.547 537.582 174.883L537.58 177.427L519.964 177.408C520.025 180.32 520.758 182.545 522.165 184.083C523.603 185.588 525.602 186.342 528.162 186.345C529.794 186.347 531.234 186.204 532.483 185.918C533.763 185.599 535.075 185.152 536.42 184.578L536.416 188.274C535.104 188.848 533.807 189.263 532.527 189.518C531.247 189.804 529.726 189.947 527.966 189.945C525.534 189.942 523.375 189.444 521.488 188.45C519.633 187.456 518.179 185.982 517.125 184.029C516.103 182.044 515.593 179.628 515.596 176.78C515.599 173.964 516.066 171.548 516.996 169.533C517.958 167.518 519.288 165.968 520.985 164.881C522.714 163.795 524.715 163.253 526.987 163.256ZM526.935 166.712C524.919 166.71 523.318 167.364 522.133 168.675C520.98 169.953 520.29 171.745 520.063 174.048L533.167 174.062C533.169 172.59 532.946 171.31 532.499 170.222C532.052 169.133 531.365 168.284 530.438 167.675C529.543 167.034 528.375 166.713 526.935 166.712ZM570.784 163.782L570.757 189.51L566.965 189.506L566.982 173.09C566.983 172.418 566.999 171.714 567.032 170.978C567.097 170.242 567.162 169.522 567.227 168.818L567.083 168.818L558.661 189.497L555.109 189.494L546.971 168.797L546.827 168.797C546.89 169.501 546.921 170.221 546.92 170.957C546.951 171.693 546.967 172.445 546.966 173.213L546.949 189.485L543.157 189.481L543.184 163.753L548.8 163.759L556.89 184.455L565.168 163.776L570.784 163.782ZM610.508 170.304C610.506 171.904 610.024 173.152 609.064 174.047C608.103 174.942 606.87 175.548 605.366 175.867L605.365 176.059C606.965 176.284 608.357 176.862 609.54 177.791C610.723 178.688 611.313 180.097 611.311 182.017C611.31 183.105 611.101 184.113 610.684 185.04C610.299 185.968 609.69 186.767 608.857 187.438C608.025 188.11 606.952 188.636 605.64 189.019C604.327 189.37 602.743 189.544 600.887 189.542L589.799 189.53L589.826 163.802L600.866 163.814C602.69 163.816 604.322 164.026 605.762 164.443C607.233 164.829 608.385 165.502 609.216 166.463C610.079 167.392 610.509 168.672 610.508 170.304ZM606.943 182.012C606.945 180.54 606.386 179.484 605.266 178.843C604.147 178.201 602.499 177.88 600.323 177.877L594.035 177.871L594.027 186.127L600.411 186.134C602.523 186.136 604.139 185.833 605.26 185.227C606.38 184.588 606.942 183.516 606.943 182.012ZM606.235 170.828C606.236 169.612 605.789 168.731 604.894 168.186C604.03 167.609 602.607 167.32 600.623 167.318L594.047 167.311L594.039 174.367L599.847 174.373C601.927 174.375 603.511 174.089 604.6 173.514C605.689 172.939 606.234 172.044 606.235 170.828ZM638.877 176.67C638.875 178.814 638.585 180.718 638.007 182.381C637.461 184.013 636.66 185.404 635.603 186.555C634.577 187.706 633.312 188.584 631.808 189.191C630.335 189.765 628.687 190.051 626.863 190.05C625.167 190.048 623.599 189.758 622.16 189.181C620.72 188.571 619.473 187.69 618.419 186.537C617.364 185.383 616.533 183.991 615.927 182.358C615.353 180.693 615.067 178.789 615.069 176.645C615.072 173.797 615.555 171.398 616.517 169.447C617.479 167.464 618.856 165.961 620.649 164.939C622.443 163.885 624.571 163.359 627.035 163.362C629.371 163.364 631.419 163.894 633.177 164.952C634.968 165.978 636.359 167.484 637.349 169.469C638.371 171.422 638.88 173.822 638.877 176.67ZM619.437 176.65C619.435 178.666 619.689 180.426 620.199 181.93C620.742 183.403 621.573 184.54 622.692 185.341C623.811 186.142 625.235 186.544 626.963 186.546C628.691 186.547 630.115 186.149 631.236 185.35C632.357 184.551 633.174 183.416 633.687 181.945C634.233 180.441 634.507 178.682 634.509 176.666C634.511 174.618 634.241 172.873 633.699 171.433C633.156 169.992 632.325 168.887 631.206 168.118C630.119 167.317 628.695 166.915 626.935 166.914C624.311 166.911 622.406 167.773 621.221 169.5C620.035 171.226 619.44 173.61 619.437 176.65ZM651.394 163.387C653.346 163.39 655.041 163.663 656.481 164.209C657.92 164.722 659.039 165.492 659.838 166.516C660.637 167.509 661.036 168.726 661.034 170.166C661.033 171.734 660.599 172.981 659.734 173.908C658.87 174.803 657.685 175.458 656.18 175.873L656.18 176.065C657.204 176.354 658.147 176.755 659.011 177.268C659.874 177.78 660.562 178.453 661.073 179.286C661.616 180.118 661.887 181.191 661.885 182.503C661.884 183.911 661.483 185.19 660.681 186.341C659.912 187.493 658.711 188.403 657.078 189.074C655.478 189.744 653.413 190.078 650.885 190.075C649.669 190.074 648.501 190.008 647.382 189.879C646.294 189.75 645.302 189.557 644.406 189.3C643.542 189.043 642.775 188.738 642.103 188.386L642.107 184.594C643.195 185.107 644.474 185.572 645.946 185.99C647.449 186.407 649.081 186.617 650.841 186.619C652.121 186.62 653.273 186.478 654.297 186.191C655.354 185.904 656.186 185.457 656.795 184.849C657.404 184.21 657.708 183.346 657.71 182.258C657.711 181.266 657.44 180.466 656.896 179.857C656.353 179.217 655.537 178.736 654.45 178.415C653.394 178.094 652.034 177.932 650.37 177.93L646.914 177.927L646.918 174.471L649.702 174.474C651.91 174.476 653.67 174.19 654.983 173.615C656.327 173.009 657 171.985 657.002 170.545C657.003 169.329 656.492 168.417 655.469 167.808C654.478 167.199 653.038 166.893 651.15 166.891C649.742 166.89 648.494 167.032 647.405 167.319C646.349 167.574 645.181 167.973 643.9 168.516L642.416 165.154C643.792 164.547 645.233 164.101 646.737 163.815C648.241 163.528 649.794 163.386 651.394 163.387ZM686.3 163.904L686.277 186.08L690.021 186.084L690.008 198.564L685.928 198.56L685.937 189.632L668.033 189.613L668.024 198.541L663.992 198.537L664.005 186.057L666.069 186.059C667.543 184.013 668.761 181.79 669.724 179.391C670.719 176.96 671.457 174.433 671.94 171.809C672.455 169.154 672.73 166.514 672.764 163.89L686.3 163.904ZM676.505 167.206C676.375 169.382 676.036 171.638 675.49 173.973C674.943 176.276 674.237 178.484 673.371 180.595C672.536 182.706 671.559 184.529 670.437 186.064L682.197 186.076L682.217 167.212L676.505 167.206ZM690.095 163.908L694.607 163.913L700.159 178.559C700.478 179.424 700.766 180.256 701.021 181.056C701.308 181.856 701.563 182.641 701.786 183.409C702.009 184.145 702.185 184.865 702.312 185.569L702.504 185.57C702.697 184.77 703.002 183.73 703.419 182.451C703.837 181.139 704.27 179.828 704.719 178.516L709.967 163.93L714.527 163.934L703.408 193.203C702.798 194.802 702.077 196.193 701.243 197.376C700.442 198.591 699.449 199.518 698.265 200.157C697.112 200.828 695.703 201.162 694.039 201.161C693.271 201.16 692.599 201.111 692.024 201.015C691.448 200.95 690.952 200.869 690.536 200.773L690.539 197.413C690.891 197.477 691.307 197.542 691.787 197.606C692.299 197.671 692.827 197.703 693.371 197.704C694.363 197.705 695.211 197.514 695.916 197.131C696.652 196.779 697.277 196.252 697.789 195.549C698.302 194.877 698.735 194.078 699.088 193.15L700.436 189.743L690.095 163.908ZM723.718 176.52L714.852 163.935L719.652 163.94L726.265 173.643L732.852 163.954L737.604 163.959L728.71 176.525L738.056 189.687L733.256 189.682L726.259 179.403L719.144 189.667L714.392 189.662L723.718 176.52ZM751.081 163.493C753.289 163.495 755.176 163.977 756.743 164.939C758.342 165.901 759.557 167.262 760.387 169.023C761.249 170.752 761.679 172.784 761.677 175.12L761.674 177.664L744.058 177.646C744.119 180.558 744.853 182.783 746.259 184.32C747.697 185.826 749.696 186.58 752.256 186.582C753.888 186.584 755.329 186.442 756.577 186.155C757.857 185.836 759.17 185.39 760.514 184.815L760.51 188.511C759.198 189.086 757.901 189.5 756.621 189.755C755.341 190.042 753.821 190.184 752.061 190.182C749.629 190.18 747.469 189.681 745.582 188.687C743.727 187.693 742.273 186.22 741.219 184.267C740.197 182.282 739.688 179.865 739.691 177.017C739.694 174.201 740.16 171.786 741.09 169.771C742.052 167.756 743.382 166.205 745.079 165.119C746.808 164.033 748.809 163.491 751.081 163.493ZM751.029 166.949C749.013 166.947 747.413 167.601 746.227 168.912C745.074 170.191 744.384 171.982 744.158 174.286L757.262 174.3C757.263 172.828 757.04 171.547 756.594 170.459C756.147 169.37 755.46 168.522 754.532 167.913C753.637 167.272 752.469 166.951 751.029 166.949ZM783.036 179.703C783.035 179.991 783.019 180.407 782.986 180.951C782.986 181.463 782.969 182.023 782.936 182.631C782.904 183.207 782.871 183.767 782.839 184.311C782.806 184.823 782.774 185.239 782.741 185.559L796.54 164.021L801.724 164.027L801.697 189.755L797.761 189.751L797.777 174.583C797.777 174.071 797.778 173.399 797.779 172.567C797.812 171.735 797.845 170.919 797.878 170.119C797.911 169.287 797.943 168.663 797.976 168.247L784.273 189.736L779.041 189.731L779.068 164.003L783.052 164.007L783.036 179.703ZM135.949 203.321L135.925 225.497L139.669 225.501L139.656 237.981L135.576 237.977L135.585 229.049L117.681 229.03L117.672 237.958L113.64 237.954L113.653 225.474L115.717 225.476C117.191 223.43 118.41 221.207 119.372 218.808C120.367 216.377 121.105 213.85 121.588 211.226C122.103 208.571 122.378 205.931 122.413 203.307L135.949 203.321ZM126.153 206.623C126.023 208.799 125.684 211.055 125.138 213.39C124.591 215.693 123.885 217.901 123.019 220.012C122.185 222.123 121.207 223.946 120.085 225.481L131.845 225.493L131.865 206.629L126.153 206.623ZM166.13 216.169C166.127 218.313 165.837 220.217 165.26 221.881C164.714 223.512 163.912 224.903 162.855 226.054C161.83 227.205 160.565 228.084 159.06 228.69C157.588 229.264 155.939 229.551 154.115 229.549C152.419 229.547 150.852 229.257 149.412 228.68C147.973 228.07 146.726 227.189 145.671 226.036C144.616 224.883 143.786 223.49 143.18 221.857C142.605 220.193 142.319 218.288 142.322 216.144C142.325 213.296 142.807 210.897 143.769 208.946C144.731 206.963 146.109 205.46 147.902 204.438C149.695 203.384 151.824 202.858 154.288 202.861C156.624 202.863 158.671 203.394 160.43 204.451C162.221 205.477 163.611 206.983 164.601 208.968C165.623 210.921 166.133 213.321 166.13 216.169ZM146.69 216.149C146.687 218.165 146.942 219.925 147.452 221.43C147.994 222.902 148.825 224.039 149.944 224.84C151.064 225.642 152.487 226.043 154.215 226.045C155.943 226.047 157.368 225.648 158.488 224.849C159.609 224.051 160.426 222.915 160.94 221.444C161.486 219.941 161.759 218.181 161.762 216.165C161.764 214.117 161.494 212.373 160.951 210.932C160.409 209.491 159.578 208.387 158.459 207.617C157.371 206.816 155.948 206.415 154.188 206.413C151.564 206.41 149.659 207.272 148.473 208.999C147.287 210.726 146.693 213.109 146.69 216.149ZM182.17 229.578C179.898 229.576 177.866 229.11 176.075 228.18C174.316 227.25 172.926 225.809 171.904 223.856C170.914 221.903 170.421 219.406 170.424 216.366C170.427 213.198 170.958 210.623 172.016 208.64C173.074 206.657 174.5 205.202 176.293 204.276C178.118 203.35 180.182 202.888 182.486 202.891C183.798 202.892 185.062 203.038 186.278 203.327C187.493 203.584 188.485 203.905 189.253 204.29L187.953 207.793C187.185 207.504 186.29 207.231 185.266 206.974C184.242 206.717 183.282 206.588 182.386 206.587C180.658 206.585 179.234 206.951 178.113 207.686C176.992 208.421 176.159 209.508 175.614 210.948C175.068 212.387 174.794 214.179 174.792 216.323C174.79 218.371 175.06 220.115 175.602 221.556C176.145 222.996 176.96 224.085 178.047 224.822C179.134 225.559 180.494 225.929 182.126 225.93C183.534 225.932 184.766 225.789 185.822 225.502C186.911 225.215 187.903 224.865 188.799 224.449L188.795 228.193C187.931 228.641 186.971 228.976 185.914 229.198C184.89 229.453 183.642 229.58 182.17 229.578ZM211.736 206.954L203.336 206.945L203.313 229.121L199.137 229.116L199.16 206.94L190.856 206.932L190.86 203.38L211.74 203.402L211.736 206.954ZM211.816 203.402L216.328 203.407L221.881 218.053C222.2 218.917 222.487 219.749 222.742 220.549C223.029 221.35 223.284 222.134 223.508 222.902C223.731 223.638 223.906 224.359 224.033 225.063L224.225 225.063C224.418 224.263 224.723 223.224 225.141 221.944C225.558 220.632 225.991 219.321 226.441 218.009L231.688 203.423L236.248 203.428L225.129 232.696C224.52 234.295 223.798 235.687 222.965 236.87C222.164 238.085 221.171 239.012 219.986 239.651C218.833 240.321 217.425 240.656 215.761 240.654C214.993 240.653 214.321 240.605 213.745 240.508C213.169 240.443 212.673 240.363 212.257 240.266L212.261 236.906C212.613 236.971 213.029 237.035 213.509 237.1C214.021 237.164 214.548 237.197 215.092 237.197C216.084 237.198 216.933 237.007 217.637 236.624C218.373 236.273 218.998 235.745 219.511 235.042C220.023 234.371 220.456 233.571 220.809 232.643L222.157 229.237L211.816 203.402ZM261.101 203.454L261.074 229.182L256.85 229.178L256.873 207.05L243.577 207.036L243.554 229.163L239.33 229.159L239.357 203.431L261.101 203.454ZM295.356 203.49L299.964 203.495L288.959 215.868L300.849 229.224L295.953 229.219L284.351 216.151L284.337 229.207L280.113 229.202L280.14 203.474L284.364 203.479L284.351 215.959L295.356 203.49ZM320.477 229.725C319.005 229.723 317.725 229.594 316.637 229.337C315.581 229.112 314.59 228.775 313.662 228.326L313.666 224.678C314.626 225.063 315.665 225.4 316.785 225.689C317.905 225.978 319.168 226.124 320.576 226.125C322.24 226.127 323.681 225.84 324.897 225.266C326.114 224.659 327.075 223.732 327.78 222.485C328.486 221.237 328.887 219.654 328.985 217.734L316.313 217.721L316.317 214.265L328.941 214.278C328.72 211.654 327.97 209.733 326.691 208.516C325.444 207.298 323.605 206.688 321.173 206.686C320.245 206.685 319.221 206.812 318.101 207.066C317.012 207.321 316.036 207.608 315.172 207.927L313.975 204.518C314.904 204.103 316.008 203.752 317.288 203.466C318.569 203.179 319.849 203.036 321.129 203.038C323.529 203.04 325.64 203.49 327.463 204.388C329.318 205.286 330.757 206.712 331.779 208.665C332.833 210.618 333.358 213.195 333.355 216.395C333.351 219.435 332.789 221.946 331.667 223.929C330.577 225.912 329.055 227.382 327.102 228.34C325.181 229.266 322.973 229.728 320.477 229.725ZM354.351 203.553L358.959 203.558L347.954 215.93L359.844 229.287L354.948 229.281L343.346 216.213L343.332 229.269L339.108 229.265L339.135 203.537L343.359 203.541L343.346 216.021L354.351 203.553ZM384.998 216.401C384.996 218.545 384.706 220.449 384.128 222.112C383.582 223.744 382.781 225.135 381.724 226.286C380.699 227.437 379.434 228.315 377.929 228.922C376.456 229.496 374.808 229.783 372.984 229.781C371.288 229.779 369.72 229.489 368.281 228.912C366.842 228.302 365.595 227.421 364.54 226.268C363.485 225.115 362.654 223.722 362.048 222.089C361.474 220.424 361.188 218.52 361.19 216.376C361.193 213.528 361.676 211.129 362.638 209.178C363.6 207.195 364.978 205.692 366.771 204.67C368.564 203.616 370.692 203.09 373.156 203.093C375.492 203.095 377.54 203.625 379.299 204.683C381.09 205.709 382.48 207.215 383.47 209.2C384.492 211.153 385.001 213.553 384.998 216.401ZM365.558 216.381C365.556 218.397 365.81 220.157 366.321 221.662C366.863 223.134 367.694 224.271 368.813 225.072C369.932 225.873 371.356 226.275 373.084 226.277C374.812 226.279 376.236 225.88 377.357 225.081C378.478 224.282 379.295 223.147 379.809 221.676C380.354 220.172 380.628 218.413 380.63 216.397C380.632 214.349 380.362 212.604 379.82 211.164C379.277 209.723 378.446 208.618 377.327 207.849C376.24 207.048 374.817 206.647 373.057 206.645C370.433 206.642 368.528 207.504 367.342 209.231C366.156 210.957 365.561 213.341 365.558 216.381ZM410.303 229.34L406.031 229.336L406.055 207.112L398.471 207.104C398.146 211.167 397.743 214.639 397.26 217.518C396.777 220.366 396.166 222.685 395.428 224.476C394.69 226.268 393.809 227.579 392.784 228.41C391.759 229.24 390.559 229.655 389.183 229.654C388.767 229.653 388.351 229.621 387.935 229.556C387.551 229.524 387.231 229.444 386.975 229.315L386.978 226.147C387.17 226.212 387.378 226.26 387.602 226.292C387.826 226.324 388.05 226.341 388.274 226.341C388.978 226.342 389.619 226.054 390.195 225.479C390.772 224.903 391.285 224.024 391.734 222.84C392.215 221.657 392.649 220.169 393.035 218.378C393.421 216.554 393.759 214.411 394.049 211.947C394.34 209.483 394.599 206.699 394.826 203.596L410.33 203.612L410.303 229.34ZM439.891 216.459C439.888 218.603 439.598 220.507 439.021 222.171C438.475 223.802 437.673 225.193 436.616 226.344C435.591 227.495 434.326 228.374 432.821 228.98C431.349 229.554 429.701 229.841 427.877 229.839C426.181 229.837 424.613 229.547 423.173 228.97C421.734 228.36 420.487 227.479 419.432 226.326C418.377 225.173 417.547 223.78 416.941 222.147C416.366 220.483 416.08 218.578 416.083 216.434C416.086 213.586 416.568 211.187 417.53 209.236C418.492 207.253 419.87 205.75 421.663 204.728C423.456 203.674 425.585 203.148 428.049 203.151C430.385 203.153 432.432 203.684 434.191 204.741C435.982 205.767 437.372 207.273 438.362 209.258C439.384 211.211 439.894 213.611 439.891 216.459ZM420.451 216.439C420.449 218.455 420.703 220.215 421.213 221.72C421.756 223.192 422.586 224.329 423.705 225.13C424.825 225.932 426.248 226.333 427.976 226.335C429.704 226.337 431.129 225.938 432.249 225.139C433.37 224.341 434.188 223.205 434.701 221.734C435.247 220.231 435.521 218.471 435.523 216.455C435.525 214.407 435.255 212.663 434.712 211.222C434.17 209.781 433.339 208.677 432.22 207.907C431.133 207.106 429.709 206.705 427.949 206.703C425.325 206.7 423.42 207.562 422.234 209.289C421.048 211.016 420.454 213.399 420.451 216.439ZM461.335 203.666L461.331 207.218L449.859 207.206L449.836 229.382L445.612 229.378L445.639 203.65L461.335 203.666ZM469.412 219.371C469.411 219.659 469.395 220.075 469.362 220.619C469.362 221.131 469.345 221.691 469.313 222.299C469.28 222.875 469.247 223.435 469.215 223.979C469.182 224.491 469.15 224.906 469.118 225.226L482.916 203.689L488.1 203.695L488.073 229.423L484.137 229.418L484.153 214.25C484.154 213.738 484.154 213.066 484.155 212.234C484.188 211.402 484.221 210.586 484.254 209.786C484.287 208.955 484.319 208.331 484.352 207.915L470.649 229.404L465.417 229.399L465.444 203.671L469.428 203.675L469.412 219.371ZM499.014 213.066C499.013 214.57 499.427 215.691 500.259 216.427C501.122 217.132 502.354 217.486 503.954 217.487C505.554 217.489 507.01 217.251 508.322 216.772C509.635 216.261 510.98 215.591 512.356 214.76L512.368 203.72L516.592 203.725L516.565 229.453L512.341 229.448L512.353 217.976C510.912 218.903 509.487 219.637 508.079 220.18C506.702 220.69 505.038 220.944 503.086 220.942C500.462 220.94 498.415 220.249 496.944 218.872C495.506 217.494 494.787 215.654 494.79 213.35L494.8 203.702L499.024 203.706L499.014 213.066ZM533.742 203.263C535.95 203.265 537.838 203.747 539.405 204.709C541.004 205.671 542.218 207.032 543.048 208.793C543.91 210.522 544.34 212.554 544.338 214.89L544.335 217.434L526.719 217.415C526.78 220.328 527.514 222.552 528.92 224.09C530.358 225.595 532.358 226.349 534.918 226.352C536.55 226.354 537.99 226.211 539.238 225.925C540.518 225.606 541.831 225.159 543.176 224.585L543.172 228.281C541.859 228.856 540.563 229.27 539.282 229.525C538.002 229.811 536.482 229.954 534.722 229.952C532.29 229.949 530.13 229.451 528.243 228.457C526.388 227.463 524.934 225.99 523.88 224.036C522.858 222.051 522.349 219.635 522.352 216.787C522.355 213.971 522.821 211.555 523.751 209.54C524.714 207.525 526.043 205.975 527.74 204.889C529.47 203.802 531.47 203.26 533.742 203.263ZM533.69 206.719C531.674 206.717 530.074 207.371 528.888 208.682C527.735 209.961 527.045 211.752 526.819 214.056L539.923 214.069C539.924 212.597 539.702 211.317 539.255 210.229C538.808 209.14 538.121 208.292 537.193 207.683C536.298 207.042 535.13 206.72 533.69 206.719ZM560.232 229.979C557.96 229.977 555.928 229.51 554.137 228.581C552.378 227.651 550.988 226.209 549.966 224.256C548.976 222.303 548.482 219.807 548.486 216.767C548.489 213.599 549.02 211.023 550.078 209.04C551.136 207.057 552.561 205.603 554.354 204.677C556.179 203.751 558.244 203.289 560.548 203.291C561.86 203.293 563.124 203.438 564.339 203.727C565.555 203.985 566.547 204.306 567.314 204.69L566.015 208.193C565.247 207.904 564.351 207.631 563.328 207.374C562.304 207.117 561.344 206.988 560.448 206.987C558.72 206.985 557.296 207.352 556.175 208.087C555.054 208.821 554.221 209.909 553.675 211.348C553.13 212.787 552.856 214.579 552.854 216.723C552.851 218.771 553.122 220.515 553.664 221.956C554.207 223.397 555.021 224.485 556.109 225.223C557.196 225.96 558.555 226.329 560.187 226.331C561.595 226.332 562.828 226.19 563.884 225.903C564.972 225.616 565.965 225.265 566.861 224.85L566.857 228.594C565.993 229.041 565.032 229.376 563.976 229.599C562.952 229.854 561.704 229.981 560.232 229.979ZM587.258 203.8L591.866 203.804L580.861 216.177L592.751 229.533L587.855 229.528L576.252 216.46L576.239 229.516L572.015 229.511L572.042 203.783L576.266 203.788L576.253 216.268L587.258 203.8ZM600.455 219.51C600.455 219.798 600.439 220.214 600.406 220.758C600.406 221.27 600.389 221.83 600.356 222.437C600.324 223.013 600.291 223.573 600.259 224.117C600.226 224.629 600.194 225.045 600.161 225.365L613.96 203.828L619.144 203.833L619.117 229.561L615.181 229.557L615.197 214.389C615.197 213.877 615.198 213.205 615.199 212.373C615.232 211.541 615.265 210.725 615.298 209.925C615.33 209.093 615.363 208.469 615.396 208.053L601.693 229.543L596.461 229.537L596.488 203.809L600.472 203.814L600.455 219.51ZM641.848 213.217C641.846 214.721 642.261 215.842 643.092 216.579C643.956 217.284 645.187 217.637 646.787 217.639C648.387 217.64 649.843 217.402 651.156 216.923C652.469 216.413 653.813 215.742 655.19 214.912L655.202 203.872L659.426 203.876L659.399 229.604L655.175 229.6L655.187 218.128C653.746 219.054 652.321 219.789 650.912 220.331C649.536 220.842 647.872 221.096 645.92 221.094C643.296 221.091 641.248 220.401 639.778 219.023C638.339 217.646 637.621 215.805 637.624 213.501L637.634 203.853L641.858 203.857L641.848 213.217ZM670.607 219.584C670.606 219.872 670.59 220.288 670.557 220.832C670.557 221.344 670.54 221.904 670.507 222.512C670.475 223.088 670.442 223.648 670.41 224.192C670.377 224.704 670.345 225.12 670.312 225.44L684.111 203.902L689.295 203.908L689.268 229.636L685.332 229.631L685.348 214.463C685.349 213.951 685.349 213.279 685.35 212.448C685.383 211.616 685.416 210.8 685.449 210C685.482 209.168 685.514 208.544 685.547 208.128L671.844 229.617L666.612 229.612L666.639 203.884L670.623 203.888L670.607 219.584ZM706.815 230.134C704.543 230.132 702.512 229.666 700.721 228.736C698.962 227.806 697.571 226.364 696.549 224.411C695.559 222.458 695.066 219.962 695.069 216.922C695.073 213.754 695.603 211.178 696.661 209.195C697.72 207.213 699.145 205.758 700.938 204.832C702.763 203.906 704.828 203.444 707.132 203.447C708.444 203.448 709.707 203.593 710.923 203.883C712.139 204.14 713.13 204.461 713.898 204.846L712.598 208.348C711.831 208.06 710.935 207.787 709.911 207.53C708.887 207.272 707.928 207.143 707.032 207.142C705.304 207.141 703.879 207.507 702.758 208.242C701.638 208.977 700.804 210.064 700.259 211.503C699.713 212.943 699.44 214.734 699.437 216.878C699.435 218.926 699.705 220.671 700.248 222.111C700.79 223.552 701.605 224.641 702.692 225.378C703.779 226.115 705.139 226.484 706.771 226.486C708.179 226.488 709.411 226.345 710.468 226.058C711.556 225.771 712.548 225.42 713.445 225.005L713.441 228.749C712.576 229.196 711.616 229.531 710.56 229.754C709.535 230.009 708.287 230.136 706.815 230.134ZM736.382 207.51L727.982 207.501L727.958 229.677L723.782 229.672L723.806 207.496L715.502 207.487L715.506 203.935L736.386 203.958L736.382 207.51ZM740.466 229.69L740.494 203.962L744.718 203.966L744.706 214.526L751.378 214.533C753.618 214.536 755.458 214.81 756.897 215.355C758.337 215.901 759.408 216.718 760.111 217.807C760.814 218.863 761.164 220.208 761.163 221.84C761.161 223.44 760.807 224.831 760.102 226.015C759.429 227.198 758.356 228.109 756.883 228.747C755.443 229.386 753.538 229.704 751.17 229.701L740.466 229.69ZM750.79 226.293C752.614 226.295 754.102 225.992 755.255 225.386C756.408 224.747 756.985 223.643 756.986 222.075C756.988 220.507 756.461 219.451 755.406 218.906C754.35 218.329 752.831 218.039 750.847 218.037L744.703 218.03L744.694 226.286L750.79 226.293ZM765.426 229.716L765.454 203.988L769.678 203.993L769.65 229.721L765.426 229.716ZM804.493 204.03L804.466 229.758L800.674 229.754L800.691 213.338C800.692 212.666 800.709 211.962 800.741 211.226C800.806 210.49 800.871 209.77 800.936 209.066L800.792 209.066L792.37 229.745L788.818 229.741L780.68 209.044L780.536 209.044C780.599 209.748 780.63 210.468 780.629 211.204C780.661 211.94 780.676 212.692 780.675 213.46L780.658 229.732L776.866 229.728L776.893 204L782.509 204.006L790.599 224.703L798.877 204.024L804.493 204.03ZM190.721 243.38L190.694 269.108L186.47 269.103L186.493 246.975L173.197 246.961L173.174 269.089L168.95 269.084L168.977 243.356L190.721 243.38ZM210.21 242.92C213.378 242.924 215.921 244.03 217.839 246.24C219.789 248.45 220.761 251.779 220.756 256.227C220.753 259.139 220.303 261.603 219.405 263.618C218.538 265.601 217.305 267.104 215.704 268.126C214.135 269.116 212.278 269.61 210.134 269.608C208.822 269.607 207.654 269.429 206.631 269.076C205.607 268.723 204.728 268.274 203.992 267.73C203.289 267.153 202.681 266.528 202.17 265.856L201.882 265.855C201.946 266.399 202.009 267.088 202.072 267.92C202.135 268.752 202.166 269.472 202.166 270.08L202.155 280.64L197.931 280.635L197.97 243.387L201.426 243.391L201.998 246.895L202.19 246.896C202.703 246.16 203.312 245.489 204.016 244.882C204.753 244.274 205.618 243.795 206.61 243.444C207.634 243.093 208.834 242.919 210.21 242.92ZM209.439 246.471C207.711 246.47 206.318 246.804 205.262 247.475C204.205 248.114 203.436 249.089 202.955 250.4C202.473 251.712 202.215 253.376 202.181 255.392L202.18 256.208C202.178 258.32 202.4 260.112 202.847 261.584C203.293 263.057 204.044 264.178 205.099 264.947C206.186 265.716 207.658 266.101 209.514 266.103C211.082 266.105 212.362 265.674 213.355 264.812C214.38 263.949 215.133 262.781 215.615 261.31C216.129 259.806 216.386 258.095 216.388 256.175C216.392 253.231 215.818 250.878 214.668 249.117C213.55 247.356 211.807 246.474 209.439 246.471ZM248.896 256.257C248.893 258.401 248.603 260.305 248.026 261.968C247.48 263.6 246.678 264.991 245.621 266.142C244.596 267.293 243.331 268.171 241.826 268.778C240.354 269.352 238.705 269.638 236.881 269.636C235.185 269.635 233.618 269.345 232.178 268.767C230.739 268.158 229.492 267.277 228.437 266.124C227.382 264.97 226.552 263.578 225.946 261.945C225.371 260.28 225.085 258.376 225.088 256.232C225.091 253.384 225.573 250.984 226.535 249.033C227.497 247.05 228.875 245.548 230.668 244.526C232.461 243.472 234.59 242.946 237.054 242.949C239.39 242.951 241.437 243.481 243.196 244.539C244.987 245.565 246.377 247.07 247.367 249.056C248.389 251.009 248.899 253.409 248.896 256.257ZM229.456 256.237C229.453 258.253 229.708 260.013 230.218 261.517C230.76 262.99 231.591 264.127 232.71 264.928C233.83 265.729 235.253 266.131 236.981 266.133C238.709 266.134 240.134 265.736 241.254 264.937C242.375 264.138 243.192 263.003 243.706 261.532C244.252 260.028 244.525 258.269 244.528 256.253C244.53 254.205 244.26 252.46 243.717 251.02C243.175 249.579 242.344 248.474 241.225 247.705C240.138 246.904 238.714 246.502 236.954 246.501C234.33 246.498 232.425 247.36 231.239 249.086C230.053 250.813 229.459 253.197 229.456 256.237ZM273.748 243.467L273.724 265.643L277.468 265.647L277.455 278.127L273.375 278.123L273.384 269.195L255.48 269.176L255.471 278.104L251.439 278.1L251.452 265.62L253.516 265.622C254.99 263.576 256.209 261.353 257.171 258.954C258.166 256.523 258.905 253.996 259.387 251.372C259.902 248.717 260.177 246.077 260.212 243.453L273.748 243.467ZM263.952 246.769C263.822 248.945 263.483 251.201 262.937 253.536C262.391 255.839 261.684 258.047 260.818 260.158C259.984 262.269 259.006 264.092 257.884 265.627L269.644 265.639L269.664 246.775L263.952 246.769ZM277.542 243.472L282.054 243.476L287.607 258.122C287.926 258.987 288.213 259.819 288.468 260.619C288.755 261.419 289.01 262.204 289.234 262.972C289.457 263.708 289.632 264.428 289.759 265.132L289.951 265.133C290.144 264.333 290.449 263.293 290.867 262.014C291.284 260.702 291.717 259.391 292.167 258.079L297.414 243.493L301.974 243.497L290.855 272.766C290.246 274.365 289.524 275.756 288.691 276.939C287.89 278.154 286.897 279.081 285.712 279.72C284.559 280.391 283.151 280.725 281.487 280.724C280.719 280.723 280.047 280.674 279.471 280.578C278.895 280.513 278.399 280.432 277.983 280.336L277.987 276.976C278.339 277.04 278.755 277.105 279.235 277.169C279.747 277.234 280.274 277.266 280.818 277.267C281.81 277.268 282.659 277.077 283.363 276.694C284.099 276.342 284.724 275.815 285.237 275.112C285.749 274.44 286.182 273.641 286.535 272.713L287.883 269.306L277.542 243.472ZM320.299 243.517L324.907 243.522L313.902 255.894L325.792 269.251L320.896 269.245L309.294 256.177L309.28 269.233L305.056 269.229L305.083 243.501L309.307 243.505L309.294 255.985L320.299 243.517ZM347.285 247.097L338.886 247.088L338.862 269.264L334.686 269.26L334.71 247.084L326.406 247.075L326.409 243.523L347.289 243.545L347.285 247.097ZM361.142 243.128C364.278 243.131 366.597 243.822 368.1 245.199C369.602 246.577 370.352 248.77 370.349 251.778L370.33 269.298L367.258 269.295L366.446 265.646L366.254 265.645C365.517 266.573 364.748 267.356 363.947 267.995C363.179 268.602 362.282 269.049 361.258 269.336C360.266 269.623 359.05 269.766 357.61 269.764C356.074 269.763 354.682 269.489 353.434 268.944C352.219 268.399 351.26 267.566 350.557 266.445C349.854 265.292 349.504 263.852 349.506 262.124C349.508 259.564 350.518 257.597 352.536 256.223C354.553 254.817 357.658 254.052 361.85 253.929L366.219 253.789L366.22 252.253C366.222 250.109 365.76 248.621 364.833 247.788C363.906 246.955 362.594 246.538 360.898 246.536C359.554 246.534 358.274 246.741 357.058 247.156C355.841 247.538 354.705 247.985 353.648 248.496L352.355 245.327C353.476 244.72 354.805 244.209 356.341 243.795C357.878 243.349 359.478 243.126 361.142 243.128ZM362.375 256.857C359.175 256.982 356.951 257.492 355.702 258.386C354.485 259.281 353.875 260.544 353.874 262.176C353.872 263.616 354.303 264.673 355.166 265.346C356.062 266.019 357.197 266.356 358.573 266.357C360.749 266.36 362.558 265.77 363.999 264.587C365.44 263.373 366.162 261.517 366.165 259.021L366.167 256.717L362.375 256.857ZM404.944 243.606L404.916 269.334L401.124 269.33L401.142 252.914C401.142 252.242 401.159 251.538 401.192 250.802C401.257 250.067 401.322 249.347 401.386 248.643L401.242 248.643L392.82 269.322L389.268 269.318L381.13 248.621L380.986 248.621C381.05 249.325 381.081 250.045 381.08 250.781C381.111 251.517 381.126 252.269 381.126 253.037L381.108 269.309L377.316 269.305L377.344 243.577L382.96 243.583L391.05 264.28L399.328 243.601L404.944 243.606ZM445.73 243.65L445.703 269.378L441.479 269.373L441.502 247.245L428.206 247.231L428.183 269.359L423.959 269.355L423.986 243.627L445.73 243.65ZM475.334 256.497C475.331 258.641 475.041 260.545 474.464 262.208C473.918 263.84 473.116 265.231 472.059 266.382C471.034 267.532 469.769 268.411 468.264 269.018C466.792 269.592 465.143 269.878 463.319 269.876C461.623 269.875 460.056 269.585 458.616 269.007C457.177 268.398 455.93 267.516 454.875 266.363C453.82 265.21 452.99 263.817 452.384 262.185C451.809 260.52 451.523 258.616 451.526 256.472C451.529 253.624 452.011 251.224 452.973 249.273C453.935 247.29 455.313 245.788 457.106 244.766C458.899 243.712 461.028 243.186 463.492 243.188C465.828 243.191 467.875 243.721 469.634 244.779C471.425 245.805 472.815 247.31 473.805 249.295C474.827 251.249 475.337 253.649 475.334 256.497ZM455.894 256.476C455.891 258.492 456.146 260.253 456.656 261.757C457.198 263.23 458.029 264.367 459.148 265.168C460.268 265.969 461.691 266.371 463.419 266.372C465.147 266.374 466.572 265.976 467.692 265.177C468.813 264.378 469.63 263.243 470.144 261.772C470.69 260.268 470.963 258.508 470.966 256.492C470.968 254.444 470.698 252.7 470.155 251.26C469.613 249.819 468.782 248.714 467.663 247.945C466.576 247.144 465.152 246.742 463.392 246.74C460.768 246.738 458.863 247.6 457.677 249.326C456.491 251.053 455.897 253.436 455.894 256.476ZM500.638 269.436L496.366 269.431L496.39 247.207L488.806 247.199C488.482 251.263 488.078 254.735 487.595 257.614C487.112 260.462 486.501 262.781 485.764 264.572C485.026 266.363 484.144 267.674 483.119 268.505C482.095 269.336 480.894 269.751 479.518 269.749C479.102 269.749 478.686 269.717 478.27 269.652C477.886 269.62 477.566 269.539 477.31 269.411L477.314 266.243C477.506 266.307 477.714 266.356 477.938 266.388C478.162 266.42 478.386 266.436 478.61 266.437C479.314 266.437 479.954 266.15 480.531 265.575C481.107 264.999 481.62 264.12 482.069 262.936C482.551 261.753 482.984 260.265 483.37 258.474C483.756 256.65 484.094 254.506 484.385 252.043C484.675 249.579 484.934 246.795 485.162 243.691L500.666 243.708L500.638 269.436ZM530.226 256.555C530.224 258.699 529.934 260.603 529.356 262.266C528.81 263.898 528.009 265.289 526.952 266.44C525.926 267.591 524.661 268.469 523.157 269.076C521.684 269.65 520.036 269.936 518.212 269.934C516.516 269.933 514.948 269.643 513.509 269.065C512.069 268.456 510.822 267.575 509.768 266.422C508.713 265.268 507.882 263.876 507.276 262.243C506.702 260.578 506.416 258.674 506.418 256.53C506.421 253.682 506.904 251.282 507.866 249.332C508.828 247.349 510.205 245.846 511.998 244.824C513.792 243.77 515.92 243.244 518.384 243.247C520.72 243.249 522.768 243.779 524.526 244.837C526.317 245.863 527.708 247.369 528.698 249.354C529.72 251.307 530.229 253.707 530.226 256.555ZM510.786 256.535C510.784 258.551 511.038 260.311 511.548 261.815C512.091 263.288 512.922 264.425 514.041 265.226C515.16 266.027 516.584 266.429 518.312 266.431C520.04 266.432 521.464 266.034 522.585 265.235C523.706 264.436 524.523 263.301 525.036 261.83C525.582 260.326 525.856 258.567 525.858 256.551C525.86 254.503 525.59 252.758 525.048 251.318C524.505 249.877 523.674 248.772 522.555 248.003C521.468 247.202 520.044 246.8 518.284 246.799C515.66 246.796 513.755 247.658 512.57 249.384C511.384 251.111 510.789 253.495 510.786 256.535ZM565.901 243.777L555.279 256.246L566.785 269.506L561.985 269.501L550.863 256.433L550.849 269.489L546.913 269.485L546.927 256.429L535.777 269.473L530.977 269.468L542.511 256.232L531.917 243.741L536.525 243.746L546.927 256.237L546.941 243.757L550.877 243.761L550.863 256.241L561.341 243.772L565.901 243.777ZM574.044 259.482C574.044 259.77 574.027 260.186 573.995 260.73C573.994 261.242 573.978 261.802 573.945 262.41C573.912 262.985 573.88 263.545 573.847 264.089C573.815 264.601 573.782 265.017 573.75 265.337L587.549 243.8L592.733 243.805L592.705 269.533L588.769 269.529L588.785 254.361C588.786 253.849 588.787 253.177 588.788 252.345C588.82 251.513 588.853 250.697 588.886 249.897C588.919 249.065 588.952 248.441 588.984 248.025L575.281 269.515L570.049 269.509L570.077 243.781L574.061 243.786L574.044 259.482ZM617.717 247.384L609.317 247.375L609.293 269.551L605.117 269.547L605.141 247.371L596.837 247.362L596.84 243.81L617.72 243.832L617.717 247.384ZM631.296 243.366C633.504 243.369 635.392 243.851 636.959 244.812C638.558 245.774 639.772 247.135 640.602 248.896C641.465 250.625 641.894 252.657 641.892 254.993L641.889 257.537L624.273 257.519C624.334 260.431 625.068 262.656 626.474 264.193C627.913 265.699 629.912 266.453 632.472 266.456C634.104 266.457 635.544 266.315 636.792 266.028C638.073 265.709 639.385 265.263 640.73 264.688L640.726 268.384C639.413 268.959 638.117 269.373 636.836 269.628C635.556 269.915 634.036 270.057 632.276 270.055C629.844 270.053 627.684 269.554 625.798 268.56C623.943 267.566 622.488 266.093 621.434 264.14C620.412 262.155 619.903 259.738 619.906 256.89C619.909 254.074 620.375 251.659 621.306 249.644C622.268 247.629 623.597 246.078 625.294 244.992C627.024 243.906 629.024 243.364 631.296 243.366ZM631.245 246.822C629.229 246.82 627.628 247.474 626.442 248.785C625.289 250.064 624.599 251.855 624.373 254.159L637.477 254.173C637.478 252.701 637.256 251.421 636.809 250.332C636.362 249.244 635.675 248.395 634.748 247.786C633.852 247.145 632.685 246.824 631.245 246.822ZM667.05 269.612L662.778 269.608L662.802 247.384L655.218 247.376C654.893 251.439 654.49 254.911 654.007 257.79C653.524 260.638 652.913 262.957 652.175 264.748C651.437 266.54 650.556 267.851 649.531 268.682C648.506 269.513 647.306 269.927 645.93 269.926C645.514 269.925 645.098 269.893 644.682 269.828C644.298 269.796 643.978 269.716 643.722 269.587L643.726 266.419C643.918 266.484 644.125 266.532 644.349 266.564C644.573 266.596 644.797 266.613 645.021 266.613C645.725 266.614 646.366 266.326 646.942 265.751C647.519 265.175 648.032 264.296 648.481 263.112C648.962 261.929 649.396 260.441 649.782 258.65C650.168 256.826 650.506 254.683 650.797 252.219C651.087 249.755 651.346 246.971 651.573 243.868L667.077 243.884L667.05 269.612ZM686.128 254.464C688.368 254.467 690.224 254.741 691.695 255.286C693.167 255.832 694.27 256.649 695.005 257.738C695.772 258.795 696.154 260.139 696.153 261.771C696.151 263.371 695.781 264.763 695.044 265.946C694.339 267.129 693.234 268.04 691.729 268.678C690.225 269.317 688.288 269.635 685.92 269.632L674.256 269.62L674.283 243.892L678.507 243.896L678.496 254.456L686.128 254.464ZM691.928 262.006C691.93 260.438 691.371 259.382 690.252 258.837C689.164 258.26 687.629 257.97 685.645 257.968L678.493 257.96L678.484 266.216L685.732 266.224C687.524 266.226 688.996 265.907 690.149 265.269C691.334 264.63 691.927 263.542 691.928 262.006ZM706.047 243.925L706.036 254.629L720.004 254.644L720.015 243.94L724.239 243.945L724.212 269.673L719.988 269.668L720 258.196L706.032 258.181L706.02 269.653L701.796 269.649L701.823 243.921L706.047 243.925ZM753.78 256.792C753.778 258.936 753.488 260.84 752.91 262.503C752.365 264.135 751.563 265.526 750.506 266.677C749.481 267.827 748.216 268.706 746.711 269.313C745.238 269.887 743.59 270.173 741.766 270.171C740.07 270.17 738.502 269.88 737.063 269.302C735.624 268.693 734.377 267.811 733.322 266.658C732.267 265.505 731.437 264.112 730.83 262.48C730.256 260.815 729.97 258.911 729.972 256.767C729.975 253.919 730.458 251.519 731.42 249.568C732.382 247.585 733.76 246.083 735.553 245.061C737.346 244.007 739.474 243.481 741.938 243.483C744.274 243.486 746.322 244.016 748.081 245.074C749.872 246.1 751.262 247.605 752.252 249.59C753.274 251.543 753.783 253.944 753.78 256.792ZM734.34 256.771C734.338 258.787 734.592 260.548 735.103 262.052C735.645 263.525 736.476 264.662 737.595 265.463C738.714 266.264 740.138 266.666 741.866 266.667C743.594 266.669 745.018 266.271 746.139 265.472C747.26 264.673 748.077 263.538 748.591 262.067C749.136 260.563 749.41 258.803 749.412 256.787C749.415 254.739 749.144 252.995 748.602 251.555C748.059 250.114 747.229 249.009 746.109 248.24C745.022 247.439 743.599 247.037 741.839 247.035C739.215 247.033 737.31 247.895 736.124 249.621C734.938 251.348 734.344 253.731 734.34 256.771ZM232.273 289.904C232.271 291.504 231.79 292.751 230.829 293.646C229.868 294.541 228.635 295.148 227.131 295.466L227.131 295.658C228.73 295.884 230.122 296.461 231.305 297.391C232.488 298.288 233.078 299.696 233.076 301.616C233.075 302.704 232.866 303.712 232.449 304.64C232.064 305.567 231.455 306.367 230.623 307.038C229.79 307.709 228.717 308.236 227.405 308.618C226.093 308.969 224.508 309.143 222.652 309.141L211.564 309.13L211.592 283.402L222.632 283.413C224.456 283.415 226.087 283.625 227.527 284.043C228.999 284.428 230.15 285.101 230.981 286.062C231.844 286.991 232.275 288.272 232.273 289.904ZM228.708 301.612C228.71 300.14 228.151 299.083 227.032 298.442C225.912 297.801 224.265 297.479 222.089 297.477L215.801 297.47L215.792 305.726L222.176 305.733C224.288 305.735 225.904 305.433 227.025 304.826C228.146 304.187 228.707 303.116 228.708 301.612ZM228 290.427C228.002 289.211 227.554 288.331 226.659 287.786C225.796 287.209 224.372 286.919 222.388 286.917L215.812 286.91L215.804 293.966L221.612 293.972C223.692 293.974 225.277 293.688 226.365 293.113C227.454 292.538 227.999 291.643 228 290.427ZM257.845 309.179L253.573 309.174L253.596 286.95L246.012 286.942C245.688 291.006 245.284 294.477 244.801 297.357C244.318 300.204 243.708 302.524 242.97 304.315C242.232 306.106 241.35 307.417 240.326 308.248C239.301 309.079 238.1 309.494 236.724 309.492C236.308 309.492 235.892 309.459 235.476 309.395C235.092 309.363 234.773 309.282 234.517 309.154L234.52 305.986C234.712 306.05 234.92 306.098 235.144 306.131C235.368 306.163 235.592 306.179 235.816 306.179C236.52 306.18 237.16 305.893 237.737 305.317C238.313 304.742 238.826 303.863 239.276 302.679C239.757 301.496 240.19 300.008 240.576 298.216C240.962 296.393 241.3 294.249 241.591 291.785C241.882 289.322 242.141 286.538 242.368 283.434L257.872 283.451L257.845 309.179ZM269.045 299.159C269.045 299.447 269.028 299.863 268.996 300.406C268.995 300.918 268.979 301.478 268.946 302.086C268.914 302.662 268.881 303.222 268.848 303.766C268.816 304.278 268.783 304.694 268.751 305.014L282.55 283.477L287.734 283.482L287.707 309.21L283.771 309.206L283.787 294.038C283.787 293.526 283.788 292.854 283.789 292.022C283.822 291.19 283.855 290.374 283.887 289.574C283.92 288.742 283.953 288.118 283.985 287.702L270.283 309.192L265.051 309.186L265.078 283.458L269.062 283.463L269.045 299.159ZM296.518 309.22L291.622 309.214L298.978 298.422C297.986 298.165 297.026 297.764 296.099 297.219C295.172 296.642 294.42 295.857 293.846 294.865C293.271 293.84 292.984 292.576 292.986 291.072C292.988 288.608 293.822 286.737 295.488 285.459C297.153 284.148 299.362 283.495 302.114 283.498L313.634 283.51L313.606 309.238L309.382 309.233L309.393 299.009L303.153 299.003L296.518 309.22ZM297.066 291.124C297.064 292.596 297.607 293.701 298.694 294.438C299.813 295.143 301.365 295.497 303.349 295.499L309.397 295.505L309.406 287.009L302.542 287.002C300.59 287 299.181 287.382 298.317 288.15C297.484 288.917 297.067 289.908 297.066 291.124ZM354.209 296.369C354.205 299.217 353.739 301.648 352.809 303.663C351.879 305.646 350.565 307.165 348.868 308.219C347.171 309.241 345.154 309.751 342.818 309.749C340.642 309.746 338.739 309.296 337.108 308.399C335.477 307.469 334.182 306.124 333.224 304.363C332.266 302.57 331.708 300.377 331.551 297.785L325.023 297.778L325.011 309.25L320.787 309.245L320.814 283.517L325.038 283.522L325.027 294.226L331.603 294.233C331.829 291.801 332.423 289.77 333.385 288.139C334.379 286.476 335.676 285.213 337.277 284.351C338.91 283.489 340.799 283.059 342.943 283.061C345.151 283.063 347.102 283.593 348.797 284.651C350.492 285.677 351.818 287.182 352.776 289.167C353.734 291.12 354.212 293.521 354.209 296.369ZM335.873 296.349C335.87 298.493 336.108 300.302 336.587 301.774C337.097 303.247 337.864 304.367 338.887 305.137C339.91 305.874 341.238 306.243 342.87 306.245C344.502 306.246 345.83 305.88 346.855 305.145C347.88 304.378 348.633 303.259 349.115 301.787C349.596 300.316 349.838 298.508 349.841 296.364C349.843 294.22 349.605 292.428 349.126 290.987C348.648 289.547 347.897 288.458 346.874 287.721C345.85 286.984 344.523 286.614 342.891 286.613C341.259 286.611 339.93 286.978 338.906 287.713C337.881 288.447 337.112 289.535 336.598 290.974C336.117 292.414 335.875 294.205 335.873 296.349ZM377.267 287.129L368.867 287.12L368.843 309.296L364.667 309.292L364.691 287.116L356.387 287.107L356.39 283.555L377.27 283.577L377.267 287.129ZM397.392 283.598L397.381 294.302L411.349 294.317L411.36 283.613L415.584 283.618L415.557 309.346L411.333 309.341L411.345 297.869L397.377 297.854L397.365 309.326L393.141 309.322L393.168 283.594L397.392 283.598ZM432.515 283.204C435.651 283.207 437.971 283.897 439.473 285.275C440.976 286.653 441.725 288.845 441.722 291.853L441.704 309.373L438.632 309.37L437.82 305.721L437.628 305.721C436.891 306.648 436.122 307.432 435.321 308.071C434.552 308.678 433.656 309.125 432.632 309.412C431.639 309.699 430.423 309.842 428.983 309.84C427.447 309.838 426.055 309.565 424.808 309.02C423.593 308.474 422.633 307.641 421.931 306.521C421.228 305.368 420.877 303.927 420.879 302.199C420.882 299.639 421.892 297.672 423.909 296.299C425.927 294.893 429.032 294.128 433.224 294.004L437.592 293.865L437.594 292.329C437.596 290.185 437.134 288.697 436.206 287.864C435.279 287.031 433.968 286.613 432.272 286.611C430.928 286.61 429.648 286.817 428.431 287.231C427.215 287.614 426.078 288.061 425.022 288.572L423.729 285.402C424.85 284.796 426.178 284.285 427.715 283.871C429.251 283.424 430.851 283.202 432.515 283.204ZM433.749 296.933C430.549 297.058 428.324 297.567 427.075 298.462C425.858 299.357 425.249 300.62 425.247 302.252C425.246 303.692 425.677 304.748 426.54 305.421C427.435 306.094 428.571 306.432 429.947 306.433C432.123 306.435 433.931 305.845 435.373 304.663C436.814 303.448 437.536 301.593 437.539 299.097L437.541 296.793L433.749 296.933ZM467.276 283.193C469.228 283.195 470.923 283.468 472.363 284.014C473.802 284.527 474.921 285.297 475.72 286.321C476.519 287.314 476.918 288.531 476.916 289.971C476.915 291.539 476.481 292.786 475.616 293.713C474.752 294.608 473.567 295.263 472.062 295.678L472.062 295.87C473.086 296.159 474.029 296.56 474.893 297.073C475.756 297.586 476.444 298.258 476.955 299.091C477.498 299.923 477.769 300.996 477.767 302.308C477.766 303.716 477.365 304.995 476.563 306.146C475.794 307.298 474.593 308.208 472.96 308.879C471.36 309.549 469.295 309.883 466.767 309.88C465.551 309.879 464.383 309.813 463.264 309.684C462.176 309.555 461.184 309.362 460.288 309.105C459.424 308.848 458.657 308.543 457.985 308.191L457.989 304.399C459.077 304.912 460.356 305.377 461.828 305.795C463.331 306.212 464.963 306.422 466.723 306.424C468.003 306.425 469.155 306.283 470.179 305.996C471.236 305.709 472.068 305.262 472.677 304.654C473.286 304.015 473.591 303.151 473.592 302.063C473.593 301.071 473.322 300.271 472.778 299.662C472.235 299.022 471.419 298.541 470.332 298.22C469.276 297.899 467.916 297.737 466.252 297.735L462.796 297.732L462.8 294.276L465.584 294.279C467.792 294.281 469.552 293.995 470.865 293.42C472.209 292.814 472.883 291.79 472.884 290.35C472.885 289.134 472.374 288.222 471.351 287.613C470.36 287.004 468.92 286.698 467.032 286.696C465.624 286.695 464.376 286.837 463.287 287.124C462.231 287.379 461.063 287.778 459.782 288.321L458.298 284.959C459.674 284.352 461.115 283.906 462.619 283.62C464.123 283.333 465.676 283.191 467.276 283.193ZM502.182 283.71L502.159 305.885L505.903 305.889L505.89 318.369L501.81 318.365L501.819 309.437L483.915 309.418L483.906 318.346L479.874 318.342L479.887 305.862L481.951 305.864C483.425 303.818 484.643 301.595 485.606 299.196C486.601 296.765 487.339 294.238 487.822 291.614C488.337 288.959 488.612 286.319 488.646 283.695L502.182 283.71ZM492.387 287.011C492.257 289.187 491.918 291.443 491.372 293.778C490.825 296.081 490.119 298.289 489.253 300.4C488.418 302.511 487.441 304.334 486.319 305.869L498.079 305.881L498.099 287.017L492.387 287.011ZM532.363 296.557C532.361 298.701 532.071 300.605 531.493 302.269C530.948 303.9 530.146 305.291 529.089 306.442C528.064 307.593 526.799 308.472 525.294 309.078C523.822 309.652 522.173 309.939 520.349 309.937C518.653 309.935 517.086 309.645 515.646 309.068C514.207 308.458 512.96 307.577 511.905 306.424C510.85 305.271 510.02 303.878 509.413 302.245C508.839 300.581 508.553 298.676 508.555 296.532C508.558 293.684 509.041 291.285 510.003 289.334C510.965 287.351 512.343 285.848 514.136 284.826C515.929 283.772 518.058 283.246 520.522 283.249C522.858 283.251 524.905 283.782 526.664 284.839C528.455 285.865 529.845 287.371 530.835 289.356C531.857 291.309 532.366 293.709 532.363 296.557ZM512.923 296.537C512.921 298.553 513.175 300.313 513.686 301.818C514.228 303.29 515.059 304.427 516.178 305.228C517.297 306.03 518.721 306.431 520.449 306.433C522.177 306.435 523.601 306.036 524.722 305.237C525.843 304.439 526.66 303.303 527.174 301.832C527.719 300.329 527.993 298.569 527.995 296.553C527.998 294.505 527.727 292.761 527.185 291.32C526.642 289.879 525.812 288.775 524.692 288.005C523.605 287.204 522.182 286.803 520.422 286.801C517.798 286.798 515.893 287.66 514.707 289.387C513.521 291.114 512.927 293.497 512.923 296.537ZM550.352 283.281C553.52 283.284 556.063 284.391 557.98 286.601C559.93 288.811 560.903 292.14 560.898 296.588C560.895 299.5 560.444 301.963 559.546 303.978C558.68 305.961 557.446 307.464 555.845 308.486C554.276 309.477 552.42 309.971 550.276 309.968C548.964 309.967 547.796 309.79 546.772 309.437C545.749 309.084 544.869 308.635 544.134 308.09C543.43 307.513 542.823 306.889 542.312 306.216L542.024 306.216C542.087 306.76 542.15 307.448 542.213 308.28C542.277 309.112 542.308 309.832 542.307 310.44L542.296 321L538.072 320.996L538.111 283.748L541.567 283.751L542.14 287.256L542.332 287.256C542.845 286.521 543.453 285.849 544.158 285.242C544.895 284.635 545.759 284.156 546.751 283.805C547.776 283.454 548.976 283.279 550.352 283.281ZM549.58 286.832C547.852 286.83 546.46 287.164 545.403 287.835C544.346 288.474 543.577 289.449 543.096 290.761C542.615 292.072 542.357 293.736 542.323 295.752L542.322 296.568C542.32 298.68 542.542 300.472 542.988 301.945C543.435 303.417 544.185 304.538 545.241 305.307C546.328 306.076 547.799 306.462 549.655 306.464C551.223 306.465 552.504 306.035 553.497 305.172C554.522 304.309 555.275 303.142 555.756 301.67C556.27 300.167 556.528 298.455 556.53 296.535C556.533 293.591 555.96 291.238 554.809 289.477C553.691 287.716 551.948 286.834 549.58 286.832ZM589.037 296.618C589.035 298.762 588.745 300.665 588.167 302.329C587.621 303.96 586.82 305.351 585.763 306.502C584.737 307.653 583.472 308.532 581.968 309.138C580.495 309.712 578.847 309.999 577.023 309.997C575.327 309.995 573.759 309.705 572.32 309.128C570.881 308.518 569.633 307.637 568.579 306.484C567.524 305.331 566.693 303.938 566.087 302.305C565.513 300.641 565.227 298.736 565.229 296.592C565.232 293.744 565.715 291.345 566.677 289.394C567.639 287.411 569.016 285.908 570.81 284.886C572.603 283.832 574.731 283.306 577.195 283.309C579.531 283.311 581.579 283.842 583.338 284.899C585.128 285.925 586.519 287.431 587.509 289.416C588.531 291.369 589.04 293.77 589.037 296.618ZM569.597 296.597C569.595 298.613 569.849 300.373 570.36 301.878C570.902 303.35 571.733 304.487 572.852 305.288C573.971 306.09 575.395 306.491 577.123 306.493C578.851 306.495 580.275 306.096 581.396 305.297C582.517 304.499 583.334 303.363 583.848 301.892C584.393 300.389 584.667 298.629 584.669 296.613C584.671 294.565 584.401 292.821 583.859 291.38C583.316 289.939 582.485 288.835 581.366 288.065C580.279 287.264 578.855 286.863 577.095 286.861C574.471 286.858 572.567 287.72 571.381 289.447C570.195 291.174 569.6 293.557 569.597 296.597ZM615.466 290.31C615.465 291.91 614.983 293.157 614.022 294.052C613.061 294.947 611.829 295.554 610.324 295.872L610.324 296.064C611.924 296.29 613.315 296.867 614.498 297.796C615.681 298.694 616.272 300.102 616.27 302.022C616.269 303.11 616.06 304.118 615.643 305.046C615.258 305.973 614.649 306.773 613.816 307.444C612.983 308.115 611.911 308.642 610.598 309.024C609.286 309.375 607.702 309.549 605.846 309.547L594.758 309.536L594.785 283.808L605.825 283.819C607.649 283.821 609.281 284.031 610.721 284.448C612.192 284.834 613.343 285.507 614.174 286.468C615.037 287.397 615.468 288.678 615.466 290.31ZM611.902 302.018C611.903 300.546 611.345 299.489 610.225 298.848C609.106 298.207 607.458 297.885 605.282 297.883L598.994 297.876L598.986 306.132L605.37 306.139C607.482 306.141 609.098 305.839 610.219 305.232C611.339 304.593 611.9 303.522 611.902 302.018ZM611.194 290.833C611.195 289.617 610.748 288.737 609.853 288.192C608.989 287.615 607.565 287.325 605.581 287.323L599.005 287.316L598.998 294.372L604.806 294.378C606.886 294.38 608.47 294.094 609.559 293.519C610.648 292.944 611.192 292.049 611.194 290.833ZM633.326 294.408C635.566 294.411 637.422 294.685 638.893 295.23C640.365 295.776 641.468 296.593 642.203 297.682C642.97 298.739 643.352 300.083 643.351 301.715C643.349 303.315 642.979 304.707 642.242 305.89C641.537 307.073 640.432 307.984 638.927 308.622C637.423 309.261 635.486 309.579 633.118 309.576L621.454 309.564L621.481 283.836L625.705 283.84L625.694 294.4L633.326 294.408ZM639.126 301.951C639.128 300.383 638.569 299.326 637.45 298.781C636.362 298.204 634.827 297.914 632.843 297.912L625.691 297.904L625.682 306.16L632.93 306.168C634.722 306.17 636.194 305.851 637.347 305.213C638.531 304.574 639.125 303.487 639.126 301.951ZM658.958 283.396C661.166 283.398 663.053 283.88 664.62 284.842C666.219 285.803 667.434 287.165 668.264 288.925C669.126 290.654 669.556 292.687 669.554 295.023L669.551 297.567L651.935 297.548C651.996 300.46 652.729 302.685 654.136 304.222C655.574 305.728 657.573 306.482 660.133 306.485C661.765 306.487 663.206 306.344 664.454 306.057C665.734 305.739 667.047 305.292 668.391 304.718L668.387 308.414C667.075 308.988 665.778 309.403 664.498 309.657C663.218 309.944 661.698 310.087 659.938 310.085C657.506 310.082 655.346 309.584 653.459 308.59C651.604 307.596 650.15 306.122 649.096 304.169C648.074 302.184 647.565 299.768 647.568 296.92C647.571 294.104 648.037 291.688 648.967 289.673C649.929 287.658 651.259 286.107 652.956 285.021C654.685 283.935 656.686 283.393 658.958 283.396ZM658.906 286.852C656.89 286.849 655.29 287.504 654.104 288.814C652.951 290.093 652.261 291.884 652.034 294.188L665.138 294.202C665.14 292.73 664.917 291.45 664.471 290.361C664.024 289.273 663.337 288.424 662.409 287.815C661.514 287.174 660.346 286.853 658.906 286.852ZM690.913 299.605C690.912 299.893 690.896 300.309 690.863 300.853C690.863 301.365 690.846 301.925 690.813 302.533C690.781 303.109 690.748 303.669 690.716 304.213C690.683 304.725 690.651 305.141 690.618 305.461L704.417 283.924L709.601 283.929L709.574 309.657L705.638 309.653L705.654 294.485C705.655 293.973 705.655 293.301 705.656 292.469C705.689 291.637 705.722 290.821 705.755 290.021C705.788 289.189 705.82 288.565 705.853 288.149L692.15 309.639L686.918 309.633L686.945 283.905L690.929 283.909L690.913 299.605ZM209.068 349.607C206.796 349.605 204.765 349.138 202.974 348.209C201.215 347.279 199.824 345.837 198.802 343.884C197.812 341.931 197.319 339.435 197.322 336.395C197.325 333.227 197.856 330.651 198.914 328.668C199.972 326.685 201.398 325.231 203.191 324.305C205.016 323.379 207.08 322.917 209.384 322.919C210.696 322.921 211.96 323.066 213.176 323.355C214.392 323.613 215.383 323.934 216.151 324.319L214.851 327.821C214.083 327.532 213.188 327.259 212.164 327.002C211.14 326.745 210.18 326.616 209.284 326.615C207.556 326.613 206.132 326.98 205.011 327.715C203.89 328.45 203.057 329.537 202.512 330.976C201.966 332.415 201.692 334.207 201.69 336.351C201.688 338.399 201.958 340.143 202.501 341.584C203.043 343.025 203.858 344.114 204.945 344.851C206.032 345.588 207.392 345.957 209.024 345.959C210.432 345.96 211.664 345.818 212.72 345.531C213.809 345.244 214.801 344.893 215.698 344.478L215.694 348.222C214.829 348.669 213.869 349.004 212.812 349.227C211.788 349.482 210.54 349.609 209.068 349.607ZM230.623 322.99C233.759 322.993 236.078 323.684 237.581 325.061C239.083 326.439 239.833 328.632 239.83 331.64L239.811 349.16L236.739 349.156L235.927 345.507L235.735 345.507C234.998 346.434 234.229 347.218 233.428 347.857C232.66 348.464 231.763 348.911 230.739 349.198C229.747 349.485 228.531 349.628 227.091 349.626C225.555 349.624 224.163 349.351 222.915 348.806C221.7 348.26 220.741 347.427 220.038 346.307C219.335 345.154 218.985 343.714 218.987 341.986C218.989 339.426 219.999 337.459 222.017 336.085C224.034 334.679 227.139 333.914 231.331 333.791L235.699 333.651L235.701 332.115C235.703 329.971 235.241 328.483 234.314 327.65C233.387 326.817 232.075 326.399 230.379 326.398C229.035 326.396 227.755 326.603 226.539 327.018C225.322 327.4 224.186 327.847 223.129 328.358L221.836 325.189C222.957 324.582 224.286 324.071 225.822 323.657C227.359 323.21 228.959 322.988 230.623 322.99ZM231.856 336.719C228.656 336.844 226.432 337.353 225.183 338.248C223.966 339.143 223.356 340.406 223.355 342.038C223.353 343.478 223.784 344.535 224.647 345.208C225.543 345.88 226.678 346.218 228.054 346.219C230.23 346.221 232.039 345.631 233.48 344.449C234.921 343.234 235.643 341.379 235.646 338.883L235.648 336.579L231.856 336.719ZM274.425 323.468L274.397 349.196L270.605 349.192L270.623 332.776C270.623 332.104 270.64 331.4 270.673 330.664C270.738 329.928 270.802 329.208 270.867 328.504L270.723 328.504L262.301 349.183L258.749 349.18L250.611 328.483L250.467 328.483C250.53 329.187 250.562 329.907 250.561 330.643C250.592 331.379 250.607 332.131 250.607 332.899L250.589 349.171L246.797 349.167L246.825 323.439L252.441 323.445L260.531 344.142L268.809 323.462L274.425 323.468ZM304.031 336.316C304.029 338.46 303.739 340.363 303.161 342.027C302.616 343.658 301.814 345.049 300.757 346.2C299.732 347.351 298.467 348.23 296.962 348.836C295.49 349.411 293.841 349.697 292.017 349.695C290.321 349.693 288.754 349.403 287.314 348.826C285.875 348.216 284.628 347.335 283.573 346.182C282.518 345.029 281.688 343.636 281.081 342.003C280.507 340.339 280.221 338.434 280.223 336.29C280.226 333.442 280.709 331.043 281.671 329.092C282.633 327.109 284.011 325.606 285.804 324.584C287.597 323.53 289.726 323.004 292.19 323.007C294.526 323.01 296.573 323.54 298.332 324.598C300.123 325.623 301.513 327.129 302.503 329.114C303.525 331.067 304.034 333.468 304.031 336.316ZM284.591 336.295C284.589 338.311 284.843 340.071 285.354 341.576C285.896 343.048 286.727 344.185 287.846 344.986C288.965 345.788 290.389 346.189 292.117 346.191C293.845 346.193 295.269 345.794 296.39 344.996C297.511 344.197 298.328 343.062 298.842 341.59C299.387 340.087 299.661 338.327 299.663 336.311C299.666 334.263 299.395 332.519 298.853 331.078C298.311 329.638 297.48 328.533 296.361 327.763C295.273 326.962 293.85 326.561 292.09 326.559C289.466 326.556 287.561 327.418 286.375 329.145C285.189 330.872 284.595 333.255 284.591 336.295ZM312.997 332.869C312.995 334.373 313.41 335.494 314.241 336.23C315.105 336.935 316.336 337.289 317.936 337.29C319.536 337.292 320.992 337.054 322.305 336.575C323.617 336.064 324.962 335.394 326.339 334.563L326.351 323.523L330.575 323.528L330.548 349.256L326.324 349.251L326.336 337.779C324.895 338.706 323.47 339.44 322.061 339.983C320.685 340.493 319.021 340.748 317.069 340.745C314.445 340.743 312.397 340.052 310.927 338.675C309.488 337.297 308.77 335.457 308.773 333.153L308.783 323.505L313.007 323.509L312.997 332.869ZM333.756 323.531L338.268 323.536L343.821 338.182C344.14 339.046 344.427 339.878 344.682 340.679C344.969 341.479 345.224 342.263 345.448 343.032C345.671 343.768 345.846 344.488 345.973 345.192L346.165 345.192C346.358 344.392 346.663 343.353 347.081 342.073C347.498 340.762 347.931 339.45 348.381 338.139L353.628 323.552L358.188 323.557L347.069 352.825C346.46 354.425 345.738 355.816 344.905 356.999C344.104 358.214 343.111 359.141 341.926 359.78C340.773 360.451 339.365 360.785 337.701 360.783C336.933 360.782 336.261 360.734 335.685 360.637C335.109 360.573 334.613 360.492 334.197 360.396L334.201 357.036C334.553 357.1 334.969 357.164 335.449 357.229C335.961 357.293 336.488 357.326 337.032 357.327C338.024 357.328 338.873 357.137 339.577 356.753C340.313 356.402 340.938 355.875 341.451 355.171C341.963 354.5 342.396 353.7 342.749 352.773L344.097 349.366L333.756 323.531ZM381.978 330.062C381.976 331.662 381.495 332.91 380.534 333.805C379.573 334.7 378.341 335.306 376.836 335.625L376.836 335.817C378.436 336.042 379.827 336.62 381.01 337.549C382.193 338.446 382.784 339.855 382.782 341.775C382.781 342.863 382.571 343.871 382.155 344.798C381.77 345.726 381.161 346.525 380.328 347.196C379.495 347.868 378.423 348.394 377.11 348.777C375.798 349.128 374.214 349.302 372.358 349.3L361.27 349.288L361.297 323.56L372.337 323.572C374.161 323.574 375.793 323.784 377.232 324.201C378.704 324.587 379.855 325.26 380.686 326.221C381.549 327.15 381.98 328.43 381.978 330.062ZM378.414 341.77C378.415 340.298 377.856 339.242 376.737 338.601C375.618 337.959 373.97 337.638 371.794 337.635L365.506 337.629L365.497 345.885L371.881 345.892C373.993 345.894 375.61 345.591 376.73 344.985C377.851 344.346 378.412 343.274 378.414 341.77ZM377.706 330.586C377.707 329.37 377.26 328.489 376.364 327.944C375.501 327.367 374.077 327.078 372.093 327.076L365.517 327.069L365.51 334.125L371.318 334.131C373.398 334.133 374.982 333.847 376.071 333.272C377.159 332.697 377.704 331.802 377.706 330.586ZM398.285 349.807C396.013 349.805 393.982 349.339 392.191 348.409C390.432 347.479 389.041 346.038 388.02 344.085C387.03 342.132 386.536 339.635 386.539 336.595C386.543 333.427 387.074 330.852 388.132 328.869C389.19 326.886 390.615 325.431 392.408 324.505C394.233 323.579 396.298 323.117 398.602 323.12C399.914 323.121 401.178 323.267 402.393 323.556C403.609 323.813 404.601 324.134 405.368 324.519L404.069 328.022C403.301 327.733 402.405 327.46 401.381 327.203C400.358 326.946 399.398 326.817 398.502 326.816C396.774 326.814 395.349 327.18 394.229 327.915C393.108 328.65 392.275 329.737 391.729 331.177C391.184 332.616 390.91 334.408 390.908 336.552C390.905 338.6 391.175 340.344 391.718 341.785C392.26 343.225 393.075 344.314 394.163 345.051C395.25 345.788 396.609 346.158 398.241 346.159C399.649 346.161 400.881 346.018 401.938 345.731C403.026 345.444 404.018 345.094 404.915 344.678L404.911 348.422C404.046 348.87 403.086 349.205 402.03 349.427C401.006 349.682 399.757 349.809 398.285 349.807ZM427.852 327.183L419.452 327.174L419.428 349.35L415.252 349.345L415.276 327.169L406.972 327.161L406.976 323.609L427.856 323.631L427.852 327.183ZM452.645 330.137C452.643 331.737 452.162 332.985 451.201 333.88C450.24 334.775 449.007 335.381 447.503 335.7L447.503 335.892C449.103 336.117 450.494 336.695 451.677 337.624C452.86 338.521 453.451 339.93 453.449 341.85C453.447 342.938 453.238 343.946 452.821 344.873C452.436 345.801 451.828 346.6 450.995 347.271C450.162 347.942 449.09 348.469 447.777 348.852C446.465 349.203 444.881 349.377 443.025 349.375L431.937 349.363L431.964 323.635L443.004 323.647C444.828 323.649 446.46 323.858 447.899 324.276C449.371 324.662 450.522 325.335 451.353 326.296C452.216 327.225 452.647 328.505 452.645 330.137ZM449.081 341.845C449.082 340.373 448.523 339.317 447.404 338.676C446.285 338.034 444.637 337.713 442.461 337.71L436.173 337.704L436.164 345.96L442.548 345.966C444.66 345.969 446.277 345.666 447.397 345.06C448.518 344.421 449.079 343.349 449.081 341.845ZM448.372 330.661C448.374 329.445 447.927 328.564 447.031 328.019C446.168 327.442 444.744 327.153 442.76 327.151L436.184 327.144L436.177 334.2L441.985 334.206C444.065 334.208 445.649 333.922 446.738 333.347C447.826 332.772 448.371 331.877 448.372 330.661ZM462.627 339.364C462.627 339.652 462.611 340.068 462.578 340.612C462.578 341.124 462.561 341.684 462.528 342.292C462.496 342.867 462.463 343.427 462.431 343.971C462.398 344.483 462.366 344.899 462.333 345.219L476.132 323.682L481.316 323.687L481.289 349.415L477.353 349.411L477.369 334.243C477.369 333.731 477.37 333.059 477.371 332.227C477.404 331.395 477.437 330.579 477.47 329.779C477.502 328.947 477.535 328.323 477.568 327.907L463.865 349.397L458.633 349.391L458.66 323.663L462.644 323.668L462.627 339.364ZM498.48 323.226C500.688 323.228 502.576 323.71 504.143 324.672C505.742 325.633 506.956 326.995 507.786 328.755C508.649 330.484 509.078 332.517 509.076 334.853L509.073 337.397L491.457 337.378C491.518 340.29 492.252 342.515 493.658 344.053C495.097 345.558 497.096 346.312 499.656 346.315C501.288 346.317 502.728 346.174 503.976 345.887C505.257 345.569 506.569 345.122 507.914 344.548L507.91 348.244C506.597 348.818 505.301 349.233 504.021 349.487C502.74 349.774 501.22 349.917 499.46 349.915C497.028 349.912 494.869 349.414 492.982 348.42C491.127 347.426 489.672 345.952 488.618 343.999C487.596 342.014 487.087 339.598 487.09 336.75C487.093 333.934 487.56 331.518 488.49 329.503C489.452 327.488 490.781 325.937 492.479 324.851C494.208 323.765 496.208 323.223 498.48 323.226ZM498.429 326.682C496.413 326.679 494.812 327.334 493.627 328.644C492.473 329.923 491.783 331.715 491.557 334.018L504.661 334.032C504.662 332.56 504.44 331.28 503.993 330.191C503.546 329.103 502.859 328.254 501.932 327.645C501.036 327.004 499.869 326.683 498.429 326.682ZM544.224 327.306L535.824 327.297L535.8 349.473L531.624 349.469L531.648 327.293L523.344 327.284L523.348 323.732L544.228 323.754L544.224 327.306ZM544.304 323.754L548.816 323.759L554.368 338.405C554.687 339.269 554.974 340.101 555.229 340.902C555.517 341.702 555.772 342.486 555.995 343.255C556.218 343.991 556.393 344.711 556.521 345.415L556.713 345.415C556.906 344.616 557.211 343.576 557.628 342.296C558.045 340.985 558.479 339.673 558.928 338.362L564.176 323.775L568.736 323.78L557.617 353.048C557.007 354.648 556.285 356.039 555.452 357.222C554.651 358.437 553.658 359.364 552.473 360.003C551.321 360.674 549.912 361.008 548.248 361.006C547.48 361.006 546.808 360.957 546.232 360.86C545.656 360.796 545.161 360.715 544.745 360.619L544.748 357.259C545.1 357.323 545.516 357.387 545.996 357.452C546.508 357.517 547.036 357.549 547.58 357.55C548.572 357.551 549.42 357.36 550.124 356.976C550.861 356.625 551.485 356.098 551.998 355.394C552.511 354.723 552.944 353.923 553.297 352.996L554.644 349.589L544.304 323.754ZM584.085 323.316C587.253 323.32 589.796 324.426 591.713 326.636C593.663 328.846 594.636 332.175 594.631 336.623C594.628 339.535 594.177 341.999 593.279 344.014C592.413 345.997 591.179 347.5 589.578 348.522C588.009 349.512 586.153 350.006 584.009 350.004C582.697 350.003 581.529 349.826 580.505 349.473C579.482 349.119 578.602 348.67 577.867 348.126C577.163 347.549 576.556 346.924 576.045 346.252L575.757 346.251C575.82 346.796 575.883 347.484 575.946 348.316C576.01 349.148 576.041 349.868 576.04 350.476L576.029 361.036L571.805 361.031L571.844 323.783L575.3 323.787L575.873 327.292L576.065 327.292C576.577 326.556 577.186 325.885 577.891 325.278C578.627 324.671 579.492 324.191 580.484 323.84C581.509 323.49 582.709 323.315 584.085 323.316ZM583.313 326.867C581.585 326.866 580.193 327.2 579.136 327.871C578.079 328.51 577.31 329.485 576.829 330.797C576.348 332.108 576.09 333.772 576.056 335.788L576.055 336.604C576.053 338.716 576.275 340.508 576.721 341.98C577.168 343.453 577.918 344.574 578.974 345.343C580.061 346.112 581.532 346.498 583.388 346.5C584.956 346.501 586.237 346.071 587.23 345.208C588.255 344.345 589.008 343.178 589.489 341.706C590.003 340.203 590.261 338.491 590.263 336.571C590.266 333.627 589.692 331.274 588.542 329.513C587.424 327.752 585.681 326.87 583.313 326.867ZM604.383 339.514C604.383 339.802 604.366 340.218 604.334 340.762C604.333 341.274 604.317 341.834 604.284 342.442C604.251 343.018 604.219 343.578 604.186 344.122C604.154 344.634 604.121 345.05 604.089 345.369L617.888 323.832L623.072 323.838L623.044 349.566L619.108 349.561L619.124 334.393C619.125 333.881 619.126 333.209 619.127 332.377C619.159 331.545 619.192 330.729 619.225 329.93C619.258 329.098 619.291 328.474 619.323 328.058L605.62 349.547L600.388 349.542L600.416 323.814L604.4 323.818L604.383 339.514ZM640.592 350.064C638.32 350.062 636.288 349.596 634.497 348.666C632.738 347.736 631.348 346.294 630.326 344.341C629.336 342.388 628.842 339.892 628.846 336.852C628.849 333.684 629.38 331.108 630.438 329.125C631.496 327.143 632.921 325.688 634.714 324.762C636.539 323.836 638.604 323.374 640.908 323.376C642.22 323.378 643.484 323.523 644.699 323.813C645.915 324.07 646.907 324.391 647.674 324.776L646.375 328.278C645.607 327.989 644.711 327.717 643.688 327.459C642.664 327.202 641.704 327.073 640.808 327.072C639.08 327.071 637.656 327.437 636.535 328.172C635.414 328.907 634.581 329.994 634.035 331.433C633.49 332.873 633.216 334.664 633.214 336.808C633.211 338.856 633.482 340.601 634.024 342.041C634.567 343.482 635.381 344.571 636.469 345.308C637.556 346.045 638.915 346.414 640.547 346.416C641.955 346.418 643.188 346.275 644.244 345.988C645.332 345.701 646.325 345.35 647.221 344.935L647.217 348.679C646.353 349.126 645.392 349.461 644.336 349.684C643.312 349.939 642.064 350.066 640.592 350.064ZM670.158 327.439L661.758 327.431L661.735 349.607L657.559 349.602L657.582 327.426L649.278 327.417L649.282 323.865L670.162 323.887L670.158 327.439ZM696.156 336.731C696.153 338.875 695.863 340.779 695.286 342.442C694.74 344.074 693.938 345.465 692.881 346.616C691.856 347.766 690.591 348.645 689.086 349.252C687.614 349.826 685.965 350.112 684.141 350.11C682.445 350.109 680.878 349.819 679.438 349.241C677.999 348.632 676.752 347.75 675.697 346.597C674.642 345.444 673.812 344.051 673.206 342.419C672.631 340.754 672.345 338.85 672.348 336.706C672.351 333.858 672.833 331.458 673.795 329.507C674.757 327.524 676.135 326.022 677.928 325C679.721 323.946 681.85 323.42 684.314 323.422C686.65 323.425 688.697 323.955 690.456 325.013C692.247 326.039 693.637 327.544 694.627 329.529C695.649 331.482 696.159 333.883 696.156 336.731ZM676.716 336.71C676.714 338.726 676.968 340.487 677.478 341.991C678.02 343.464 678.851 344.601 679.97 345.402C681.09 346.203 682.513 346.605 684.241 346.606C685.969 346.608 687.394 346.21 688.514 345.411C689.635 344.612 690.452 343.477 690.966 342.006C691.512 340.502 691.786 338.742 691.788 336.726C691.79 334.678 691.52 332.934 690.977 331.494C690.435 330.053 689.604 328.948 688.485 328.179C687.398 327.378 685.974 326.976 684.214 326.974C681.59 326.972 679.685 327.834 678.499 329.56C677.313 331.287 676.719 333.67 676.716 336.71ZM722.585 330.423C722.583 332.023 722.102 333.271 721.141 334.165C720.18 335.06 718.947 335.667 717.443 335.986L717.443 336.178C719.042 336.403 720.434 336.981 721.617 337.91C722.8 338.807 723.39 340.216 723.388 342.136C723.387 343.224 723.178 344.232 722.761 345.159C722.376 346.087 721.767 346.886 720.935 347.557C720.102 348.228 719.029 348.755 717.717 349.138C716.405 349.488 714.82 349.663 712.964 349.661L701.876 349.649L701.904 323.921L712.944 323.933C714.768 323.935 716.399 324.144 717.839 324.562C719.311 324.948 720.462 325.621 721.293 326.582C722.156 327.511 722.587 328.791 722.585 330.423ZM719.02 342.131C719.022 340.659 718.463 339.603 717.344 338.961C716.224 338.32 714.577 337.999 712.401 337.996L706.113 337.99L706.104 346.246L712.488 346.252C714.6 346.255 716.216 345.952 717.337 345.345C718.458 344.707 719.019 343.635 719.02 342.131ZM718.312 330.946C718.314 329.73 717.866 328.85 716.971 328.305C716.108 327.728 714.684 327.439 712.7 327.437L706.124 327.43L706.116 334.486L711.924 334.492C714.004 334.494 715.589 334.208 716.677 333.633C717.766 333.058 718.311 332.162 718.312 330.946Z" fill="#CA9E58"/>
</svg>
