<svg width="920" height="460" viewBox="0 0 920 460" fill="none" xmlns="http://www.w3.org/2000/svg">
<rect width="920" height="460" rx="46" fill="#D8BF92"/>
<path d="M166.73 106.55C163.76 106.55 161.23 106.018 159.14 104.955C157.05 103.855 155.455 102.168 154.355 99.895C153.255 97.6217 152.705 94.7067 152.705 91.15C152.705 87.4833 153.329 84.495 154.575 82.185C155.822 79.875 157.545 78.17 159.745 77.07C161.982 75.97 164.549 75.42 167.445 75.42C169.499 75.42 171.277 75.6217 172.78 76.025C174.32 76.4283 175.659 76.905 176.795 77.455L174.375 83.78C173.092 83.2667 171.882 82.845 170.745 82.515C169.645 82.185 168.545 82.02 167.445 82.02C166.015 82.02 164.824 82.3683 163.87 83.065C162.917 83.725 162.202 84.7333 161.725 86.09C161.285 87.41 161.065 89.0783 161.065 91.095C161.065 93.075 161.304 94.725 161.78 96.045C162.294 97.3283 163.027 98.3 163.98 98.96C164.934 99.5833 166.089 99.895 167.445 99.895C169.169 99.895 170.69 99.675 172.01 99.235C173.33 98.7583 174.614 98.1167 175.86 97.31V104.295C174.614 105.102 173.294 105.67 171.9 106C170.544 106.367 168.82 106.55 166.73 106.55ZM208.952 75.97V106H200.757V82.13H189.867V106H181.672V75.97H208.952ZM243.731 90.93C243.731 93.4233 243.383 95.6417 242.686 97.585C242.026 99.5283 241.054 101.178 239.771 102.535C238.524 103.855 237.003 104.863 235.206 105.56C233.409 106.22 231.374 106.55 229.101 106.55C227.011 106.55 225.068 106.22 223.271 105.56C221.511 104.863 219.989 103.855 218.706 102.535C217.423 101.178 216.414 99.5283 215.681 97.585C214.984 95.6417 214.636 93.4233 214.636 90.93C214.636 87.5933 215.223 84.7883 216.396 82.515C217.569 80.205 219.256 78.445 221.456 77.235C223.656 76.025 226.259 75.42 229.266 75.42C232.089 75.42 234.583 76.025 236.746 77.235C238.909 78.445 240.614 80.205 241.861 82.515C243.108 84.7883 243.731 87.5933 243.731 90.93ZM222.996 90.93C222.996 92.91 223.198 94.5783 223.601 95.935C224.041 97.255 224.719 98.2633 225.636 98.96C226.553 99.62 227.744 99.95 229.211 99.95C230.678 99.95 231.851 99.62 232.731 98.96C233.648 98.2633 234.308 97.255 234.711 95.935C235.151 94.5783 235.371 92.91 235.371 90.93C235.371 88.95 235.151 87.3 234.711 85.98C234.308 84.66 233.648 83.67 232.731 83.01C231.814 82.35 230.623 82.02 229.156 82.02C226.993 82.02 225.416 82.7717 224.426 84.275C223.473 85.7417 222.996 87.96 222.996 90.93ZM269.094 75.97H278.114L266.234 90.38L279.159 106H269.864L257.599 90.765V106H249.404V75.97H257.599V90.545L269.094 75.97ZM308.562 90.93C308.562 93.4233 308.214 95.6417 307.517 97.585C306.857 99.5283 305.886 101.178 304.602 102.535C303.356 103.855 301.834 104.863 300.037 105.56C298.241 106.22 296.206 106.55 293.932 106.55C291.842 106.55 289.899 106.22 288.102 105.56C286.342 104.863 284.821 103.855 283.537 102.535C282.254 101.178 281.246 99.5283 280.512 97.585C279.816 95.6417 279.467 93.4233 279.467 90.93C279.467 87.5933 280.054 84.7883 281.227 82.515C282.401 80.205 284.087 78.445 286.287 77.235C288.487 76.025 291.091 75.42 294.097 75.42C296.921 75.42 299.414 76.025 301.577 77.235C303.741 78.445 305.446 80.205 306.692 82.515C307.939 84.7883 308.562 87.5933 308.562 90.93ZM287.827 90.93C287.827 92.91 288.029 94.5783 288.432 95.935C288.872 97.255 289.551 98.2633 290.467 98.96C291.384 99.62 292.576 99.95 294.042 99.95C295.509 99.95 296.682 99.62 297.562 98.96C298.479 98.2633 299.139 97.255 299.542 95.935C299.982 94.5783 300.202 92.91 300.202 90.93C300.202 88.95 299.982 87.3 299.542 85.98C299.139 84.66 298.479 83.67 297.562 83.01C296.646 82.35 295.454 82.02 293.987 82.02C291.824 82.02 290.247 82.7717 289.257 84.275C288.304 85.7417 287.827 87.96 287.827 90.93ZM343 63.045C342.817 64.9517 342.285 66.6383 341.405 68.105C340.525 69.535 339.15 70.6533 337.28 71.46C335.41 72.2667 332.898 72.67 329.745 72.67C326.518 72.67 323.988 72.285 322.155 71.515C320.358 70.7083 319.075 69.59 318.305 68.16C317.535 66.73 317.077 65.025 316.93 63.045H324.245C324.428 65.0617 324.942 66.4 325.785 67.06C326.628 67.72 328.003 68.05 329.91 68.05C331.487 68.05 332.77 67.7017 333.76 67.005C334.787 66.2717 335.392 64.9517 335.575 63.045H343ZM322.155 87.85C322.155 88.4733 322.118 89.2433 322.045 90.16C322.008 91.0767 321.953 92.0117 321.88 92.965C321.843 93.9183 321.788 94.7617 321.715 95.495C321.642 96.2283 321.587 96.7417 321.55 97.035L335.41 75.97H345.255V106H337.335V94.01C337.335 93.02 337.372 91.9383 337.445 90.765C337.518 89.555 337.592 88.4367 337.665 87.41C337.775 86.3467 337.848 85.54 337.885 84.99L324.08 106H314.235V75.97H322.155V87.85ZM360.915 75.97V87.52H372.355V75.97H380.55V106H372.355V93.625H360.915V106H352.72V75.97H360.915ZM400.356 75.365C404.389 75.365 407.469 76.245 409.596 78.005C411.759 79.7283 412.841 82.3867 412.841 85.98V106H407.121L405.526 101.93H405.306C404.463 102.993 403.583 103.873 402.666 104.57C401.786 105.267 400.759 105.762 399.586 106.055C398.449 106.385 397.038 106.55 395.351 106.55C393.591 106.55 391.996 106.22 390.566 105.56C389.173 104.863 388.073 103.818 387.266 102.425C386.459 100.995 386.056 99.1983 386.056 97.035C386.056 93.845 387.174 91.4983 389.411 89.995C391.648 88.455 395.003 87.6117 399.476 87.465L404.701 87.3V85.98C404.701 84.4033 404.279 83.2483 403.436 82.515C402.629 81.7817 401.493 81.415 400.026 81.415C398.559 81.415 397.129 81.635 395.736 82.075C394.343 82.4783 392.949 82.9917 391.556 83.615L388.861 78.06C390.474 77.2167 392.253 76.5567 394.196 76.08C396.176 75.6033 398.229 75.365 400.356 75.365ZM401.511 92.195C398.871 92.2683 397.038 92.745 396.011 93.625C394.984 94.505 394.471 95.66 394.471 97.09C394.471 98.3367 394.838 99.235 395.571 99.785C396.304 100.298 397.258 100.555 398.431 100.555C400.191 100.555 401.676 100.042 402.886 99.015C404.096 97.9517 404.701 96.4667 404.701 94.56V92.085L401.511 92.195ZM424.694 106H415.839L423.924 94.12C422.898 93.68 421.926 93.0933 421.009 92.36C420.129 91.59 419.414 90.6183 418.864 89.445C418.314 88.2717 418.039 86.8783 418.039 85.265C418.039 82.2583 419.176 79.9667 421.449 78.39C423.723 76.7767 426.638 75.97 430.194 75.97H444.164V106H435.969V94.835H431.459L424.694 106ZM426.069 85.32C426.069 86.5667 426.564 87.5567 427.554 88.29C428.544 88.9867 429.828 89.335 431.404 89.335H435.969V81.745H430.359C428.893 81.745 427.811 82.1117 427.114 82.845C426.418 83.5417 426.069 84.3667 426.069 85.32ZM488.823 90.93C488.823 93.4233 488.474 95.6417 487.778 97.585C487.118 99.5283 486.146 101.178 484.863 102.535C483.616 103.855 482.094 104.863 480.298 105.56C478.501 106.22 476.466 106.55 474.193 106.55C472.103 106.55 470.159 106.22 468.363 105.56C466.603 104.863 465.081 103.855 463.798 102.535C462.514 101.178 461.506 99.5283 460.773 97.585C460.076 95.6417 459.728 93.4233 459.728 90.93C459.728 87.5933 460.314 84.7883 461.488 82.515C462.661 80.205 464.348 78.445 466.548 77.235C468.748 76.025 471.351 75.42 474.358 75.42C477.181 75.42 479.674 76.025 481.838 77.235C484.001 78.445 485.706 80.205 486.953 82.515C488.199 84.7883 488.823 87.5933 488.823 90.93ZM468.088 90.93C468.088 92.91 468.289 94.5783 468.693 95.935C469.133 97.255 469.811 98.2633 470.728 98.96C471.644 99.62 472.836 99.95 474.303 99.95C475.769 99.95 476.943 99.62 477.823 98.96C478.739 98.2633 479.399 97.255 479.803 95.935C480.243 94.5783 480.463 92.91 480.463 90.93C480.463 88.95 480.243 87.3 479.803 85.98C479.399 84.66 478.739 83.67 477.823 83.01C476.906 82.35 475.714 82.02 474.248 82.02C472.084 82.02 470.508 82.7717 469.518 84.275C468.564 85.7417 468.088 87.96 468.088 90.93ZM492.68 88.015C492.68 83.5783 493.23 79.82 494.33 76.74C495.43 73.6233 497.172 71.1483 499.555 69.315C501.939 67.445 505.055 66.18 508.905 65.52C510.849 65.19 512.81 64.915 514.79 64.695C516.807 64.4383 518.879 64.1817 521.005 63.925L521.94 71.075C521.024 71.185 520.015 71.3133 518.915 71.46C517.815 71.57 516.697 71.6983 515.56 71.845C514.46 71.955 513.397 72.0833 512.37 72.23C511.344 72.3767 510.409 72.505 509.565 72.615C508.209 72.835 507.017 73.1467 505.99 73.55C504.964 73.9167 504.102 74.4483 503.405 75.145C502.709 75.8417 502.159 76.795 501.755 78.005C501.389 79.1783 501.15 80.7 501.04 82.57H501.425C501.865 81.8733 502.47 81.1767 503.24 80.48C504.047 79.7833 505.037 79.1967 506.21 78.72C507.384 78.2433 508.722 78.005 510.225 78.005C512.609 78.005 514.68 78.5 516.44 79.49C518.2 80.48 519.557 81.9467 520.51 83.89C521.464 85.8333 521.94 88.2533 521.94 91.15C521.94 94.56 521.317 97.4017 520.07 99.675C518.824 101.948 517.1 103.672 514.9 104.845C512.7 105.982 510.152 106.55 507.255 106.55C505.055 106.55 503.057 106.147 501.26 105.34C499.464 104.533 497.924 103.342 496.64 101.765C495.357 100.188 494.367 98.245 493.67 95.935C493.01 93.625 492.68 90.985 492.68 88.015ZM507.75 99.895C508.924 99.895 509.932 99.6383 510.775 99.125C511.655 98.6117 512.334 97.7683 512.81 96.595C513.324 95.4217 513.58 93.845 513.58 91.865C513.58 89.4817 513.177 87.5933 512.37 86.2C511.6 84.77 510.244 84.055 508.3 84.055C507.127 84.055 506.027 84.3483 505 84.935C504.01 85.485 503.167 86.1267 502.47 86.86C501.774 87.5567 501.297 88.1617 501.04 88.675C501.04 90.105 501.15 91.4983 501.37 92.855C501.59 94.175 501.957 95.3667 502.47 96.43C502.984 97.4933 503.662 98.3367 504.505 98.96C505.385 99.5833 506.467 99.895 507.75 99.895ZM539.819 106.55C536.849 106.55 534.319 106.018 532.229 104.955C530.139 103.855 528.544 102.168 527.444 99.895C526.344 97.6217 525.794 94.7067 525.794 91.15C525.794 87.4833 526.418 84.495 527.664 82.185C528.911 79.875 530.634 78.17 532.834 77.07C535.071 75.97 537.638 75.42 540.534 75.42C542.588 75.42 544.366 75.6217 545.869 76.025C547.409 76.4283 548.748 76.905 549.884 77.455L547.464 83.78C546.181 83.2667 544.971 82.845 543.834 82.515C542.734 82.185 541.634 82.02 540.534 82.02C539.104 82.02 537.913 82.3683 536.959 83.065C536.006 83.725 535.291 84.7333 534.814 86.09C534.374 87.41 534.154 89.0783 534.154 91.095C534.154 93.075 534.393 94.725 534.869 96.045C535.383 97.3283 536.116 98.3 537.069 98.96C538.023 99.5833 539.178 99.895 540.534 99.895C542.258 99.895 543.779 99.675 545.099 99.235C546.419 98.7583 547.703 98.1167 548.949 97.31V104.295C547.703 105.102 546.383 105.67 544.989 106C543.633 106.367 541.909 106.55 539.819 106.55ZM579.621 82.13H569.776V106H561.581V82.13H551.736V75.97H579.621V82.13ZM596.382 75.365C600.415 75.365 603.495 76.245 605.622 78.005C607.785 79.7283 608.867 82.3867 608.867 85.98V106H603.147L601.552 101.93H601.332C600.488 102.993 599.608 103.873 598.692 104.57C597.812 105.267 596.785 105.762 595.612 106.055C594.475 106.385 593.063 106.55 591.377 106.55C589.617 106.55 588.022 106.22 586.592 105.56C585.198 104.863 584.098 103.818 583.292 102.425C582.485 100.995 582.082 99.1983 582.082 97.035C582.082 93.845 583.2 91.4983 585.437 89.995C587.673 88.455 591.028 87.6117 595.502 87.465L600.727 87.3V85.98C600.727 84.4033 600.305 83.2483 599.462 82.515C598.655 81.7817 597.518 81.415 596.052 81.415C594.585 81.415 593.155 81.635 591.762 82.075C590.368 82.4783 588.975 82.9917 587.582 83.615L584.887 78.06C586.5 77.2167 588.278 76.5567 590.222 76.08C592.202 75.6033 594.255 75.365 596.382 75.365ZM597.537 92.195C594.897 92.2683 593.063 92.745 592.037 93.625C591.01 94.505 590.497 95.66 590.497 97.09C590.497 98.3367 590.863 99.235 591.597 99.785C592.33 100.298 593.283 100.555 594.457 100.555C596.217 100.555 597.702 100.042 598.912 99.015C600.122 97.9517 600.727 96.4667 600.727 94.56V92.085L597.537 92.195ZM624.35 75.97V87.52H635.79V75.97H643.985V106H635.79V93.625H624.35V106H616.155V75.97H624.35ZM678.751 90.93C678.751 93.4233 678.403 95.6417 677.706 97.585C677.046 99.5283 676.074 101.178 674.791 102.535C673.544 103.855 672.023 104.863 670.226 105.56C668.429 106.22 666.394 106.55 664.121 106.55C662.031 106.55 660.088 106.22 658.291 105.56C656.531 104.863 655.009 103.855 653.726 102.535C652.443 101.178 651.434 99.5283 650.701 97.585C650.004 95.6417 649.656 93.4233 649.656 90.93C649.656 87.5933 650.243 84.7883 651.416 82.515C652.589 80.205 654.276 78.445 656.476 77.235C658.676 76.025 661.279 75.42 664.286 75.42C667.109 75.42 669.603 76.025 671.766 77.235C673.929 78.445 675.634 80.205 676.881 82.515C678.128 84.7883 678.751 87.5933 678.751 90.93ZM658.016 90.93C658.016 92.91 658.218 94.5783 658.621 95.935C659.061 97.255 659.739 98.2633 660.656 98.96C661.573 99.62 662.764 99.95 664.231 99.95C665.698 99.95 666.871 99.62 667.751 98.96C668.668 98.2633 669.328 97.255 669.731 95.935C670.171 94.5783 670.391 92.91 670.391 90.93C670.391 88.95 670.171 87.3 669.731 85.98C669.328 84.66 668.668 83.67 667.751 83.01C666.834 82.35 665.643 82.02 664.176 82.02C662.013 82.02 660.436 82.7717 659.446 84.275C658.493 85.7417 658.016 87.96 658.016 90.93ZM711.044 83.835C711.044 85.4483 710.53 86.8233 709.504 87.96C708.514 89.0967 707.029 89.83 705.049 90.16V90.38C707.139 90.6367 708.807 91.3517 710.054 92.525C711.337 93.6983 711.979 95.2017 711.979 97.035C711.979 98.3183 711.722 99.51 711.209 100.61C710.732 101.71 709.962 102.663 708.899 103.47C707.835 104.277 706.46 104.9 704.774 105.34C703.124 105.78 701.107 106 698.724 106H684.424V75.97H698.724C701.07 75.97 703.16 76.2267 704.994 76.74C706.864 77.2167 708.33 78.0233 709.394 79.16C710.494 80.2967 711.044 81.855 711.044 83.835ZM703.509 96.595C703.509 95.4217 703.05 94.5783 702.134 94.065C701.217 93.515 699.842 93.24 698.009 93.24H692.619V100.335H698.174C699.714 100.335 700.979 100.06 701.969 99.51C702.995 98.9233 703.509 97.9517 703.509 96.595ZM702.739 84.495C702.739 83.5417 702.372 82.845 701.639 82.405C700.905 81.965 699.824 81.745 698.394 81.745H692.619V87.685H697.459C699.182 87.685 700.484 87.4467 701.364 86.97C702.28 86.4567 702.739 85.6317 702.739 84.495ZM737.604 75.97H746.624L734.744 90.38L747.669 106H738.374L726.109 90.765V106H717.914V75.97H726.109V90.545L737.604 75.97ZM763.186 75.365C767.22 75.365 770.3 76.245 772.426 78.005C774.59 79.7283 775.671 82.3867 775.671 85.98V106H769.951L768.356 101.93H768.136C767.293 102.993 766.413 103.873 765.496 104.57C764.616 105.267 763.59 105.762 762.416 106.055C761.28 106.385 759.868 106.55 758.181 106.55C756.421 106.55 754.826 106.22 753.396 105.56C752.003 104.863 750.903 103.818 750.096 102.425C749.29 100.995 748.886 99.1983 748.886 97.035C748.886 93.845 750.005 91.4983 752.241 89.995C754.478 88.455 757.833 87.6117 762.306 87.465L767.531 87.3V85.98C767.531 84.4033 767.11 83.2483 766.266 82.515C765.46 81.7817 764.323 81.415 762.856 81.415C761.39 81.415 759.96 81.635 758.566 82.075C757.173 82.4783 755.78 82.9917 754.386 83.615L751.691 78.06C753.305 77.2167 755.083 76.5567 757.026 76.08C759.006 75.6033 761.06 75.365 763.186 75.365ZM764.341 92.195C761.701 92.2683 759.868 92.745 758.841 93.625C757.815 94.505 757.301 95.66 757.301 97.09C757.301 98.3367 757.668 99.235 758.401 99.785C759.135 100.298 760.088 100.555 761.261 100.555C763.021 100.555 764.506 100.042 765.716 99.015C766.926 97.9517 767.531 96.4667 767.531 94.56V92.085L764.341 92.195Z" fill="#A0804D"/>
<path d="M166.406 157.17C166.404 159.314 166.114 161.217 165.536 162.881C164.991 164.512 164.189 165.903 163.132 167.054C162.107 168.205 160.842 169.084 159.337 169.69C157.864 170.265 156.216 170.551 154.392 170.549C152.696 170.547 151.128 170.258 149.689 169.68C148.25 169.07 147.003 168.189 145.948 167.036C144.893 165.883 144.063 164.49 143.456 162.857C142.882 161.193 142.596 159.288 142.598 157.144C142.601 154.296 143.084 151.897 144.046 149.946C145.008 147.963 146.386 146.46 148.179 145.438C149.972 144.384 152.1 143.859 154.564 143.861C156.9 143.864 158.948 144.394 160.707 145.452C162.498 146.478 163.888 147.983 164.878 149.968C165.9 151.921 166.409 154.322 166.406 157.17ZM146.966 157.149C146.964 159.165 147.218 160.925 147.729 162.43C148.271 163.903 149.102 165.039 150.221 165.841C151.34 166.642 152.764 167.043 154.492 167.045C156.22 167.047 157.644 166.648 158.765 165.85C159.886 165.051 160.703 163.916 161.217 162.444C161.762 160.941 162.036 159.181 162.038 157.165C162.041 155.117 161.77 153.373 161.228 151.932C160.685 150.492 159.855 149.387 158.735 148.618C157.648 147.816 156.225 147.415 154.465 147.413C151.841 147.41 149.936 148.272 148.75 149.999C147.564 151.726 146.97 154.109 146.966 157.149ZM189.442 147.93L181.042 147.921L181.018 170.097L176.842 170.093L176.866 147.917L168.562 147.908L168.566 144.356L189.446 144.378L189.442 147.93ZM211.205 144.401L211.181 166.577L214.925 166.581L214.912 179.061L210.832 179.057L210.841 170.129L192.937 170.11L192.928 179.038L188.896 179.034L188.909 166.554L190.973 166.556C192.447 164.509 193.666 162.287 194.628 159.888C195.623 157.457 196.361 154.929 196.844 152.306C197.359 149.65 197.634 147.011 197.669 144.387L211.205 144.401ZM201.409 147.703C201.279 149.879 200.94 152.134 200.394 154.47C199.848 156.773 199.141 158.98 198.275 161.091C197.441 163.203 196.463 165.026 195.341 166.56L207.101 166.573L207.121 147.709L201.409 147.703ZM219.004 170.137L219.031 144.409L223.255 144.414L223.244 154.974L229.916 154.981C232.156 154.983 233.996 155.257 235.435 155.803C236.875 156.348 237.946 157.165 238.649 158.254C239.351 159.311 239.702 160.655 239.7 162.287C239.699 163.887 239.345 165.279 238.64 166.462C237.967 167.646 236.894 168.556 235.421 169.195C233.98 169.833 232.076 170.151 229.708 170.149L219.004 170.137ZM229.328 166.74C231.152 166.742 232.64 166.44 233.793 165.833C234.945 165.194 235.522 164.091 235.524 162.523C235.526 160.955 234.999 159.898 233.943 159.353C232.888 158.776 231.368 158.487 229.384 158.484L223.24 158.478L223.232 166.734L229.328 166.74ZM243.964 170.164L243.991 144.436L248.215 144.44L248.188 170.168L243.964 170.164ZM261.513 157.03L252.647 144.445L257.447 144.45L264.06 154.153L270.647 144.464L275.399 144.469L266.505 157.036L275.851 170.198L271.051 170.193L264.054 159.913L256.939 170.178L252.187 170.173L261.513 157.03ZM312.348 150.988C312.346 152.588 311.865 153.836 310.904 154.731C309.943 155.626 308.71 156.232 307.206 156.551L307.206 156.743C308.806 156.969 310.197 157.546 311.38 158.475C312.563 159.373 313.154 160.781 313.152 162.701C313.15 163.789 312.941 164.797 312.524 165.725C312.139 166.652 311.531 167.451 310.698 168.123C309.865 168.794 308.793 169.321 307.48 169.703C306.168 170.054 304.584 170.228 302.728 170.226L291.64 170.214L291.667 144.486L302.707 144.498C304.531 144.5 306.163 144.71 307.602 145.127C309.074 145.513 310.225 146.186 311.056 147.147C311.919 148.076 312.35 149.356 312.348 150.988ZM308.784 162.697C308.785 161.225 308.226 160.168 307.107 159.527C305.988 158.886 304.34 158.564 302.164 158.562L295.876 158.555L295.867 166.811L302.251 166.818C304.363 166.82 305.98 166.518 307.1 165.911C308.221 165.272 308.782 164.201 308.784 162.697ZM308.075 151.512C308.077 150.296 307.63 149.415 306.734 148.87C305.871 148.293 304.447 148.004 302.463 148.002L295.887 147.995L295.88 155.051L301.688 155.057C303.768 155.059 305.352 154.773 306.441 154.198C307.529 153.623 308.074 152.728 308.075 151.512ZM340.445 170.746C338.173 170.744 336.142 170.278 334.351 169.348C332.592 168.418 331.201 166.976 330.179 165.023C329.189 163.07 328.696 160.574 328.699 157.534C328.703 154.366 329.233 151.79 330.291 149.807C331.35 147.824 332.775 146.37 334.568 145.444C336.393 144.518 338.458 144.056 340.762 144.058C342.074 144.06 343.337 144.205 344.553 144.494C345.769 144.752 346.761 145.073 347.528 145.458L346.228 148.96C345.461 148.671 344.565 148.398 343.541 148.141C342.518 147.884 341.558 147.755 340.662 147.754C338.934 147.752 337.509 148.119 336.389 148.854C335.268 149.589 334.435 150.676 333.889 152.115C333.344 153.555 333.07 155.346 333.067 157.49C333.065 159.538 333.335 161.283 333.878 162.723C334.42 164.164 335.235 165.253 336.322 165.99C337.41 166.727 338.769 167.096 340.401 167.098C341.809 167.1 343.041 166.957 344.098 166.67C345.186 166.383 346.178 166.032 347.075 165.617L347.071 169.361C346.206 169.808 345.246 170.143 344.19 170.366C343.165 170.621 341.917 170.748 340.445 170.746ZM362.192 144.081C364.4 144.083 366.288 144.565 367.855 145.527C369.454 146.489 370.668 147.85 371.498 149.611C372.36 151.34 372.79 153.372 372.788 155.708L372.785 158.252L355.169 158.234C355.23 161.146 355.964 163.371 357.37 164.908C358.808 166.414 360.808 167.168 363.368 167.17C365 167.172 366.44 167.03 367.688 166.743C368.968 166.424 370.281 165.978 371.625 165.403L371.622 169.099C370.309 169.674 369.013 170.088 367.732 170.343C366.452 170.63 364.932 170.772 363.172 170.77C360.74 170.768 358.58 170.269 356.693 169.275C354.838 168.281 353.384 166.808 352.33 164.855C351.308 162.87 350.799 160.453 350.802 157.605C350.805 154.789 351.271 152.374 352.201 150.359C353.164 148.344 354.493 146.793 356.19 145.707C357.919 144.621 359.92 144.079 362.192 144.081ZM362.14 147.537C360.124 147.535 358.524 148.189 357.338 149.5C356.185 150.779 355.495 152.57 355.269 154.874L368.373 154.888C368.374 153.416 368.152 152.135 367.705 151.047C367.258 149.958 366.571 149.11 365.643 148.501C364.748 147.86 363.58 147.539 362.14 147.537ZM397.946 170.327L393.674 170.322L393.698 148.098L386.114 148.09C385.789 152.154 385.386 155.626 384.903 158.505C384.42 161.353 383.809 163.672 383.071 165.463C382.333 167.254 381.452 168.566 380.427 169.396C379.402 170.227 378.202 170.642 376.826 170.641C376.41 170.64 375.994 170.608 375.578 170.543C375.194 170.511 374.874 170.431 374.618 170.302L374.621 167.134C374.813 167.198 375.021 167.247 375.245 167.279C375.469 167.311 375.693 167.327 375.917 167.328C376.621 167.328 377.262 167.041 377.838 166.466C378.415 165.89 378.928 165.011 379.377 163.827C379.858 162.644 380.292 161.156 380.678 159.365C381.064 157.541 381.402 155.397 381.692 152.934C381.983 150.47 382.242 147.686 382.469 144.583L397.973 144.599L397.946 170.327ZM417.024 155.179C419.264 155.182 421.12 155.456 422.591 156.001C424.063 156.547 425.166 157.364 425.901 158.453C426.668 159.509 427.05 160.854 427.048 162.486C427.047 164.086 426.677 165.477 425.94 166.661C425.235 167.844 424.13 168.755 422.625 169.393C421.12 170.032 419.184 170.349 416.816 170.347L405.152 170.335L405.179 144.607L409.403 144.611L409.392 155.171L417.024 155.179ZM422.824 162.721C422.826 161.153 422.267 160.097 421.147 159.552C420.06 158.974 418.524 158.685 416.54 158.683L409.388 158.675L409.38 166.931L416.628 166.939C418.42 166.941 419.892 166.622 421.045 165.983C422.229 165.345 422.822 164.257 422.824 162.721ZM443.012 170.855C440.74 170.852 438.708 170.386 436.917 169.456C435.158 168.526 433.768 167.085 432.746 165.132C431.756 163.179 431.262 160.682 431.266 157.642C431.269 154.474 431.8 151.899 432.858 149.916C433.916 147.933 435.341 146.479 437.134 145.552C438.959 144.626 441.024 144.165 443.328 144.167C444.64 144.168 445.904 144.314 447.119 144.603C448.335 144.86 449.327 145.181 450.094 145.566L448.795 149.069C448.027 148.78 447.131 148.507 446.107 148.25C445.084 147.993 444.124 147.864 443.228 147.863C441.5 147.861 440.075 148.228 438.955 148.962C437.834 149.697 437.001 150.784 436.455 152.224C435.91 153.663 435.636 155.455 435.634 157.599C435.631 159.647 435.902 161.391 436.444 162.832C436.986 164.272 437.801 165.361 438.889 166.098C439.976 166.836 441.335 167.205 442.967 167.207C444.375 167.208 445.608 167.065 446.664 166.779C447.752 166.492 448.745 166.141 449.641 165.726L449.637 169.47C448.773 169.917 447.812 170.252 446.756 170.475C445.732 170.73 444.484 170.856 443.012 170.855ZM470.038 144.675L474.646 144.68L463.641 157.053L475.53 170.409L470.634 170.404L459.032 157.336L459.018 170.392L454.794 170.387L454.822 144.659L459.046 144.664L459.033 157.144L470.038 144.675ZM500.685 157.524C500.683 159.668 500.393 161.572 499.815 163.235C499.269 164.866 498.468 166.257 497.41 167.408C496.385 168.559 495.12 169.438 493.616 170.044C492.143 170.619 490.495 170.905 488.671 170.903C486.975 170.901 485.407 170.612 483.968 170.034C482.528 169.425 481.281 168.543 480.226 167.39C479.172 166.237 478.341 164.844 477.735 163.212C477.161 161.547 476.875 159.643 476.877 157.499C476.88 154.651 477.362 152.251 478.325 150.3C479.287 148.317 480.664 146.815 482.457 145.793C484.25 144.738 486.379 144.213 488.843 144.215C491.179 144.218 493.226 144.748 494.985 145.806C496.776 146.832 498.167 148.337 499.157 150.322C500.178 152.275 500.688 154.676 500.685 157.524ZM481.245 157.503C481.243 159.519 481.497 161.28 482.007 162.784C482.55 164.257 483.381 165.394 484.5 166.195C485.619 166.996 487.042 167.397 488.77 167.399C490.498 167.401 491.923 167.003 493.044 166.204C494.165 165.405 494.982 164.27 495.495 162.798C496.041 161.295 496.315 159.535 496.317 157.519C496.319 155.471 496.049 153.727 495.506 152.286C494.964 150.846 494.133 149.741 493.014 148.972C491.927 148.171 490.503 147.769 488.743 147.767C486.119 147.764 484.214 148.626 483.028 150.353C481.843 152.08 481.248 154.463 481.245 157.503ZM527.276 134.08C527.147 135.68 526.745 137.023 526.072 138.111C525.431 139.198 524.47 140.013 523.189 140.556C521.909 141.098 520.245 141.369 518.197 141.366C516.117 141.364 514.437 141.09 513.157 140.545C511.91 140 510.999 139.199 510.424 138.142C509.849 137.054 509.499 135.693 509.372 134.061L513.308 134.065C513.466 135.793 513.913 136.962 514.649 137.571C515.416 138.147 516.632 138.437 518.296 138.438C519.768 138.44 520.92 138.137 521.753 137.53C522.617 136.891 523.131 135.74 523.292 134.076L527.276 134.08ZM510.4 160.414C510.4 160.702 510.384 161.118 510.351 161.662C510.35 162.174 510.334 162.734 510.301 163.342C510.269 163.918 510.236 164.478 510.203 165.022C510.171 165.534 510.138 165.95 510.106 166.27L523.905 144.732L529.089 144.738L529.062 170.466L525.126 170.462L525.142 155.294C525.142 154.782 525.143 154.11 525.144 153.278C525.177 152.446 525.21 151.63 525.243 150.83C525.275 149.998 525.308 149.374 525.341 148.958L511.638 170.447L506.406 170.442L506.433 144.714L510.417 144.718L510.4 160.414ZM575.707 144.787L575.679 170.515L571.887 170.511L571.905 154.095C571.906 153.423 571.922 152.719 571.955 151.983C572.02 151.247 572.085 150.527 572.149 149.824L572.005 149.823L563.583 170.502L560.031 170.499L551.893 149.802L551.749 149.802C551.813 150.506 551.844 151.226 551.843 151.962C551.874 152.698 551.89 153.45 551.889 154.218L551.871 170.49L548.079 170.486L548.107 144.758L553.723 144.764L561.813 165.461L570.091 144.781L575.707 144.787ZM592.896 144.326C595.104 144.328 596.991 144.81 598.558 145.772C600.157 146.733 601.372 148.094 602.202 149.855C603.064 151.584 603.494 153.617 603.491 155.953L603.489 158.497L585.873 158.478C585.934 161.39 586.667 163.615 588.074 165.152C589.512 166.658 591.511 167.412 594.071 167.415C595.703 167.416 597.143 167.274 598.392 166.987C599.672 166.669 600.985 166.222 602.329 165.648L602.325 169.344C601.013 169.918 599.716 170.333 598.436 170.587C597.156 170.874 595.635 171.016 593.875 171.015C591.443 171.012 589.284 170.514 587.397 169.52C585.542 168.526 584.088 167.052 583.034 165.099C582.012 163.114 581.502 160.697 581.505 157.849C581.508 155.033 581.975 152.618 582.905 150.603C583.867 148.588 585.197 147.037 586.894 145.951C588.623 144.865 590.624 144.323 592.896 144.326ZM592.844 147.781C590.828 147.779 589.227 148.434 588.042 149.744C586.889 151.023 586.199 152.814 585.972 155.118L599.076 155.132C599.078 153.66 598.855 152.38 598.408 151.291C597.961 150.203 597.274 149.354 596.347 148.745C595.452 148.104 594.284 147.783 592.844 147.781ZM619.385 171.042C617.113 171.039 615.082 170.573 613.291 169.643C611.532 168.713 610.141 167.272 609.119 165.319C608.129 163.366 607.636 160.869 607.639 157.829C607.643 154.661 608.173 152.086 609.231 150.103C610.289 148.12 611.715 146.665 613.508 145.739C615.333 144.813 617.397 144.351 619.701 144.354C621.013 144.355 622.277 144.501 623.493 144.79C624.709 145.047 625.7 145.368 626.468 145.753L625.168 149.256C624.401 148.967 623.505 148.694 622.481 148.437C621.457 148.18 620.498 148.051 619.602 148.05C617.874 148.048 616.449 148.414 615.328 149.149C614.208 149.884 613.374 150.971 612.829 152.411C612.283 153.85 612.009 155.642 612.007 157.786C612.005 159.834 612.275 161.578 612.818 163.019C613.36 164.459 614.175 165.548 615.262 166.285C616.349 167.022 617.709 167.392 619.341 167.394C620.749 167.395 621.981 167.252 623.037 166.965C624.126 166.679 625.118 166.328 626.015 165.913L626.011 169.657C625.146 170.104 624.186 170.439 623.13 170.662C622.105 170.916 620.857 171.043 619.385 171.042ZM648.952 148.417L640.552 148.408L640.528 170.584L636.352 170.58L636.376 148.404L628.072 148.395L628.075 144.843L648.955 144.865L648.952 148.417ZM657.288 144.874L657.276 155.578L671.244 155.593L671.256 144.889L675.48 144.893L675.452 170.621L671.228 170.617L671.24 159.145L657.272 159.13L657.26 170.602L653.036 170.597L653.064 144.869L657.288 144.874ZM705.02 157.74C705.018 159.884 704.728 161.788 704.15 163.451C703.605 165.083 702.803 166.474 701.746 167.625C700.721 168.776 699.456 169.654 697.951 170.261C696.479 170.835 694.83 171.122 693.006 171.12C691.31 171.118 689.743 170.828 688.303 170.251C686.864 169.641 685.617 168.76 684.562 167.607C683.507 166.454 682.677 165.061 682.07 163.428C681.496 161.763 681.21 159.859 681.212 157.715C681.215 154.867 681.698 152.468 682.66 150.517C683.622 148.534 685 147.031 686.793 146.009C688.586 144.955 690.715 144.429 693.179 144.432C695.515 144.434 697.562 144.964 699.321 146.022C701.112 147.048 702.502 148.554 703.492 150.539C704.514 152.492 705.023 154.892 705.02 157.74ZM685.58 157.72C685.578 159.736 685.832 161.496 686.343 163.001C686.885 164.473 687.716 165.61 688.835 166.411C689.954 167.212 691.378 167.614 693.106 167.616C694.834 167.618 696.258 167.219 697.379 166.42C698.5 165.621 699.317 164.486 699.831 163.015C700.376 161.511 700.65 159.752 700.652 157.736C700.655 155.688 700.384 153.943 699.842 152.503C699.3 151.062 698.469 149.957 697.349 149.188C696.262 148.387 694.839 147.985 693.079 147.984C690.455 147.981 688.55 148.843 687.364 150.57C686.178 152.296 685.584 154.68 685.58 157.72ZM721.061 171.149C718.789 171.147 716.757 170.681 714.966 169.751C713.207 168.821 711.817 167.379 710.795 165.426C709.805 163.473 709.311 160.977 709.315 157.937C709.318 154.769 709.849 152.193 710.907 150.211C711.965 148.228 713.391 146.773 715.184 145.847C717.008 144.921 719.073 144.459 721.377 144.462C722.689 144.463 723.953 144.608 725.169 144.898C726.384 145.155 727.376 145.476 728.144 145.861L726.844 149.363C726.076 149.075 725.18 148.802 724.157 148.545C723.133 148.287 722.173 148.158 721.277 148.158C719.549 148.156 718.125 148.522 717.004 149.257C715.883 149.992 715.05 151.079 714.504 152.518C713.959 153.958 713.685 155.749 713.683 157.893C713.681 159.941 713.951 161.686 714.493 163.126C715.036 164.567 715.851 165.656 716.938 166.393C718.025 167.13 719.385 167.5 721.017 167.501C722.425 167.503 723.657 167.36 724.713 167.073C725.801 166.786 726.794 166.435 727.69 166.02L727.686 169.764C726.822 170.211 725.861 170.546 724.805 170.769C723.781 171.024 722.533 171.151 721.061 171.149ZM750.627 148.525L742.227 148.516L742.204 170.692L738.028 170.687L738.051 148.511L729.747 148.502L729.751 144.95L750.631 144.973L750.627 148.525ZM758.706 160.677C758.706 160.965 758.69 161.381 758.657 161.925C758.657 162.437 758.64 162.997 758.607 163.605C758.575 164.181 758.542 164.741 758.51 165.285C758.477 165.797 758.445 166.213 758.412 166.533L772.211 144.995L777.395 145.001L777.368 170.729L773.432 170.725L773.448 155.557C773.448 155.045 773.449 154.373 773.45 153.541C773.483 152.709 773.516 151.893 773.549 151.093C773.582 150.261 773.614 149.637 773.647 149.221L759.944 170.71L754.712 170.705L754.739 144.977L758.723 144.981L758.706 160.677ZM217.388 184.408L217.361 210.136L213.137 210.131L213.16 188.003L199.864 187.989L199.841 210.117L195.617 210.113L195.644 184.385L217.388 184.408ZM246.992 197.255C246.989 199.399 246.699 201.303 246.122 202.966C245.576 204.598 244.774 205.989 243.717 207.14C242.692 208.291 241.427 209.169 239.922 209.776C238.45 210.35 236.802 210.636 234.978 210.634C233.282 210.633 231.714 210.343 230.274 209.765C228.835 209.156 227.588 208.275 226.533 207.121C225.478 205.968 224.648 204.575 224.042 202.943C223.467 201.278 223.181 199.374 223.184 197.23C223.187 194.382 223.669 191.982 224.631 190.031C225.593 188.048 226.971 186.546 228.764 185.524C230.557 184.47 232.686 183.944 235.15 183.947C237.486 183.949 239.533 184.479 241.292 185.537C243.083 186.563 244.473 188.068 245.463 190.053C246.485 192.007 246.995 194.407 246.992 197.255ZM227.552 197.235C227.55 199.251 227.804 201.011 228.314 202.515C228.857 203.988 229.687 205.125 230.807 205.926C231.926 206.727 233.349 207.129 235.077 207.13C236.805 207.132 238.23 206.734 239.351 205.935C240.471 205.136 241.289 204.001 241.802 202.53C242.348 201.026 242.622 199.266 242.624 197.25C242.626 195.202 242.356 193.458 241.813 192.018C241.271 190.577 240.44 189.472 239.321 188.703C238.234 187.902 236.81 187.5 235.05 187.498C232.426 187.496 230.521 188.358 229.335 190.084C228.149 191.811 227.555 194.195 227.552 197.235ZM259.508 183.972C261.46 183.974 263.156 184.248 264.595 184.794C266.035 185.307 267.154 186.076 267.953 187.101C268.752 188.094 269.151 189.311 269.149 190.751C269.147 192.319 268.714 193.566 267.849 194.493C266.984 195.388 265.8 196.043 264.295 196.457L264.295 196.649C265.319 196.939 266.262 197.34 267.126 197.852C267.989 198.365 268.676 199.038 269.187 199.871C269.731 200.703 270.001 201.775 270 203.087C269.999 204.495 269.597 205.775 268.796 206.926C268.027 208.077 266.826 208.988 265.193 209.658C263.592 210.329 261.528 210.663 259 210.66C257.784 210.659 256.616 210.593 255.496 210.464C254.408 210.335 253.417 210.142 252.521 209.885C251.657 209.628 250.889 209.323 250.218 208.971L250.222 205.179C251.309 205.692 252.589 206.157 254.06 206.575C255.564 206.992 257.196 207.202 258.956 207.204C260.236 207.205 261.388 207.062 262.412 206.775C263.468 206.489 264.301 206.041 264.91 205.434C265.518 204.795 265.823 203.931 265.824 202.843C265.825 201.851 265.554 201.051 265.011 200.442C264.468 199.802 263.652 199.321 262.564 199C261.509 198.678 260.149 198.517 258.485 198.515L255.029 198.512L255.033 195.056L257.817 195.059C260.025 195.061 261.785 194.775 263.097 194.2C264.442 193.594 265.115 192.57 265.117 191.13C265.118 189.914 264.607 189.002 263.584 188.393C262.592 187.784 261.153 187.478 259.265 187.476C257.857 187.475 256.608 187.617 255.52 187.904C254.464 188.159 253.295 188.558 252.015 189.1L250.53 185.739C251.907 185.132 253.348 184.686 254.852 184.399C256.356 184.113 257.908 183.971 259.508 183.972ZM295.992 190.971C295.99 192.571 295.509 193.818 294.548 194.713C293.587 195.608 292.355 196.215 290.85 196.534L290.85 196.726C292.45 196.951 293.841 197.529 295.024 198.458C296.207 199.355 296.798 200.764 296.796 202.684C296.795 203.772 296.586 204.78 296.169 205.707C295.784 206.635 295.175 207.434 294.342 208.105C293.509 208.776 292.437 209.303 291.124 209.686C289.812 210.036 288.228 210.211 286.372 210.209L275.284 210.197L275.311 184.469L286.351 184.481C288.175 184.483 289.807 184.692 291.246 185.11C292.718 185.496 293.869 186.169 294.7 187.13C295.563 188.059 295.994 189.339 295.992 190.971ZM292.428 202.679C292.429 201.207 291.87 200.151 290.751 199.509C289.632 198.868 287.984 198.547 285.808 198.544L279.52 198.538L279.511 206.794L285.895 206.8C288.007 206.803 289.624 206.5 290.744 205.893C291.865 205.255 292.426 204.183 292.428 202.679ZM291.72 191.494C291.721 190.278 291.274 189.398 290.378 188.853C289.515 188.276 288.091 187.987 286.107 187.985L279.531 187.978L279.524 195.034L285.332 195.04C287.412 195.042 288.996 194.756 290.085 194.181C291.173 193.606 291.718 192.71 291.72 191.494ZM324.362 197.337C324.359 199.481 324.069 201.385 323.492 203.048C322.946 204.68 322.144 206.071 321.087 207.222C320.062 208.373 318.797 209.251 317.292 209.858C315.82 210.432 314.172 210.718 312.348 210.716C310.652 210.715 309.084 210.425 307.644 209.847C306.205 209.238 304.958 208.357 303.903 207.203C302.848 206.05 302.018 204.657 301.412 203.025C300.837 201.36 300.551 199.456 300.554 197.312C300.557 194.464 301.039 192.064 302.001 190.113C302.963 188.13 304.341 186.628 306.134 185.606C307.927 184.552 310.056 184.026 312.52 184.029C314.856 184.031 316.903 184.561 318.662 185.619C320.453 186.645 321.843 188.15 322.833 190.135C323.855 192.089 324.365 194.489 324.362 197.337ZM304.922 197.316C304.92 199.332 305.174 201.093 305.684 202.597C306.227 204.07 307.057 205.207 308.176 206.008C309.296 206.809 310.719 207.211 312.447 207.212C314.175 207.214 315.6 206.816 316.72 206.017C317.841 205.218 318.659 204.083 319.172 202.612C319.718 201.108 319.992 199.348 319.994 197.332C319.996 195.284 319.726 193.54 319.183 192.1C318.641 190.659 317.81 189.554 316.691 188.785C315.604 187.984 314.18 187.582 312.42 187.58C309.796 187.578 307.891 188.44 306.705 190.166C305.519 191.893 304.925 194.276 304.922 197.316ZM349.666 210.276L345.394 210.271L345.418 188.047L337.834 188.039C337.51 192.103 337.106 195.575 336.623 198.454C336.14 201.302 335.53 203.621 334.792 205.412C334.054 207.203 333.172 208.514 332.147 209.345C331.123 210.176 329.922 210.591 328.546 210.59C328.13 210.589 327.714 210.557 327.298 210.492C326.914 210.46 326.594 210.379 326.339 210.251L326.342 207.083C326.534 207.147 326.742 207.196 326.966 207.228C327.19 207.26 327.414 207.276 327.638 207.277C328.342 207.277 328.982 206.99 329.559 206.415C330.135 205.839 330.648 204.96 331.097 203.776C331.579 202.593 332.012 201.105 332.398 199.314C332.784 197.49 333.122 195.346 333.413 192.883C333.704 190.419 333.962 187.635 334.19 184.531L349.694 184.548L349.666 210.276ZM358.457 210.285L353.561 210.28L360.916 199.488C359.924 199.231 358.965 198.83 358.037 198.285C357.11 197.708 356.359 196.923 355.784 195.93C355.209 194.906 354.922 193.641 354.924 192.137C354.926 189.673 355.76 187.802 357.426 186.524C359.091 185.214 361.3 184.56 364.052 184.563L375.572 184.575L375.544 210.303L371.321 210.299L371.331 200.075L365.091 200.068L358.457 210.285ZM359.004 192.19C359.002 193.662 359.545 194.766 360.632 195.503C361.751 196.209 363.303 196.562 365.287 196.564L371.335 196.571L371.344 188.075L364.48 188.068C362.528 188.065 361.12 188.448 360.255 189.215C359.422 189.982 359.005 190.974 359.004 192.19ZM392.689 184.113C394.897 184.116 396.784 184.598 398.351 185.559C399.95 186.521 401.165 187.882 401.995 189.643C402.857 191.372 403.287 193.405 403.284 195.741L403.282 198.285L385.666 198.266C385.727 201.178 386.46 203.403 387.867 204.94C389.305 206.446 391.304 207.2 393.864 207.203C395.496 207.204 396.936 207.062 398.185 206.775C399.465 206.457 400.778 206.01 402.122 205.435L402.118 209.131C400.806 209.706 399.509 210.121 398.229 210.375C396.949 210.662 395.428 210.804 393.668 210.802C391.236 210.8 389.077 210.302 387.19 209.308C385.335 208.314 383.881 206.84 382.827 204.887C381.805 202.902 381.295 200.485 381.298 197.637C381.301 194.821 381.768 192.406 382.698 190.391C383.66 188.376 384.99 186.825 386.687 185.739C388.416 184.653 390.417 184.111 392.689 184.113ZM392.637 187.569C390.621 187.567 389.02 188.222 387.835 189.532C386.682 190.811 385.992 192.602 385.765 194.906L398.869 194.92C398.871 193.448 398.648 192.168 398.201 191.079C397.755 189.991 397.067 189.142 396.14 188.533C395.245 187.892 394.077 187.571 392.637 187.569ZM426.642 188.181L418.242 188.173L418.219 210.348L414.043 210.344L414.066 188.168L405.762 188.159L405.766 184.607L426.646 184.629L426.642 188.181ZM464.898 197.486C464.896 199.63 464.606 201.534 464.028 203.197C463.483 204.828 462.681 206.22 461.624 207.37C460.599 208.521 459.334 209.4 457.829 210.006C456.357 210.581 454.708 210.867 452.884 210.865C451.188 210.863 449.621 210.574 448.181 209.996C446.742 209.387 445.495 208.505 444.44 207.352C443.385 206.199 442.555 204.806 441.948 203.174C441.374 201.509 441.088 199.605 441.09 197.461C441.094 194.613 441.576 192.213 442.538 190.262C443.5 188.279 444.878 186.777 446.671 185.755C448.464 184.701 450.593 184.175 453.057 184.177C455.393 184.18 457.44 184.71 459.199 185.768C460.99 186.794 462.38 188.299 463.37 190.284C464.392 192.237 464.901 194.638 464.898 197.486ZM445.458 197.465C445.456 199.481 445.71 201.242 446.221 202.746C446.763 204.219 447.594 205.356 448.713 206.157C449.832 206.958 451.256 207.359 452.984 207.361C454.712 207.363 456.136 206.965 457.257 206.166C458.378 205.367 459.195 204.232 459.709 202.76C460.254 201.257 460.528 199.497 460.53 197.481C460.533 195.433 460.262 193.689 459.72 192.248C459.178 190.808 458.347 189.703 457.228 188.934C456.14 188.133 454.717 187.731 452.957 187.729C450.333 187.727 448.428 188.588 447.242 190.315C446.056 192.042 445.462 194.425 445.458 197.465ZM487.934 188.246L479.534 188.237L479.511 210.413L475.335 210.409L475.358 188.233L467.054 188.224L467.058 184.672L487.938 184.694L487.934 188.246ZM509.697 184.717L509.673 206.893L513.417 206.897L513.404 219.377L509.324 219.373L509.334 210.445L491.43 210.426L491.42 219.354L487.388 219.35L487.401 206.87L489.465 206.872C490.939 204.826 492.158 202.603 493.12 200.204C494.115 197.773 494.854 195.246 495.336 192.622C495.851 189.967 496.126 187.327 496.161 184.703L509.697 184.717ZM499.901 188.019C499.771 190.195 499.433 192.451 498.886 194.786C498.34 197.089 497.633 199.297 496.767 201.408C495.933 203.519 494.955 205.342 493.833 206.877L505.593 206.889L505.613 188.025L499.901 188.019ZM539.878 197.565C539.876 199.709 539.586 201.613 539.008 203.276C538.462 204.908 537.661 206.299 536.603 207.45C535.578 208.601 534.313 209.479 532.809 210.086C531.336 210.66 529.688 210.947 527.864 210.945C526.168 210.943 524.6 210.653 523.161 210.076C521.721 209.466 520.474 208.585 519.419 207.432C518.365 206.279 517.534 204.886 516.928 203.253C516.354 201.588 516.068 199.684 516.07 197.54C516.073 194.692 516.555 192.293 517.517 190.342C518.48 188.359 519.857 186.856 521.65 185.834C523.443 184.78 525.572 184.254 528.036 184.257C530.372 184.259 532.419 184.789 534.178 185.847C535.969 186.873 537.36 188.379 538.349 190.364C539.371 192.317 539.881 194.717 539.878 197.565ZM520.438 197.545C520.436 199.561 520.69 201.321 521.2 202.826C521.743 204.298 522.573 205.435 523.693 206.236C524.812 207.037 526.235 207.439 527.963 207.441C529.691 207.443 531.116 207.044 532.237 206.245C533.357 205.446 534.175 204.311 534.688 202.84C535.234 201.336 535.508 199.577 535.51 197.561C535.512 195.513 535.242 193.768 534.699 192.328C534.157 190.887 533.326 189.782 532.207 189.013C531.12 188.212 529.696 187.811 527.936 187.809C525.312 187.806 523.407 188.668 522.221 190.395C521.036 192.121 520.441 194.505 520.438 197.545ZM550.771 197.337L541.904 184.752L546.704 184.757L553.318 194.46L559.904 184.771L564.656 184.776L555.763 197.342L565.109 210.504L560.309 210.499L553.312 200.22L546.197 210.484L541.445 210.479L550.771 197.337ZM573.359 184.785L573.347 195.489L587.315 195.504L587.327 184.8L591.551 184.804L591.523 210.532L587.299 210.528L587.312 199.056L573.344 199.041L573.331 210.513L569.107 210.508L569.135 184.78L573.359 184.785ZM594.705 184.807L599.217 184.812L604.77 199.458C605.089 200.322 605.376 201.155 605.631 201.955C605.918 202.755 606.173 203.54 606.396 204.308C606.62 205.044 606.795 205.764 606.922 206.468L607.114 206.469C607.307 205.669 607.612 204.629 608.029 203.35C608.447 202.038 608.88 200.726 609.33 199.415L614.577 184.828L619.137 184.833L608.018 214.102C607.408 215.701 606.687 217.092 605.854 218.275C605.052 219.49 604.059 220.417 602.875 221.056C601.722 221.727 600.314 222.061 598.65 222.06C597.882 222.059 597.21 222.01 596.634 221.914C596.058 221.849 595.562 221.768 595.146 221.672L595.15 218.312C595.502 218.376 595.918 218.441 596.397 218.505C596.909 218.57 597.437 218.602 597.981 218.603C598.973 218.604 599.822 218.413 600.526 218.03C601.262 217.678 601.887 217.151 602.4 216.448C602.912 215.776 603.345 214.977 603.698 214.049L605.046 210.642L594.705 184.807ZM640.002 188.407L631.602 188.399L631.579 210.575L627.403 210.57L627.426 188.394L619.122 188.385L619.126 184.833L640.006 184.855L640.002 188.407ZM655.959 195.432C658.199 195.435 660.054 195.709 661.526 196.254C662.997 196.8 664.1 197.617 664.835 198.706C665.602 199.763 665.985 201.107 665.983 202.739C665.981 204.339 665.612 205.731 664.875 206.914C664.169 208.097 663.064 209.008 661.56 209.646C660.055 210.285 658.119 210.603 655.751 210.6L644.087 210.588L644.114 184.86L648.338 184.864L648.327 195.424L655.959 195.432ZM661.759 202.974C661.76 201.406 661.202 200.35 660.082 199.805C658.995 199.228 657.459 198.938 655.475 198.936L648.323 198.928L648.314 207.184L655.562 207.192C657.354 207.194 658.827 206.875 659.979 206.237C661.164 205.598 661.757 204.51 661.759 202.974ZM705.798 197.741C705.796 199.885 705.506 201.789 704.928 203.452C704.383 205.084 703.581 206.475 702.524 207.626C701.499 208.777 700.234 209.655 698.729 210.262C697.256 210.836 695.608 211.122 693.784 211.12C692.088 211.119 690.52 210.829 689.081 210.251C687.642 209.642 686.395 208.761 685.34 207.607C684.285 206.454 683.455 205.061 682.848 203.429C682.274 201.764 681.988 199.86 681.99 197.716C681.993 194.868 682.476 192.468 683.438 190.517C684.4 188.534 685.778 187.032 687.571 186.01C689.364 184.956 691.492 184.43 693.956 184.433C696.292 184.435 698.34 184.965 700.099 186.023C701.89 187.049 703.28 188.554 704.27 190.54C705.292 192.493 705.801 194.893 705.798 197.741ZM686.358 197.721C686.356 199.737 686.61 201.497 687.121 203.001C687.663 204.474 688.494 205.611 689.613 206.412C690.732 207.213 692.156 207.615 693.884 207.617C695.612 207.618 697.036 207.22 698.157 206.421C699.278 205.622 700.095 204.487 700.609 203.016C701.154 201.512 701.428 199.753 701.43 197.737C701.432 195.689 701.162 193.944 700.62 192.504C700.077 191.063 699.247 189.958 698.127 189.189C697.04 188.388 695.617 187.986 693.857 187.984C691.233 187.982 689.328 188.844 688.142 190.57C686.956 192.297 686.362 194.681 686.358 197.721ZM728.834 188.502L720.434 188.493L720.41 210.669L716.234 210.664L716.258 188.488L707.954 188.479L707.958 184.927L728.838 184.95L728.834 188.502ZM197.879 224.387L197.876 227.939L186.404 227.927L186.38 250.103L182.156 250.098L182.183 224.37L197.879 224.387ZM223.875 237.231C223.872 239.375 223.582 241.278 223.005 242.942C222.459 244.573 221.657 245.964 220.6 247.115C219.575 248.266 218.31 249.145 216.805 249.751C215.333 250.326 213.685 250.612 211.861 250.61C210.165 250.608 208.597 250.318 207.157 249.741C205.718 249.131 204.471 248.25 203.416 247.097C202.361 245.944 201.531 244.551 200.925 242.918C200.35 241.254 200.064 239.349 200.067 237.205C200.07 234.357 200.552 231.958 201.514 230.007C202.476 228.024 203.854 226.521 205.647 225.499C207.44 224.445 209.569 223.919 212.033 223.922C214.369 223.925 216.416 224.455 218.175 225.513C219.966 226.538 221.356 228.044 222.346 230.029C223.368 231.982 223.878 234.383 223.875 237.231ZM204.435 237.21C204.433 239.226 204.687 240.986 205.197 242.491C205.74 243.963 206.57 245.1 207.689 245.901C208.809 246.703 210.232 247.104 211.96 247.106C213.688 247.108 215.113 246.709 216.233 245.911C217.354 245.112 218.172 243.977 218.685 242.505C219.231 241.002 219.505 239.242 219.507 237.226C219.509 235.178 219.239 233.434 218.696 231.993C218.154 230.553 217.323 229.448 216.204 228.679C215.117 227.877 213.693 227.476 211.933 227.474C209.309 227.471 207.404 228.333 206.218 230.06C205.032 231.787 204.438 234.17 204.435 237.21ZM241.863 223.954C245.031 223.957 247.574 225.064 249.492 227.274C251.441 229.484 252.414 232.813 252.409 237.261C252.406 240.173 251.955 242.636 251.057 244.651C250.191 246.635 248.958 248.137 247.357 249.16C245.788 250.15 243.931 250.644 241.787 250.642C240.475 250.64 239.307 250.463 238.284 250.11C237.26 249.757 236.38 249.308 235.645 248.763C234.942 248.186 234.334 247.562 233.823 246.889L233.535 246.889C233.598 247.433 233.662 248.121 233.725 248.953C233.788 249.785 233.819 250.505 233.818 251.113L233.807 261.673L229.583 261.669L229.623 224.421L233.079 224.424L233.651 227.929L233.843 227.929C234.356 227.194 234.965 226.522 235.669 225.915C236.406 225.308 237.27 224.829 238.263 224.478C239.287 224.127 240.487 223.952 241.863 223.954ZM241.092 227.505C239.364 227.503 237.971 227.838 236.914 228.508C235.858 229.147 235.089 230.123 234.607 231.434C234.126 232.745 233.868 234.409 233.834 236.425L233.833 237.241C233.831 239.353 234.053 241.145 234.499 242.618C234.946 244.09 235.697 245.211 236.752 245.98C237.839 246.749 239.311 247.135 241.167 247.137C242.735 247.139 244.015 246.708 245.008 245.845C246.033 244.982 246.786 243.815 247.268 242.343C247.781 240.84 248.039 239.128 248.041 237.208C248.044 234.264 247.471 231.912 246.321 230.15C245.203 228.389 243.46 227.507 241.092 227.505ZM280.548 237.291C280.546 239.435 280.256 241.338 279.678 243.002C279.133 244.633 278.331 246.024 277.274 247.175C276.249 248.326 274.984 249.205 273.479 249.811C272.007 250.386 270.358 250.672 268.534 250.67C266.838 250.668 265.271 250.378 263.831 249.801C262.392 249.191 261.145 248.31 260.09 247.157C259.035 246.004 258.205 244.611 257.598 242.978C257.024 241.314 256.738 239.409 256.74 237.265C256.743 234.417 257.226 232.018 258.188 230.067C259.15 228.084 260.528 226.581 262.321 225.559C264.114 224.505 266.242 223.98 268.706 223.982C271.042 223.985 273.09 224.515 274.849 225.573C276.64 226.599 278.03 228.104 279.02 230.089C280.042 232.042 280.551 234.443 280.548 237.291ZM261.108 237.27C261.106 239.286 261.36 241.046 261.871 242.551C262.413 244.023 263.244 245.16 264.363 245.962C265.482 246.763 266.906 247.164 268.634 247.166C270.362 247.168 271.786 246.769 272.907 245.971C274.028 245.172 274.845 244.037 275.359 242.565C275.904 241.062 276.178 239.302 276.18 237.286C276.183 235.238 275.912 233.494 275.37 232.053C274.827 230.613 273.997 229.508 272.877 228.739C271.79 227.937 270.367 227.536 268.607 227.534C265.983 227.531 264.078 228.393 262.892 230.12C261.706 231.847 261.112 234.23 261.108 237.27ZM305.4 224.501L305.377 246.677L309.121 246.681L309.108 259.161L305.028 259.157L305.037 250.229L287.133 250.21L287.124 259.138L283.092 259.133L283.105 246.653L285.169 246.656C286.643 244.609 287.862 242.386 288.824 239.987C289.819 237.556 290.557 235.029 291.04 232.406C291.555 229.75 291.83 227.111 291.864 224.487L305.4 224.501ZM295.605 227.803C295.475 229.978 295.136 232.234 294.59 234.57C294.043 236.873 293.337 239.08 292.471 241.191C291.637 243.302 290.659 245.125 289.537 246.66L301.297 246.673L301.317 227.809L295.605 227.803ZM323.519 250.728C321.247 250.726 319.216 250.26 317.425 249.33C315.666 248.4 314.275 246.958 313.253 245.005C312.263 243.052 311.77 240.556 311.773 237.516C311.777 234.348 312.307 231.772 313.365 229.789C314.424 227.807 315.849 226.352 317.642 225.426C319.467 224.5 321.532 224.038 323.836 224.041C325.148 224.042 326.411 224.187 327.627 224.477C328.843 224.734 329.835 225.055 330.602 225.44L329.302 228.942C328.535 228.654 327.639 228.381 326.615 228.123C325.592 227.866 324.632 227.737 323.736 227.736C322.008 227.735 320.583 228.101 319.463 228.836C318.342 229.571 317.509 230.658 316.963 232.097C316.418 233.537 316.144 235.328 316.141 237.472C316.139 239.52 316.409 241.265 316.952 242.705C317.494 244.146 318.309 245.235 319.396 245.972C320.484 246.709 321.843 247.078 323.475 247.08C324.883 247.082 326.115 246.939 327.172 246.652C328.26 246.365 329.252 246.014 330.149 245.599L330.145 249.343C329.28 249.79 328.32 250.125 327.264 250.348C326.239 250.603 324.991 250.73 323.519 250.728ZM350.546 224.549L355.154 224.554L344.148 236.926L356.038 250.283L351.142 250.277L339.54 237.209L339.526 250.265L335.302 250.261L335.33 224.533L339.554 224.537L339.54 237.017L350.546 224.549ZM381.193 237.397C381.19 239.541 380.9 241.445 380.323 243.108C379.777 244.74 378.975 246.131 377.918 247.282C376.893 248.433 375.628 249.311 374.123 249.918C372.651 250.492 371.003 250.779 369.179 250.777C367.483 250.775 365.915 250.485 364.475 249.908C363.036 249.298 361.789 248.417 360.734 247.264C359.679 246.111 358.849 244.718 358.243 243.085C357.668 241.42 357.382 239.516 357.385 237.372C357.388 234.524 357.87 232.125 358.832 230.174C359.794 228.191 361.172 226.688 362.965 225.666C364.758 224.612 366.887 224.086 369.351 224.089C371.687 224.091 373.734 224.621 375.493 225.679C377.284 226.705 378.674 228.211 379.664 230.196C380.686 232.149 381.196 234.549 381.193 237.397ZM361.753 237.377C361.751 239.393 362.005 241.153 362.515 242.658C363.058 244.13 363.888 245.267 365.008 246.068C366.127 246.869 367.55 247.271 369.278 247.273C371.006 247.275 372.431 246.876 373.552 246.077C374.672 245.278 375.49 244.143 376.003 242.672C376.549 241.168 376.823 239.409 376.825 237.393C376.827 235.345 376.557 233.6 376.014 232.16C375.472 230.719 374.641 229.614 373.522 228.845C372.435 228.044 371.011 227.642 369.251 227.641C366.627 227.638 364.722 228.5 363.536 230.227C362.35 231.953 361.756 234.337 361.753 237.377ZM407.784 213.953C407.654 215.553 407.253 216.897 406.58 217.984C405.939 219.071 404.978 219.886 403.697 220.429C402.417 220.972 400.752 221.242 398.704 221.24C396.624 221.238 394.945 220.964 393.665 220.418C392.418 219.873 391.507 219.072 390.932 218.016C390.357 216.927 390.006 215.567 389.88 213.934L393.816 213.939C393.974 215.667 394.421 216.835 395.156 217.444C395.924 218.021 397.139 218.31 398.803 218.312C400.275 218.313 401.428 218.011 402.26 217.404C403.125 216.765 403.638 215.613 403.8 213.949L407.784 213.953ZM390.908 240.288C390.908 240.576 390.891 240.992 390.859 241.536C390.858 242.048 390.842 242.608 390.809 243.215C390.776 243.791 390.744 244.351 390.711 244.895C390.679 245.407 390.646 245.823 390.614 246.143L404.413 224.606L409.597 224.611L409.57 250.339L405.634 250.335L405.65 235.167C405.65 234.655 405.651 233.983 405.652 233.151C405.685 232.319 405.717 231.503 405.75 230.703C405.783 229.871 405.816 229.247 405.848 228.831L392.146 250.321L386.914 250.315L386.941 224.587L390.925 224.592L390.908 240.288ZM438.907 250.85C436.635 250.848 434.603 250.382 432.812 249.452C431.053 248.522 429.663 247.081 428.641 245.128C427.651 243.175 427.158 240.678 427.161 237.638C427.164 234.47 427.695 231.895 428.753 229.912C429.811 227.929 431.237 226.474 433.03 225.548C434.855 224.622 436.919 224.16 439.223 224.163C440.535 224.164 441.799 224.309 443.015 224.599C444.23 224.856 445.222 225.177 445.99 225.562L444.69 229.065C443.922 228.776 443.026 228.503 442.003 228.246C440.979 227.989 440.019 227.86 439.123 227.859C437.395 227.857 435.971 228.223 434.85 228.958C433.729 229.693 432.896 230.78 432.35 232.219C431.805 233.659 431.531 235.451 431.529 237.595C431.527 239.643 431.797 241.387 432.339 242.827C432.882 244.268 433.697 245.357 434.784 246.094C435.871 246.831 437.231 247.201 438.863 247.202C440.271 247.204 441.503 247.061 442.559 246.774C443.647 246.487 444.64 246.137 445.536 245.721L445.532 249.465C444.668 249.913 443.707 250.248 442.651 250.47C441.627 250.725 440.379 250.852 438.907 250.85ZM446.685 224.651L451.197 224.655L456.75 239.301C457.069 240.166 457.356 240.998 457.611 241.798C457.898 242.599 458.153 243.383 458.376 244.151C458.6 244.887 458.775 245.607 458.902 246.312L459.094 246.312C459.287 245.512 459.592 244.472 460.009 243.193C460.427 241.881 460.86 240.57 461.31 239.258L466.557 224.672L471.117 224.677L459.998 253.945C459.388 255.544 458.667 256.935 457.834 258.118C457.032 259.334 456.039 260.261 454.855 260.899C453.702 261.57 452.294 261.905 450.63 261.903C449.862 261.902 449.19 261.853 448.614 261.757C448.038 261.692 447.542 261.612 447.126 261.515L447.13 258.155C447.481 258.22 447.897 258.284 448.377 258.348C448.889 258.413 449.417 258.446 449.961 258.446C450.953 258.447 451.801 258.256 452.506 257.873C453.242 257.522 453.867 256.994 454.38 256.291C454.892 255.619 455.325 254.82 455.678 253.892L457.026 250.486L446.685 224.651ZM484.162 224.21C486.37 224.213 488.258 224.695 489.825 225.656C491.424 226.618 492.638 227.979 493.468 229.74C494.331 231.469 494.76 233.502 494.758 235.838L494.755 238.382L477.139 238.363C477.2 241.275 477.934 243.5 479.34 245.037C480.779 246.543 482.778 247.297 485.338 247.3C486.97 247.301 488.41 247.159 489.658 246.872C490.939 246.554 492.251 246.107 493.596 245.532L493.592 249.228C492.279 249.803 490.983 250.218 489.702 250.472C488.422 250.759 486.902 250.901 485.142 250.899C482.71 250.897 480.551 250.399 478.664 249.405C476.809 248.411 475.354 246.937 474.3 244.984C473.278 242.999 472.769 240.582 472.772 237.734C472.775 234.918 473.241 232.503 474.172 230.488C475.134 228.473 476.463 226.922 478.161 225.836C479.89 224.75 481.89 224.208 484.162 224.21ZM484.111 227.666C482.095 227.664 480.494 228.318 479.309 229.629C478.155 230.908 477.465 232.699 477.239 235.003L490.343 235.017C490.344 233.545 490.122 232.265 489.675 231.176C489.228 230.088 488.541 229.239 487.614 228.63C486.718 227.989 485.551 227.668 484.111 227.666ZM518.116 228.278L509.716 228.269L509.692 250.445L505.516 250.441L505.54 228.265L497.236 228.256L497.239 224.704L518.119 224.726L518.116 228.278ZM522.2 250.459L522.228 224.731L526.452 224.735L526.44 235.295L533.112 235.302C535.352 235.305 537.192 235.579 538.632 236.124C540.071 236.67 541.142 237.487 541.845 238.575C542.548 239.632 542.898 240.977 542.897 242.609C542.895 244.209 542.542 245.6 541.836 246.783C541.163 247.967 540.09 248.878 538.617 249.516C537.177 250.155 535.272 250.473 532.904 250.47L522.2 250.459ZM532.524 247.062C534.348 247.064 535.836 246.761 536.989 246.154C538.142 245.516 538.719 244.412 538.72 242.844C538.722 241.276 538.195 240.22 537.14 239.674C536.084 239.097 534.565 238.808 532.581 238.806L526.437 238.799L526.428 247.055L532.524 247.062ZM547.16 250.485L547.188 224.757L551.412 224.762L551.384 250.49L547.16 250.485ZM574.384 240.482C574.384 240.77 574.368 241.186 574.335 241.73C574.334 242.242 574.318 242.802 574.285 243.41C574.253 243.986 574.22 244.546 574.187 245.09C574.155 245.602 574.122 246.018 574.09 246.338L587.889 224.8L593.073 224.806L593.046 250.534L589.11 250.53L589.126 235.362C589.126 234.85 589.127 234.178 589.128 233.346C589.161 232.514 589.194 231.698 589.227 230.898C589.259 230.066 589.292 229.442 589.324 229.026L575.622 250.515L570.39 250.51L570.417 224.782L574.401 224.786L574.384 240.482ZM646.987 224.863L646.959 250.591L612.063 250.554L612.091 224.826L616.315 224.83L616.291 247.006L627.379 247.018L627.403 224.842L631.627 224.847L631.603 247.023L642.739 247.034L642.763 224.858L646.987 224.863ZM650.224 224.866L654.736 224.871L660.288 239.517C660.607 240.381 660.894 241.214 661.15 242.014C661.437 242.814 661.692 243.598 661.915 244.367C662.138 245.103 662.313 245.823 662.441 246.527L662.633 246.527C662.826 245.728 663.131 244.688 663.548 243.408C663.965 242.097 664.399 240.785 664.848 239.474L670.096 224.887L674.656 224.892L663.537 254.16C662.927 255.76 662.205 257.151 661.372 258.334C660.571 259.549 659.578 260.476 658.393 261.115C657.241 261.786 655.832 262.12 654.168 262.118C653.4 262.118 652.728 262.069 652.152 261.972C651.576 261.908 651.081 261.827 650.665 261.731L650.668 258.371C651.02 258.435 651.436 258.5 651.916 258.564C652.428 258.629 652.956 258.661 653.5 258.662C654.492 258.663 655.34 258.472 656.044 258.088C656.781 257.737 657.405 257.21 657.918 256.506C658.431 255.835 658.864 255.035 659.217 254.108L660.564 250.701L650.224 224.866ZM705.364 224.925L705.337 250.653L701.545 250.649L701.563 234.233C701.563 233.561 701.58 232.857 701.613 232.121C701.678 231.385 701.742 230.665 701.807 229.961L701.663 229.961L693.241 250.64L689.689 250.636L681.551 229.939L681.407 229.939C681.47 230.643 681.502 231.363 681.501 232.099C681.532 232.835 681.547 233.587 681.546 234.355L681.529 250.627L677.737 250.623L677.764 224.895L683.38 224.901L691.47 245.598L699.748 224.919L705.364 224.925ZM722.361 224.511C725.497 224.514 727.817 225.204 729.319 226.582C730.822 227.96 731.571 230.152 731.568 233.16L731.55 250.68L728.478 250.677L727.666 247.028L727.474 247.028C726.737 247.955 725.968 248.739 725.167 249.378C724.398 249.985 723.502 250.432 722.478 250.719C721.485 251.006 720.269 251.149 718.829 251.147C717.293 251.145 715.901 250.872 714.654 250.327C713.439 249.781 712.479 248.948 711.777 247.828C711.074 246.675 710.723 245.234 710.725 243.506C710.728 240.946 711.738 238.979 713.755 237.606C715.773 236.2 718.878 235.435 723.07 235.311L727.438 235.172L727.44 233.636C727.442 231.492 726.98 230.004 726.052 229.171C725.125 228.338 723.814 227.92 722.118 227.918C720.774 227.917 719.494 228.124 718.277 228.538C717.061 228.921 715.924 229.368 714.868 229.879L713.575 226.709C714.696 226.103 716.024 225.592 717.561 225.178C719.097 224.731 720.697 224.509 722.361 224.511ZM723.595 238.24C720.395 238.365 718.17 238.874 716.921 239.769C715.704 240.664 715.095 241.927 715.093 243.559C715.092 244.999 715.523 246.055 716.386 246.728C717.281 247.401 718.417 247.739 719.793 247.74C721.969 247.742 723.777 247.152 725.219 245.97C726.66 244.755 727.382 242.9 727.385 240.404L727.387 238.1L723.595 238.24ZM734.642 256.588L737.437 245.983L741.613 245.987L737.426 256.591L734.642 256.588ZM193.725 264.383L193.714 275.087L207.682 275.102L207.693 264.398L211.917 264.402L211.89 290.13L207.666 290.125L207.678 278.654L193.71 278.639L193.698 290.111L189.474 290.106L189.501 264.378L193.725 264.383ZM228.848 263.988C231.984 263.991 234.304 264.682 235.806 266.059C237.309 267.437 238.058 269.63 238.055 272.638L238.037 290.158L234.965 290.154L234.152 286.506L233.96 286.505C233.223 287.433 232.455 288.216 231.654 288.855C230.885 289.462 229.989 289.909 228.964 290.196C227.972 290.483 226.756 290.626 225.316 290.624C223.78 290.623 222.388 290.349 221.141 289.804C219.925 289.258 218.966 288.425 218.264 287.305C217.561 286.152 217.21 284.712 217.212 282.984C217.215 280.424 218.225 278.457 220.242 277.083C222.26 275.677 225.365 274.912 229.557 274.789L233.925 274.649L233.927 273.113C233.929 270.969 233.466 269.481 232.539 268.648C231.612 267.815 230.301 267.397 228.605 267.396C227.261 267.394 225.98 267.601 224.764 268.016C223.548 268.398 222.411 268.845 221.355 269.356L220.062 266.187C221.183 265.58 222.511 265.069 224.048 264.655C225.584 264.208 227.184 263.986 228.848 263.988ZM230.082 277.717C226.882 277.842 224.657 278.351 223.408 279.246C222.191 280.141 221.582 281.404 221.58 283.036C221.579 284.476 222.009 285.533 222.873 286.206C223.768 286.879 224.904 287.216 226.28 287.217C228.456 287.22 230.264 286.629 231.706 285.447C233.147 284.232 233.869 282.377 233.871 279.881L233.874 277.577L230.082 277.717ZM255.342 290.656C253.07 290.654 251.039 290.187 249.248 289.258C247.489 288.328 246.098 286.886 245.076 284.933C244.086 282.98 243.593 280.484 243.596 277.444C243.6 274.276 244.13 271.7 245.188 269.717C246.247 267.734 247.672 266.28 249.465 265.354C251.29 264.428 253.355 263.966 255.659 263.968C256.971 263.97 258.234 264.115 259.45 264.404C260.666 264.662 261.657 264.983 262.425 265.367L261.125 268.87C260.358 268.581 259.462 268.308 258.438 268.051C257.414 267.794 256.455 267.665 255.559 267.664C253.831 267.662 252.406 268.029 251.285 268.764C250.165 269.499 249.332 270.586 248.786 272.025C248.24 273.464 247.967 275.256 247.964 277.4C247.962 279.448 248.232 281.192 248.775 282.633C249.317 284.074 250.132 285.162 251.219 285.9C252.307 286.637 253.666 287.006 255.298 287.008C256.706 287.009 257.938 286.867 258.995 286.58C260.083 286.293 261.075 285.942 261.972 285.527L261.968 289.271C261.103 289.718 260.143 290.053 259.087 290.276C258.062 290.531 256.814 290.658 255.342 290.656ZM286.709 290.209L282.437 290.205L282.461 267.981L274.877 267.973C274.553 272.036 274.149 275.508 273.666 278.387C273.183 281.235 272.572 283.554 271.834 285.345C271.097 287.137 270.215 288.448 269.19 289.279C268.165 290.11 266.965 290.524 265.589 290.523C265.173 290.522 264.757 290.49 264.341 290.426C263.957 290.393 263.637 290.313 263.381 290.185L263.385 287.017C263.577 287.081 263.785 287.129 264.008 287.161C264.232 287.193 264.456 287.21 264.68 287.21C265.384 287.211 266.025 286.923 266.601 286.348C267.178 285.773 267.691 284.893 268.14 283.71C268.621 282.526 269.055 281.039 269.441 279.247C269.827 277.423 270.165 275.28 270.456 272.816C270.746 270.352 271.005 267.569 271.233 264.465L286.737 264.481L286.709 290.209ZM303.687 264.067C306.823 264.071 309.142 264.761 310.645 266.139C312.147 267.516 312.897 269.709 312.894 272.717L312.875 290.237L309.803 290.234L308.991 286.585L308.799 286.585C308.062 287.512 307.293 288.295 306.493 288.934C305.724 289.541 304.828 289.988 303.803 290.275C302.811 290.562 301.595 290.705 300.155 290.703C298.619 290.702 297.227 290.428 295.98 289.883C294.764 289.338 293.805 288.505 293.102 287.384C292.399 286.231 292.049 284.791 292.051 283.063C292.054 280.503 293.064 278.536 295.081 277.162C297.099 275.756 300.203 274.992 304.396 274.868L308.764 274.729L308.765 273.193C308.768 271.049 308.305 269.56 307.378 268.727C306.451 267.894 305.139 267.477 303.443 267.475C302.099 267.474 300.819 267.68 299.603 268.095C298.386 268.478 297.25 268.924 296.193 269.435L294.901 266.266C296.021 265.659 297.35 265.148 298.886 264.734C300.423 264.288 302.023 264.065 303.687 264.067ZM304.92 277.797C301.72 277.921 299.496 278.431 298.247 279.325C297.03 280.22 296.421 281.484 296.419 283.116C296.417 284.556 296.848 285.612 297.711 286.285C298.607 286.958 299.742 287.295 301.118 287.296C303.294 287.299 305.103 286.709 306.544 285.526C307.986 284.312 308.707 282.457 308.71 279.961L308.713 277.657L304.92 277.797ZM338.993 264.537L338.969 286.713L342.713 286.717L342.7 299.197L338.62 299.192L338.629 290.264L320.725 290.245L320.716 299.173L316.684 299.169L316.697 286.689L318.761 286.691C320.235 284.645 321.454 282.422 322.416 280.023C323.411 277.592 324.15 275.065 324.632 272.441C325.147 269.786 325.422 267.146 325.457 264.522L338.993 264.537ZM329.197 267.838C329.067 270.014 328.729 272.27 328.182 274.605C327.636 276.909 326.929 279.116 326.063 281.227C325.229 283.338 324.251 285.161 323.129 286.696L334.889 286.708L334.909 267.844L329.197 267.838ZM350.787 280.245C350.786 280.533 350.77 280.949 350.737 281.493C350.737 282.005 350.72 282.565 350.688 283.173C350.655 283.749 350.622 284.309 350.59 284.853C350.557 285.365 350.525 285.781 350.493 286.101L364.291 264.563L369.475 264.569L369.448 290.297L365.512 290.293L365.528 275.125C365.529 274.613 365.529 273.941 365.53 273.109C365.563 272.277 365.596 271.461 365.629 270.661C365.662 269.829 365.694 269.205 365.727 268.789L352.024 290.278L346.792 290.273L346.819 264.545L350.803 264.549L350.787 280.245ZM394.459 268.147L386.059 268.138L386.036 290.314L381.86 290.31L381.883 268.134L373.579 268.125L373.583 264.573L394.463 264.595L394.459 268.147ZM410.416 275.172C412.656 275.175 414.512 275.449 415.983 275.994C417.455 276.54 418.558 277.357 419.293 278.446C420.059 279.502 420.442 280.847 420.44 282.479C420.439 284.079 420.069 285.471 419.332 286.654C418.627 287.837 417.522 288.748 416.017 289.386C414.512 290.025 412.576 290.343 410.208 290.34L398.544 290.328L398.571 264.6L402.795 264.604L402.784 275.164L410.416 275.172ZM416.216 282.714C416.218 281.146 415.659 280.09 414.539 279.545C413.452 278.967 411.916 278.678 409.932 278.676L402.78 278.668L402.772 286.924L410.02 286.932C411.812 286.934 413.284 286.615 414.437 285.977C415.621 285.338 416.214 284.25 416.216 282.714ZM436.403 290.848C434.131 290.845 432.1 290.379 430.309 289.449C428.55 288.519 427.159 287.078 426.137 285.125C425.148 283.172 424.654 280.675 424.657 277.635C424.661 274.467 425.191 271.892 426.25 269.909C427.308 267.926 428.733 266.472 430.526 265.546C432.351 264.62 434.416 264.158 436.72 264.16C438.032 264.162 439.296 264.307 440.511 264.596C441.727 264.853 442.719 265.174 443.486 265.559L442.186 269.062C441.419 268.773 440.523 268.5 439.499 268.243C438.476 267.986 437.516 267.857 436.62 267.856C434.892 267.854 433.467 268.221 432.347 268.955C431.226 269.69 430.393 270.777 429.847 272.217C429.302 273.656 429.028 275.448 429.025 277.592C429.023 279.64 429.293 281.384 429.836 282.825C430.378 284.265 431.193 285.354 432.28 286.091C433.368 286.829 434.727 287.198 436.359 287.2C437.767 287.201 438.999 287.059 440.056 286.772C441.144 286.485 442.136 286.134 443.033 285.719L443.029 289.463C442.164 289.91 441.204 290.245 440.148 290.468C439.124 290.723 437.875 290.849 436.403 290.848ZM449.77 290.382L444.874 290.377L452.23 279.585C451.238 279.328 450.279 278.927 449.351 278.382C448.424 277.805 447.673 277.02 447.098 276.027C446.523 275.003 446.236 273.738 446.238 272.234C446.24 269.77 447.074 267.899 448.74 266.621C450.405 265.311 452.614 264.657 455.366 264.66L466.886 264.672L466.858 290.4L462.634 290.396L462.645 280.172L456.405 280.165L449.77 290.382ZM450.318 272.287C450.316 273.759 450.859 274.863 451.946 275.6C453.065 276.305 454.617 276.659 456.601 276.661L462.649 276.668L462.658 268.172L455.794 268.164C453.842 268.162 452.434 268.545 451.569 269.312C450.736 270.079 450.319 271.071 450.318 272.287ZM503.612 268.263L495.212 268.254L495.189 290.43L491.013 290.426L491.036 268.25L482.732 268.241L482.736 264.689L503.616 264.711L503.612 268.263ZM511.692 280.416C511.691 280.704 511.675 281.12 511.642 281.664C511.642 282.176 511.625 282.735 511.593 283.343C511.56 283.919 511.527 284.479 511.495 285.023C511.462 285.535 511.43 285.951 511.397 286.271L525.196 264.734L530.38 264.739L530.353 290.467L526.417 290.463L526.433 275.295C526.434 274.783 526.434 274.111 526.435 273.279C526.468 272.447 526.501 271.631 526.534 270.831C526.567 269.999 526.599 269.375 526.632 268.959L512.929 290.449L507.697 290.443L507.724 264.715L511.708 264.72L511.692 280.416ZM572.504 264.784L572.477 290.512L537.581 290.475L537.608 264.747L541.832 264.751L541.809 286.927L552.897 286.939L552.92 264.763L557.144 264.768L557.121 286.944L568.257 286.955L568.28 264.779L572.504 264.784ZM583.74 280.492C583.74 280.78 583.724 281.196 583.691 281.74C583.691 282.252 583.674 282.812 583.641 283.42C583.609 283.996 583.576 284.556 583.543 285.1C583.511 285.612 583.479 286.028 583.446 286.348L597.245 264.81L602.429 264.816L602.402 290.544L598.466 290.539L598.482 275.371C598.482 274.859 598.483 274.187 598.484 273.355C598.517 272.524 598.55 271.708 598.583 270.908C598.615 270.076 598.648 269.452 598.681 269.036L584.978 290.525L579.746 290.52L579.773 264.792L583.757 264.796L583.74 280.492ZM613.881 264.828L613.869 275.532L627.837 275.547L627.849 264.843L632.073 264.847L632.045 290.575L627.821 290.571L627.834 279.099L613.866 279.084L613.853 290.556L609.629 290.551L609.657 264.823L613.881 264.828ZM661.614 277.694C661.611 279.838 661.321 281.742 660.744 283.405C660.198 285.037 659.396 286.428 658.339 287.579C657.314 288.73 656.049 289.608 654.544 290.215C653.072 290.789 651.423 291.076 649.599 291.074C647.903 291.072 646.336 290.782 644.896 290.205C643.457 289.595 642.21 288.714 641.155 287.561C640.1 286.408 639.27 285.015 638.664 283.382C638.089 281.717 637.803 279.813 637.806 277.669C637.809 274.821 638.291 272.422 639.253 270.471C640.215 268.488 641.593 266.985 643.386 265.963C645.179 264.909 647.308 264.383 649.772 264.386C652.108 264.388 654.155 264.918 655.914 265.976C657.705 267.002 659.095 268.508 660.085 270.493C661.107 272.446 661.617 274.846 661.614 277.694ZM642.174 277.674C642.171 279.69 642.426 281.45 642.936 282.955C643.478 284.427 644.309 285.564 645.428 286.365C646.548 287.166 647.971 287.568 649.699 287.57C651.427 287.572 652.852 287.173 653.972 286.374C655.093 285.575 655.91 284.44 656.424 282.969C656.97 281.465 657.243 279.706 657.246 277.69C657.248 275.642 656.978 273.897 656.435 272.457C655.893 271.016 655.062 269.911 653.943 269.142C652.856 268.341 651.432 267.94 649.672 267.938C647.048 267.935 645.143 268.797 643.957 270.524C642.771 272.25 642.177 274.634 642.174 277.674ZM688.205 254.251C688.075 255.85 687.674 257.194 687.001 258.281C686.36 259.369 685.399 260.184 684.118 260.726C682.838 261.269 681.173 261.539 679.125 261.537C677.045 261.535 675.366 261.261 674.086 260.716C672.839 260.17 671.928 259.369 671.353 258.313C670.778 257.224 670.427 255.864 670.301 254.232L674.237 254.236C674.395 255.964 674.842 257.132 675.577 257.741C676.345 258.318 677.56 258.607 679.224 258.609C680.696 258.611 681.849 258.308 682.681 257.701C683.546 257.062 684.059 255.91 684.221 254.246L688.205 254.251ZM671.329 280.585C671.329 280.873 671.312 281.289 671.28 281.833C671.279 282.345 671.263 282.905 671.23 283.513C671.197 284.089 671.165 284.649 671.132 285.192C671.1 285.704 671.067 286.12 671.035 286.44L684.834 264.903L690.018 264.908L689.99 290.636L686.054 290.632L686.071 275.464C686.071 274.952 686.072 274.28 686.073 273.448C686.106 272.616 686.138 271.8 686.171 271C686.204 270.168 686.237 269.544 686.269 269.128L672.566 290.618L667.334 290.612L667.362 264.884L671.346 264.889L671.329 280.585ZM713.003 280.629C713.002 280.917 712.986 281.333 712.953 281.877C712.953 282.389 712.936 282.949 712.904 283.557C712.871 284.133 712.838 284.693 712.806 285.237C712.773 285.749 712.741 286.165 712.709 286.485L726.507 264.947L731.691 264.953L731.664 290.681L727.728 290.676L727.744 275.508C727.745 274.996 727.745 274.324 727.746 273.492C727.779 272.66 727.812 271.845 727.845 271.045C727.878 270.213 727.91 269.589 727.943 269.173L714.24 290.662L709.008 290.657L709.035 264.929L713.019 264.933L713.003 280.629ZM312.865 330.717C310.593 330.715 308.562 330.248 306.771 329.319C305.012 328.389 303.621 326.947 302.599 324.994C301.609 323.041 301.116 320.545 301.119 317.505C301.123 314.337 301.653 311.761 302.711 309.778C303.769 307.795 305.195 306.341 306.988 305.415C308.813 304.489 310.877 304.027 313.181 304.029C314.493 304.031 315.757 304.176 316.973 304.465C318.189 304.723 319.18 305.044 319.948 305.428L318.648 308.931C317.881 308.642 316.985 308.369 315.961 308.112C314.937 307.855 313.978 307.726 313.082 307.725C311.354 307.723 309.929 308.09 308.808 308.825C307.688 309.559 306.854 310.647 306.309 312.086C305.763 313.525 305.49 315.317 305.487 317.461C305.485 319.509 305.755 321.253 306.298 322.694C306.84 324.135 307.655 325.223 308.742 325.961C309.829 326.698 311.189 327.067 312.821 327.069C314.229 327.07 315.461 326.928 316.518 326.641C317.606 326.354 318.598 326.003 319.495 325.588L319.491 329.332C318.626 329.779 317.666 330.114 316.61 330.337C315.585 330.592 314.337 330.719 312.865 330.717ZM346.419 304.544L346.392 330.272L342.168 330.268L342.192 308.14L328.896 308.126L328.872 330.254L324.648 330.249L324.675 304.521L346.419 304.544ZM376.023 317.392C376.021 319.536 375.731 321.44 375.153 323.103C374.607 324.734 373.806 326.126 372.749 327.276C371.723 328.427 370.458 329.306 368.954 329.912C367.481 330.487 365.833 330.773 364.009 330.771C362.313 330.769 360.745 330.48 359.306 329.902C357.866 329.293 356.619 328.411 355.565 327.258C354.51 326.105 353.679 324.712 353.073 323.08C352.499 321.415 352.213 319.511 352.215 317.367C352.218 314.519 352.701 312.119 353.663 310.168C354.625 308.185 356.002 306.683 357.795 305.661C359.589 304.606 361.717 304.081 364.181 304.083C366.517 304.086 368.565 304.616 370.323 305.674C372.114 306.7 373.505 308.205 374.495 310.19C375.517 312.143 376.026 314.544 376.023 317.392ZM356.583 317.371C356.581 319.387 356.835 321.148 357.345 322.652C357.888 324.125 358.719 325.262 359.838 326.063C360.957 326.864 362.381 327.265 364.109 327.267C365.837 327.269 367.261 326.871 368.382 326.072C369.503 325.273 370.32 324.138 370.833 322.666C371.379 321.163 371.653 319.403 371.655 317.387C371.657 315.339 371.387 313.595 370.845 312.154C370.302 310.714 369.471 309.609 368.352 308.84C367.265 308.039 365.841 307.637 364.081 307.635C361.457 307.632 359.552 308.494 358.367 310.221C357.181 311.948 356.586 314.331 356.583 317.371ZM396.987 304.598L401.595 304.603L390.59 316.975L402.48 330.332L397.584 330.327L385.982 317.258L385.968 330.314L381.744 330.31L381.771 304.582L385.995 304.586L385.982 317.066L396.987 304.598ZM427.634 317.447C427.632 319.591 427.342 321.494 426.764 323.158C426.218 324.789 425.417 326.18 424.36 327.331C423.335 328.482 422.07 329.361 420.565 329.967C419.092 330.541 417.444 330.828 415.62 330.826C413.924 330.824 412.356 330.534 410.917 329.957C409.478 329.347 408.231 328.466 407.176 327.313C406.121 326.16 405.29 324.767 404.684 323.134C404.11 321.47 403.824 319.565 403.826 317.421C403.829 314.573 404.312 312.174 405.274 310.223C406.236 308.24 407.614 306.737 409.407 305.715C411.2 304.661 413.328 304.135 415.792 304.138C418.128 304.14 420.176 304.671 421.935 305.728C423.726 306.754 425.116 308.26 426.106 310.245C427.128 312.198 427.637 314.599 427.634 317.447ZM408.194 317.426C408.192 319.442 408.446 321.202 408.957 322.707C409.499 324.179 410.33 325.316 411.449 326.117C412.568 326.919 413.992 327.32 415.72 327.322C417.448 327.324 418.872 326.925 419.993 326.126C421.114 325.328 421.931 324.192 422.445 322.721C422.99 321.218 423.264 319.458 423.266 317.442C423.268 315.394 422.998 313.65 422.456 312.209C421.913 310.768 421.082 309.664 419.963 308.894C418.876 308.093 417.453 307.692 415.693 307.69C413.069 307.687 411.164 308.549 409.978 310.276C408.792 312.003 408.197 314.386 408.194 317.426ZM454.226 294.003C454.096 295.603 453.694 296.946 453.021 298.033C452.38 299.121 451.419 299.936 450.139 300.478C448.858 301.021 447.194 301.291 445.146 301.289C443.066 301.287 441.386 301.013 440.107 300.468C438.859 299.922 437.948 299.121 437.373 298.065C436.798 296.976 436.448 295.616 436.322 293.984L440.258 293.988C440.416 295.716 440.862 296.885 441.598 297.493C442.365 298.07 443.581 298.359 445.245 298.361C446.717 298.363 447.869 298.06 448.702 297.453C449.567 296.814 450.08 295.662 450.242 293.998L454.226 294.003ZM437.35 320.337C437.349 320.625 437.333 321.041 437.3 321.585C437.3 322.097 437.283 322.657 437.251 323.265C437.218 323.841 437.185 324.401 437.153 324.945C437.12 325.457 437.088 325.873 437.055 326.193L450.854 304.655L456.038 304.661L456.011 330.389L452.075 330.384L452.091 315.216C452.092 314.704 452.092 314.032 452.093 313.2C452.126 312.368 452.159 311.553 452.192 310.753C452.225 309.921 452.257 309.297 452.29 308.881L438.587 330.37L433.355 330.365L433.382 304.637L437.366 304.641L437.35 320.337ZM473.558 330.887C471.286 330.885 469.255 330.419 467.464 329.489C465.705 328.559 464.314 327.117 463.292 325.164C462.302 323.211 461.809 320.715 461.812 317.675C461.816 314.507 462.346 311.931 463.404 309.948C464.463 307.966 465.888 306.511 467.681 305.585C469.506 304.659 471.57 304.197 473.874 304.2C475.186 304.201 476.45 304.346 477.666 304.636C478.882 304.893 479.873 305.214 480.641 305.599L479.341 309.101C478.574 308.812 477.678 308.54 476.654 308.282C475.63 308.025 474.671 307.896 473.775 307.895C472.047 307.894 470.622 308.26 469.501 308.995C468.381 309.73 467.547 310.817 467.002 312.256C466.456 313.696 466.183 315.487 466.18 317.631C466.178 319.679 466.448 321.424 466.991 322.864C467.533 324.305 468.348 325.394 469.435 326.131C470.522 326.868 471.882 327.237 473.514 327.239C474.922 327.241 476.154 327.098 477.211 326.811C478.299 326.524 479.291 326.173 480.188 325.758L480.184 329.502C479.319 329.949 478.359 330.284 477.303 330.507C476.278 330.762 475.03 330.889 473.558 330.887ZM503.125 308.263L494.725 308.254L494.701 330.43L490.525 330.425L490.549 308.249L482.245 308.24L482.248 304.688L503.128 304.711L503.125 308.263ZM527.918 311.217C527.916 312.817 527.435 314.064 526.474 314.959C525.513 315.854 524.28 316.461 522.776 316.779L522.776 316.971C524.375 317.197 525.767 317.774 526.95 318.704C528.133 319.601 528.723 321.01 528.721 322.93C528.72 324.018 528.511 325.025 528.094 325.953C527.709 326.881 527.1 327.68 526.268 328.351C525.435 329.022 524.362 329.549 523.05 329.932C521.738 330.282 520.153 330.457 518.297 330.455L507.209 330.443L507.237 304.715L518.277 304.727C520.101 304.728 521.732 304.938 523.172 305.356C524.644 305.741 525.795 306.415 526.626 307.375C527.489 308.304 527.919 309.585 527.918 311.217ZM524.353 322.925C524.355 321.453 523.796 320.396 522.677 319.755C521.557 319.114 519.91 318.792 517.734 318.79L511.446 318.783L511.437 327.039L517.821 327.046C519.933 327.048 521.549 326.746 522.67 326.139C523.791 325.5 524.352 324.429 524.353 322.925ZM523.645 311.74C523.646 310.524 523.199 309.644 522.304 309.099C521.441 308.522 520.017 308.232 518.033 308.23L511.457 308.223L511.449 315.279L517.257 315.285C519.337 315.288 520.922 315.001 522.01 314.427C523.099 313.852 523.644 312.956 523.645 311.74ZM537.9 320.443C537.9 320.731 537.883 321.147 537.851 321.691C537.85 322.203 537.834 322.763 537.801 323.371C537.768 323.947 537.736 324.507 537.703 325.051C537.671 325.563 537.638 325.979 537.606 326.299L551.405 304.762L556.589 304.767L556.562 330.495L552.626 330.491L552.642 315.323C552.642 314.811 552.643 314.139 552.644 313.307C552.677 312.475 552.71 311.659 552.742 310.859C552.775 310.027 552.808 309.403 552.84 308.987L539.138 330.477L533.906 330.471L533.933 304.743L537.917 304.747L537.9 320.443ZM573.753 304.305C575.961 304.308 577.849 304.79 579.416 305.751C581.015 306.713 582.229 308.074 583.059 309.835C583.921 311.564 584.351 313.597 584.349 315.933L584.346 318.477L566.73 318.458C566.791 321.37 567.525 323.595 568.931 325.132C570.369 326.638 572.369 327.392 574.929 327.395C576.561 327.396 578.001 327.254 579.249 326.967C580.529 326.649 581.842 326.202 583.186 325.627L583.183 329.323C581.87 329.898 580.574 330.313 579.293 330.567C578.013 330.854 576.493 330.996 574.733 330.994C572.301 330.992 570.141 330.494 568.254 329.5C566.399 328.506 564.945 327.032 563.891 325.079C562.869 323.094 562.36 320.677 562.363 317.829C562.366 315.013 562.832 312.598 563.762 310.583C564.725 308.568 566.054 307.017 567.751 305.931C569.48 304.845 571.481 304.303 573.753 304.305ZM573.701 307.761C571.685 307.759 570.085 308.413 568.899 309.724C567.746 311.003 567.056 312.794 566.83 315.098L579.934 315.112C579.935 313.64 579.713 312.36 579.266 311.271C578.819 310.183 578.132 309.334 577.204 308.725C576.309 308.084 575.141 307.763 573.701 307.761ZM617.55 304.832L617.523 330.56L613.731 330.556L613.748 314.14C613.749 313.468 613.766 312.764 613.799 312.028C613.863 311.292 613.928 310.572 613.993 309.868L613.849 309.868L605.427 330.547L601.875 330.543L593.737 309.846L593.593 309.846C593.656 310.55 593.687 311.27 593.687 312.006C593.718 312.742 593.733 313.494 593.732 314.262L593.715 330.534L589.923 330.53L589.95 304.802L595.566 304.808L603.656 325.505L611.934 304.826L617.55 304.832Z" fill="#CA9E58"/>
</svg>
